<COLLADA xmlns="http://www.collada.org/2005/11/COLLADASchema" version="1.4.1">
  <asset>
    <created>2026-07-31T12:55:25.574354</created>
    <modified>2026-07-31T12:55:25.574358</modified>
    <up_axis>Y_UP</up_axis>
  </asset>
  <library_effects>
    <effect id="507a664df1a8489184aa020a1592c4b8" name="507a664df1a8489184aa020a1592c4b8">
      <profile_COMMON>
        <technique sid="common">
          <phong>
            <emission>
              <color>0.0 0.0 0.0 1.0</color>
            </emission>
            <ambient>
              <color>0.0 0.0 0.0 1.0</color>
            </ambient>
            <diffuse>
              <color>0.0 0.0 0.0 1.0</color>
            </diffuse>
            <specular>
              <color>0.0 0.0 0.0 1.0</color>
            </specular>
            <shininess>
              <float>0.0</float>
            </shininess>
            <reflective>
              <color>0.0 0.0 0.0 1.0</color>
            </reflective>
            <reflectivity>
              <float>0.0</float>
            </reflectivity>
            <transparent>
              <color>0.0 0.0 0.0 1.0</color>
            </transparent>
            <transparency>
              <float>1.0</float>
            </transparency>
          </phong>
        </technique>
        <extra>
          <technique profile="GOOGLEEARTH">
            <double_sided>0</double_sided>
          </technique>
        </extra>
      </profile_COMMON>
    </effect>
  </library_effects>
  <library_geometries>
    <geometry id="3712e93cb744451f919510a10d978ed6" name="3ade165fa72f4f989816ab8a4f9cfcc9">
      <mesh>
        <source id="verts-array">
          <float_array count="1977" id="verts-array-array">0.0002850567 0.001472665 2.058229e-17 0.0009367868 0.001171508 1.704034e-17 0.0009367868 0.001171508 0.016 -0.0004319764 0.001436453 1.940909e-17 0.0002850567 0.001472665 0.016 -0.001050049 0.001071166 1.378949e-17 -0.0004319764 0.001436453 0.016 -0.001050049 0.001071166 0.016 -0.001171508 0.0009367868 0.016 -0.001171508 0.0009367868 1.18217e-17 -0.001427568 0.0004604885 0.016 -0.001427568 0.0004604885 5.010895e-18 -0.001478048 -0.0002556816 -4.915639e-18 -0.001189926 -0.0009132781 -1.371606e-17 -0.001478048 -0.0002556816 0.016 -0.0006292053 -0.001361654 -1.93743e-17 -0.001189926 -0.0009132781 0.016 7.565835e-05 -0.001498091 -2.059411e-17 -0.0006292053 -0.001361654 0.016 0.0007631896 -0.001291333 -1.709607e-17 7.565835e-05 -0.001498091 0.016 0.001275883 -0.0007887469 -9.681522e-18 0.0007631896 -0.001291333 0.016 0.001496288 -0.0001054682 -4.905359e-20 0.001275883 -0.0007887469 0.016 0.00137391 0.000601972 9.594652e-18 0.001496288 -0.0001054682 0.016 0.00137391 0.000601972 0.016 -0.004231255 0.001682043 2.428613e-17 -0.003343913 0.003060599 5.390523e-17 -0.00185312 0.00405351 5.551115e-17 0.006324346 0.006152663 7.56995e-17 0.006358612 0.004701536 5.571433e-17 0.001387442 -0.004235564 -4.510281e-17 -0.0003814899 -0.004517022 -6.413861e-17 -0.00196853 -0.00410581 -4.163336e-17 0.00707013 0.003436354 5.551115e-17 0.008966969 0.001427183 3.469447e-17 0.007050556 0.007534347 1.00614e-16 0.006975354 0.007450019 9.420734e-17 0.01041018 0.0004048033 2.22298e-17 0.01213592 1.755964e-05 1.850941e-17 0.01226371 1.644361e-05 4.163336e-17 0.00707013 0.003436354 -0.0037 0.008966969 0.001427183 -0.0037 -0.001962353 0.004332917 0.0003 0.00815923 0.008289887 0.0003 0.007918987 0.008183615 0.0002884982 0.006358612 0.004701536 -0.0037 0.006324346 0.006152663 -0.0037 0.006975354 0.007450019 -0.0037 0.00815923 0.008289887 -0.0037 0.001496674 -0.004514971 0.0003 0.01243389 2.059385e-05 5.809853e-05 0.01387759 0.0003252712 0.0003 0.01387759 0.0003252712 -0.0037 0.01213592 1.755964e-05 -0.0037 0.01041018 0.0004048033 -0.0037 0.007288272 0.0036423 -0.004 0.009185112 0.001633129 -0.004 0.008268463 0.00801048 -0.004 0.007202974 0.007254599 -0.004 0.006617067 0.006086979 -0.004 0.006647906 0.004780964 -0.004 0.03552476 0.01898827 -0.0037 0.03563399 0.01870886 -0.004 0.01053211 0.0006789082 -0.004 0.0121428 0.0003174808 -0.004 0.01376836 0.0006046782 -0.004 0.03887455 0.01041979 -0.004 0.03898378 0.01014038 -0.0037 0.03608276 0.01550111 -0.004 0.04150483 0.01324703 -0.004 0.04051234 0.01153324 -0.004 0.03853015 0.01377557 -0.004 0.03577622 0.01430864 -0.004 0.03606434 0.01365104 -0.004 0.03620422 0.01563549 -0.004 0.03875056 0.01445885 -0.004 0.04165544 0.01522173 -0.004 0.03801746 0.01327299 -0.004 0.03682229 0.01600078 -0.004 0.03662506 0.01320267 -0.004 0.0358267 0.01502481 -0.004 0.04093435 0.01706623 -0.004 0.03862818 0.01516629 -0.004 0.03819105 0.01573583 -0.004 0.03732993 0.01306623 -0.004 0.03759269 0.01900144 -0.004 0.03753933 0.01603699 -0.004 0.03948437 0.01841518 -0.004 0.04073199 0.01132889 -0.0037 0.04179138 0.01315823 -0.0037 0.04195215 0.01526605 -0.0037 0.04118244 0.01723489 -0.0037 0.03963471 0.01867479 -0.0037 0.03761551 0.01930057 -0.0037 0.03898378 0.01014038 -0.001 0.04073199 0.01132889 -0.001 0.04179138 0.01315823 -0.001 0.04195215 0.01526605 -0.001 0.04118244 0.01723489 -0.001 0.03963471 0.01867479 -0.001 0.03761551 0.01930057 -0.001 0.03552476 0.01898827 -0.001 0.03819105 0.01573583 -0.001 0.03753933 0.01603699 -0.001 0.03682229 0.01600078 -0.001 0.03620422 0.01563549 -0.001 0.03608276 0.01550111 -0.001 0.0358267 0.01502481 -0.001 0.03577622 0.01430864 -0.001 0.03606434 0.01365104 -0.001 0.03662506 0.01320267 -0.001 0.03732993 0.01306623 -0.001 0.03801746 0.01327299 -0.001 0.03853015 0.01377557 -0.001 0.03875056 0.01445885 -0.001 0.03862818 0.01516629 -0.001 -0.003559631 0.003269084 0.0003 -0.004510354 0.001792059 0.0003 -0.004609795 -0.0001916145 0.0001842265 -0.004805153 -0.0002679847 0.0004751832 -0.003166701 0.00363012 0.0025 -0.003559631 0.003269084 0.0025 -0.004280628 0.002285183 0.0025 -0.004568393 0.001636467 0.0025 -0.004798659 0.0006174516 0.0025 -0.004805167 -0.0002679962 0.0025 -0.001962353 0.004332917 0.0025 -0.004443669 0.002373503 0.003538351 -0.004983046 0.0006370507 0.003538351 -0.005672416 0.0007103259 0.00462132 -0.006749319 0.0008247932 0.005314574 -0.007781853 0.0009345445 0.0055 -0.007640286 0.001791054 0.0055 -0.005359126 0.00283065 0.004906137 -0.005325708 0.002846049 0.004889484 -0.006314303 0.002391578 0.00529065 -0.005053233 0.002703703 0.00462132 -0.004758434 0.003108403 0.004577097 -0.003353005 0.003750728 0.003606928 -0.003158439 0.003836494 0.003457092 -0.004860531 -0.0002896403 0.003082705 -0.004984945 -0.0003382792 0.003539197 -0.00521476 -0.0004281237 0.004037584 -0.00565152 -0.0005988725 0.004621536 -0.005860084 -0.0006804093 0.004819131 -0.006709285 -0.001012399 0.005324477 -0.007666477 -0.001386607 0.0055 -0.004595751 0.003303407 0.004725168 -0.007749518 0.002070461 0.0058 -0.006199902 0.002676274 0.005530531 -0.02142377 -0.003597513 0.0055 -0.021533 -0.003318106 0.0058 -0.008322773 -0.001643182 0.004399714 -0.005808546 -0.0006602608 0.001100287 -0.00484256 -0.0002826148 0.000288991 -0.009288758 -0.002020828 0.005211009 -0.01048526 -0.002488594 0.0055 -0.007230448 -0.004437252 0.004399714 -0.004716222 -0.003454331 0.001100287 -0.008196434 -0.004814898 0.005211009 -0.009392939 -0.005282664 0.0055 -0.003517457 -0.002985675 0.0001842266 -0.003750236 -0.003076685 0.000288991 -0.00209901 -0.004375949 0.0003 -0.0003986097 -0.004816533 0.0003 -0.003712824 -0.003062065 0.0004751832 -0.003712843 -0.003062066 0.0025 -0.003868354 -0.003122862 0.0034685 -0.005590576 -0.003796154 0.005314371 -0.005889244 -0.003912917 0.005411328 -0.004559099 -0.003392905 0.004621434 -0.005004284 -0.003566947 0.005002034 -0.004311677 -0.003296176 0.00432738 -0.006574153 -0.004180677 0.0055 0.001496674 -0.004514971 0.0025 0.0001349998 -0.004815344 0.0025 -0.002247188 -0.004300975 0.0025 -0.003107524 -0.003708324 0.0025 -0.0003986097 -0.004816533 0.0025 -0.001595744 -0.004582514 0.0025 -0.003229728 -0.003847783 0.003538351 -0.001655655 -0.004757995 0.003538351 -0.001879642 -0.005414067 0.00462132 4.487682e-05 -0.005042242 0.003632736 0.0003386721 -0.004941456 0.00341368 -0.00125372 -0.005468286 0.004499194 -0.001294227 -0.005481268 0.004522855 -0.003686615 -0.00436918 0.00462132 -0.002108646 -0.005744114 0.004948157 -0.002889565 -0.005998105 0.005251519 -0.004400343 -0.005183683 0.005314574 -0.004399724 -0.006498021 0.0055 -0.005084665 -0.005964629 0.0055 -0.001136719 -0.00554448 0.004725164 -0.001927035 -0.005853449 0.005185361 -0.004290492 -0.006777428 0.0058 -0.01397701 -0.01056431 0.0058 -0.01408624 -0.0102849 0.0055 -0.0232513 -0.004882765 0.0055 -0.02209637 -0.00606538 0.0055 -0.02261703 -0.007033854 0.0055 -0.02184941 -0.005792142 0.0055 -0.02059266 -0.005049393 0.0055 -0.01918022 -0.01263465 0.0055 -0.01956047 -0.0110163 0.0055 -0.01816249 -0.01059589 0.0055 -0.02139666 -0.01235335 0.0055 -0.02099369 -0.01073888 0.0055 -0.02427785 -0.006867194 0.0055 -0.02271967 -0.008490066 0.0055 -0.01708473 -0.01185963 0.0055 -0.01712001 -0.009573965 0.0055 -0.02323212 -0.01107944 0.0055 -0.02213382 -0.009827179 0.0055 -0.02427093 -0.009101405 0.0055 -0.0178095 -0.005588115 0.0055 -0.01913469 -0.004975761 0.0055 -0.01692069 -0.006746171 0.0055 -0.01667185 -0.008184632 0.0055 -0.0169167 -0.01210816 0.0058 -0.02347731 -0.004685484 0.0058 -0.02456945 -0.006796714 0.0058 -0.02456209 -0.009173688 0.0058 -0.0234569 -0.01127812 0.0058 -0.02150416 -0.01263343 0.0058 -0.01914609 -0.0129327 0.0058 -0.01397701 -0.01056431 0.0102 -0.0169167 -0.01210816 0.0102 -0.021533 -0.003318106 0.0102 -0.02347731 -0.004685484 0.0102 -0.02456945 -0.006796714 0.0102 -0.02456209 -0.009173688 0.0102 -0.0234569 -0.01127812 0.0102 -0.02150416 -0.01263343 0.0102 -0.01914609 -0.0129327 0.0102 -0.0178095 -0.005588115 0.0105 -0.01913469 -0.004975761 0.0105 -0.02059266 -0.005049393 0.0105 -0.02184941 -0.005792142 0.0105 -0.02209637 -0.00606538 0.0105 -0.02261703 -0.007033854 0.0105 -0.02271967 -0.008490066 0.0105 -0.02213382 -0.009827179 0.0105 -0.02099369 -0.01073888 0.0105 -0.01956047 -0.0110163 0.0105 -0.01816249 -0.01059589 0.0105 -0.01712001 -0.009573965 0.0105 -0.01667185 -0.008184632 0.0105 -0.01692069 -0.006746171 0.0105 -0.01408624 -0.0102849 0.0105 -0.01708473 -0.01185963 0.0105 -0.004290492 -0.006777428 0.0102 -0.004399724 -0.006498021 0.0105 -0.01918022 -0.01263465 0.0105 -0.02139666 -0.01235335 0.0105 -0.02323212 -0.01107944 0.0105 -0.02427093 -0.009101405 0.0105 -0.02427785 -0.006867194 0.0105 -0.0232513 -0.004882765 0.0105 -0.02142377 -0.003597513 0.0105 -0.007640286 0.001791054 0.0105 -0.007749518 0.002070461 0.0102 -0.001136724 -0.005544482 0.01127483 0.001496674 -0.004514971 0.0135 0.0002810399 -0.004961395 0.01254291 7.989434e-05 -0.00503033 0.01239307 -0.002740875 -0.006171615 0.01046947 -0.003018032 -0.006039995 0.01070935 -0.001983327 -0.00570347 0.01111052 -0.001294275 -0.005481284 0.01147712 -0.00138853 -0.00551152 0.0114229 -0.002018329 -0.005714819 0.01109386 -0.004595745 0.003303409 0.01127484 -0.003386817 0.003735731 0.01236726 -0.003102565 0.003860929 0.01258632 -0.004630047 0.003168065 0.01150081 -0.004668619 0.003150131 0.01147714 -0.005386062 0.00299444 0.01081464 -0.005445364 0.002790921 0.01105184 -0.006191488 0.002447925 0.01074848 -0.001962353 0.004332917 0.0135 -0.005053233 0.002703703 0.01137868 -0.005672416 0.0007103259 0.01137868 -0.004983046 0.0006370507 0.01246165 -0.004798659 0.0006174516 0.0135 -0.004568393 0.001636467 0.0135 -0.004443669 0.002373503 0.01246165 -0.004280628 0.002285183 0.0135 -0.003559631 0.003269084 0.0135 -0.003166701 0.00363012 0.0135 -0.006749319 0.0008247932 0.01068543 -0.007781853 0.0009345445 0.0105 -0.006981568 -0.001118847 0.01058867 -0.0066829 -0.001002084 0.01068563 -0.007666477 -0.001386607 0.0105 -0.006096608 -0.0007728768 0.01099797 -0.005651423 -0.0005988345 0.01137857 -0.005404001 -0.0005021064 0.01167262 -0.004960678 -0.0003287923 0.0125315 -0.004805167 -0.0002679962 0.0135 -0.009392939 -0.005282664 0.0105 -0.01048526 -0.002488594 0.0105 -0.005084665 -0.005964629 0.0105 -0.006574153 -0.004180677 0.0105 -0.009288758 -0.002020828 0.01078899 -0.008322773 -0.001643182 0.01160029 -0.008196434 -0.004814898 0.01078899 -0.007230448 -0.004437252 0.01160029 -0.005808546 -0.0006602608 0.01489971 -0.004716222 -0.003454331 0.01489971 -0.004805152 -0.0002679841 0.01552482 -0.00484256 -0.0002826148 0.01571101 -0.004609776 -0.0001916161 0.01581577 -0.003750236 -0.003076685 0.01571101 -0.003517469 -0.002985689 0.01581577 -0.00196853 -0.00410581 0.016 -0.004231255 0.001682043 0.016 -0.003892621 -0.003132349 0.0124608 -0.003768207 -0.003083711 0.0129173 -0.004559196 -0.003392943 0.01137846 -0.004122435 -0.003222194 0.01196242 -0.005616961 -0.003806469 0.01067552 -0.00476776 -0.003474479 0.01118087 -0.003712843 -0.003062066 0.0135 -0.003712825 -0.003062065 0.01552482 -0.003686615 -0.00436918 0.01137868 -0.001879642 -0.005414067 0.01137868 -0.001655655 -0.004757995 0.01246165 -0.004400343 -0.005183683 0.01068543 0.0001349998 -0.004815344 0.0135 -0.0003986097 -0.004816533 0.0135 -0.003229728 -0.003847783 0.01246165 -0.002247188 -0.004300975 0.0135 -0.001595744 -0.004582514 0.0135 -0.003107524 -0.003708324 0.0135 -0.001962353 0.004332917 0.0157 -0.003559631 0.003269084 0.0157 -0.004510354 0.001792059 0.0157 0.001496674 -0.004514971 0.0157 -0.0003986097 -0.004816533 0.0157 -0.00209901 -0.004375949 0.0157 -0.003343913 0.003060599 0.016 -0.00185312 0.00405351 0.016 0.007050556 0.007534347 0.016 0.007305513 0.007778998 0.01586497 0.00815923 0.008289887 0.0157 0.001387442 -0.004235564 0.016 -0.0003814899 -0.004517022 0.016 0.01387759 0.0003252712 0.0157 0.01380474 0.000297515 0.01570068 0.01226371 1.644361e-05 0.016 0.008966969 0.001427183 0.016 0.00707013 0.003436354 0.016 0.01041018 0.0004048033 0.016 0.01213592 1.755964e-05 0.016 0.006358612 0.004701536 0.016 0.006324346 0.006152663 0.016 0.006975354 0.007450019 0.016 0.01041018 0.0004048033 0.0197 0.008966969 0.001427183 0.0197 0.01213592 1.755964e-05 0.0197 0.01387759 0.0003252712 0.0197 0.006975354 0.007450019 0.0197 0.00815923 0.008289887 0.0197 0.006324346 0.006152663 0.0197 0.006358612 0.004701536 0.0197 0.00707013 0.003436354 0.0197 0.009185112 0.001633129 0.02 0.007288272 0.0036423 0.02 0.006647906 0.004780964 0.02 0.006617067 0.006086979 0.02 0.007202974 0.007254599 0.02 0.008268463 0.00801048 0.02 0.03563399 0.01870886 0.02 0.03552476 0.01898827 0.0197 0.01376836 0.0006046782 0.02 0.0121428 0.0003174808 0.02 0.01053211 0.0006789082 0.02 0.03898378 0.01014038 0.0197 0.03887455 0.01041979 0.02 0.0358267 0.01502481 0.02 0.03608276 0.01550111 0.02 0.04150483 0.01324703 0.02 0.03875056 0.01445885 0.02 0.03853015 0.01377557 0.02 0.03577622 0.01430864 0.02 0.04051234 0.01153324 0.02 0.04165544 0.01522173 0.02 0.04093435 0.01706623 0.02 0.03862818 0.01516629 0.02 0.03620422 0.01563549 0.02 0.03801746 0.01327299 0.02 0.03948437 0.01841518 0.02 0.03819105 0.01573583 0.02 0.03759269 0.01900144 0.02 0.03753933 0.01603699 0.02 0.03682229 0.01600078 0.02 0.03606434 0.01365104 0.02 0.03732993 0.01306623 0.02 0.03662506 0.01320267 0.02 0.03761551 0.01930057 0.0197 0.03963471 0.01867479 0.0197 0.04118244 0.01723489 0.0197 0.04195215 0.01526605 0.0197 0.04179138 0.01315823 0.0197 0.04073199 0.01132889 0.0197 0.03898378 0.01014038 0.017 0.04073199 0.01132889 0.017 0.04179138 0.01315823 0.017 0.04195215 0.01526605 0.017 0.04118244 0.01723489 0.017 0.03963471 0.01867479 0.017 0.03761551 0.01930057 0.017 0.03552476 0.01898827 0.017 0.03753933 0.01603699 0.017 0.03819105 0.01573583 0.017 0.03682229 0.01600078 0.017 0.03620422 0.01563549 0.017 0.0358267 0.01502481 0.017 0.03608276 0.01550111 0.017 0.03577622 0.01430864 0.017 0.03606434 0.01365104 0.017 0.03662506 0.01320267 0.017 0.03732993 0.01306623 0.017 0.03801746 0.01327299 0.017 0.03853015 0.01377557 0.017 0.03875056 0.01445885 0.017 0.03862818 0.01516629 0.017 0.03445101 0.008368319 0.001 0.03445101 0.008368319 0.015 0.0345928 0.00842375 0.0002346331 0.03499658 0.008581609 -0.0004142136 0.03631372 0.009096535 -0.001 0.03560089 0.008817858 -0.0008477591 0.03499658 0.008581609 0.01641421 0.0345928 0.00842375 0.01576537 0.03560089 0.008817858 0.01684776 0.03631372 0.009096535 0.017 0.03390485 0.009765354 0.015 0.03390485 0.009765354 0.001 0.03404664 0.009820785 0.0002346331 0.03445042 0.009978643 -0.0004142136 0.03505473 0.01021489 -0.0008477591 0.03576756 0.01049357 -0.001 0.03404664 0.009820785 0.01576537 0.03445042 0.009978643 0.01641421 0.03505473 0.01021489 0.01684776 0.03576756 0.01049357 0.017 0.02853958 0.01625746 0.017 0.03145244 0.008806602 0.017 0.02853958 0.01625746 -0.001 0.03145244 0.008806602 -0.001 0.02958973 0.008078386 0.015 0.02958973 0.008078386 0.001 0.03073961 0.008527926 0.01684776 0.02973152 0.008133818 0.01576537 0.03013531 0.008291676 0.01641421 0.03073961 0.008527926 -0.0008477591 0.02973152 0.008133818 0.0002346331 0.03013531 0.008291676 -0.0004142136 0.02667687 0.01552924 0.001 0.02667687 0.01552924 0.015 0.02681866 0.01558467 0.01576537 0.02722244 0.01574253 0.01641421 0.02782675 0.01597878 0.01684776 0.02681866 0.01558467 0.0002346331 0.02722244 0.01574253 -0.0004142136 0.02782675 0.01597878 -0.0008477591 0.02341712 0.01425486 0.017 0.02513804 0.01492765 0.0002346331 0.02527983 0.01498308 0.001 0.02527983 0.01498308 0.015 0.0109533 0.009382211 -0.001 0.02341712 0.01425486 -0.001 0.02412995 0.01453354 0.01684776 0.02513804 0.01492765 0.01576537 0.02473425 0.01476979 -0.0004142136 0.0109533 0.009382211 0.017 0.01011339 0.009053852 -0.0007851405 0.008618267 0.008469344 0.01460743 0.008198311 0.008305165 0.0145 0.01011339 0.009053852 0.01678514 0.02473425 0.01476979 0.01641421 0.02412995 0.01453354 -0.0008477591 0.004091466 0.00669962 0.0145 0.008198311 0.008305165 0.0015 0.008618267 0.008469344 0.00139257 0.008947992 0.008598248 0.001093363 0.00911664 0.008664181 0.0006666667 0.009453938 0.008796045 -0.0001867267 0.00911664 0.008664181 0.01533333 0.008947992 0.008598248 0.01490664 0.003378637 0.006420943 0.01434776 0.002228753 0.005971404 0.0125 0.002228753 0.005971404 0.0035 0.002774329 0.006184693 0.002085787 0.003378637 0.006420943 0.001652241 0.004091466 0.00669962 0.0015 0.009453938 0.008796045 0.01618673 0.002370543 0.006026836 0.01326537 0.002774329 0.006184693 0.01391421 0.002370543 0.006026836 0.002734633 0.02614793 0.007269687 -0.001 0.01368411 0.002397035 -0.001 0.004959563 -0.001013772 0.0125 0.005101354 -0.0009583396 0.01326537 0.005505139 -0.0008004822 0.01391421 0.006109447 -0.0005642319 0.01434776 0.006822276 -0.0002855556 0.0015 0.004959563 -0.001013772 0.0035 0.006109447 -0.0005642319 0.001652241 0.005505139 -0.0008004822 0.002085787 0.006822276 -0.0002855556 0.0145 0.0128442 0.002068677 -0.0007851405 0.01218475 0.001810869 -0.0001867267 0.02801064 0.007997903 0.001 0.02786885 0.007942471 0.0002346331 0.02746507 0.007784613 -0.0004142136 0.01092912 0.001319989 0.0015 0.005101354 -0.0009583396 0.002734633 0.0116788 0.001613073 0.001093363 0.02746507 0.007784613 0.01641421 0.02786885 0.007942471 0.01576537 0.01184745 0.001679005 0.0006666667 0.02686076 0.007548363 -0.0008477591 0.01368411 0.002397035 0.017 0.01184745 0.001679005 0.01533333 0.01218475 0.001810869 0.01618673 0.01134908 0.001484169 0.00139257 0.0116788 0.001613073 0.01490664 0.02686076 0.007548363 0.01684776 0.01092912 0.001319989 0.0145 0.02614793 0.007269687 0.017 0.02801064 0.007997903 0.015 0.01134908 0.001484169 0.01460743 0.0128442 0.002068677 0.01678514 0.03756308 0.02765971 0.0035 0.03826912 0.02733346 0.0035 0.03826912 0.02733346 0.0115 0.0367863 0.02762048 0.0035 0.03756308 0.02765971 0.0115 0.03611672 0.02722475 0.0035 0.0367863 0.02762048 0.0115 0.03611672 0.02722475 0.0115 0.03598513 0.02707917 0.0115 0.03598513 0.02707917 0.0035 0.03570774 0.02656318 0.0115 0.03570774 0.02656318 0.0035 0.03565305 0.02578733 0.0035 0.03596518 0.02507494 0.0035 0.03565305 0.02578733 0.0115 0.03657263 0.0245892 0.0035 0.03596518 0.02507494 0.0115 0.03733623 0.02444139 0.0035 0.03657263 0.0245892 0.0115 0.03808106 0.02466538 0.0035 0.03733623 0.02444139 0.0115 0.03863648 0.02520985 0.0035 0.03808106 0.02466538 0.0115 0.03887525 0.02595006 0.0035 0.03863648 0.02520985 0.0115 0.03874267 0.02671646 0.0035 0.03887525 0.02595006 0.0115 0.03874267 0.02671646 0.0115 0.001488403 0.01215214 0.0035 0.001620978 0.01138574 0.0035 -0.004011763 0.01274328 0.0035 -0.003075032 0.0143608 0.0035 -0.001269133 0.01251485 0.0035 0.001382207 0.01064552 0.0035 -0.001137553 0.01266043 0.0035 -0.001529254 0.0154117 0.0035 -0.0004679745 0.01305616 0.0035 0.04126603 0.02482104 0.0035 0.0403293 0.02320352 0.0035 0.03572502 0.02997602 0.0035 -0.002104815 0.007865477 0.0035 -0.003473333 0.009138653 0.0035 -0.001289086 0.01051062 0.0035 -0.004153915 0.01087952 0.0035 -0.001601219 0.01122301 0.0035 -0.001546532 0.01199886 0.0035 0.04140818 0.0266848 0.0035 0.03878352 0.02215262 0.0035 0.001014852 0.01276913 0.0035 0.0003088115 0.01309539 0.0035 0.001529254 0.007588302 0.0035 0.0008267887 0.01010106 0.0035 -0.0003194122 0.007312163 0.0035 8.19632e-05 0.009877068 0.0035 -0.0006816391 0.01002488 0.0035 0.0407276 0.02842567 0.0035 0.03935908 0.02969884 0.0035 0.03757368 0.03025216 0.0035 0.001014852 0.01276913 0.0115 0.0003088115 0.01309539 0.0115 -0.0004679745 0.01305616 0.0115 -0.001137553 0.01266043 0.0115 -0.001269133 0.01251485 0.0115 -0.001546532 0.01199886 0.0115 -0.001601219 0.01122301 0.0115 -0.001289086 0.01051062 0.0115 -0.0006816391 0.01002488 0.0115 8.19632e-05 0.009877068 0.0115 0.0008267887 0.01010106 0.0115 0.001382207 0.01064552 0.0115 0.001620978 0.01138574 0.0115 0.001488403 0.01215214 0.0115 0.03889275 0.02187322 0.0038 0.001638486 0.007308895 0.0038 -0.001638486 0.01569111 0.0038 -0.003294677 0.01456514 0.0038 -0.004298317 0.01283209 0.0038 -0.004450623 0.0108352 0.0038 -0.003721428 0.008969985 0.0038 -0.002255158 0.007605868 0.0038 -0.0003422273 0.007013032 0.0038 0.04054895 0.02299918 0.0038 0.04155258 0.02473223 0.0038 0.04170489 0.02672912 0.0038 0.0409757 0.02859434 0.0038 0.03950943 0.02995845 0.0038 0.03759649 0.03055129 0.0038 0.03561578 0.03025543 0.0038 0.03889275 0.02187322 0.0112 0.001638486 0.007308895 0.0112 -0.001638486 0.01569111 0.0112 -0.003294677 0.01456514 0.0112 -0.004298317 0.01283209 0.0112 -0.004450623 0.0108352 0.0112 -0.003721428 0.008969985 0.0112 -0.002255158 0.007605868 0.0112 -0.0003422273 0.007013032 0.0112 0.03561578 0.03025543 0.0112 0.001529254 0.007588302 0.0115 -0.0003194122 0.007312163 0.0115 -0.002104815 0.007865477 0.0115 -0.003473333 0.009138653 0.0115 -0.004153915 0.01087952 0.0115 -0.004011763 0.01274328 0.0115 -0.003075032 0.0143608 0.0115 -0.001529254 0.0154117 0.0115 0.03572502 0.02997602 0.0115 0.03757368 0.03025216 0.0115 0.03878352 0.02215262 0.0115 0.04126603 0.02482104 0.0115 0.04140818 0.0266848 0.0115 0.0407276 0.02842567 0.0115 0.03935908 0.02969884 0.0115 0.0403293 0.02320352 0.0115 0.04054895 0.02299918 0.0112 0.04155258 0.02473223 0.0112 0.04170489 0.02672912 0.0112 0.0409757 0.02859434 0.0112 0.03950943 0.02995845 0.0112 0.03759649 0.03055129 0.0112</float_array>
          <technique_common>
            <accessor count="659" source="#verts-array-array" stride="3">
              <param type="float" name="X"/>
              <param type="float" name="Y"/>
              <param type="float" name="Z"/>
            </accessor>
          </technique_common>
        </source>
        <source id="normals-array">
          <float_array count="1977" id="normals-array-array">-0.1223572 -0.6321239 -0.7651458 -0.4021045 -0.5028557 -0.7651458 -0.4021045 -0.5028557 0.7651458 0.1854207 -0.6165802 -0.7651458 -0.1223572 -0.6321239 0.7651458 0.4236344 -0.5187369 -0.7425941 0.1854207 -0.6165802 0.7651458 0.4236344 -0.5187369 0.7425941 0.5539362 -0.3905529 0.7352708 0.5539362 -0.3905529 -0.7352708 0.6270376 -0.181546 0.7575387 0.6270376 -0.181546 -0.7575387 0.6344346 0.1097483 -0.7651458 0.5107614 0.3920137 -0.7651458 0.6344346 0.1097483 0.7651458 0.2700788 0.5844736 -0.7651458 0.5107614 0.3920137 0.7651458 -0.03247547 0.6430376 -0.7651458 0.2700788 0.5844736 0.7651458 -0.32759 0.5542894 -0.7651458 -0.03247547 0.6430376 0.7651458 -0.5476577 0.3385602 -0.7651458 -0.32759 0.5542894 0.7651458 -0.6422636 0.04527097 -0.7651458 -0.5476577 0.3385602 0.7651458 -0.5897346 -0.2583893 -0.7651458 -0.6422636 0.04527097 0.7651458 -0.5897346 -0.2583893 0.7651458 -0.4057248 0.1327766 -0.9042996 -0.3017008 0.2976006 -0.9057651 -0.1895794 0.3591404 -0.9138259 -0.6274452 0.1407946 -0.765826 -0.6201003 -0.1702535 -0.765826 0.1042669 -0.3924929 -0.9138259 -0.01986356 -0.4233144 -0.9057651 -0.2080966 -0.3727451 -0.9042991 -0.545585 -0.4015452 -0.735594 -0.448192 -0.5159381 -0.7300218 -0.5106045 0.7489283 -0.4223618 -0.5583225 0.3792473 -0.7378669 -0.2669115 -0.6000391 -0.7541295 -0.07803318 -0.6771293 -0.731715 0.1416725 -0.9017395 -0.4084052 -0.7465028 -0.5522942 -0.3710858 -0.6095285 -0.6993018 -0.3734327 -0.4207445 0.8246162 -0.3781298 -0.3739909 0.9274062 -0.006967371 -0.3974853 0.8163395 -0.4190409 -0.8984308 -0.2466714 -0.363284 -0.9090725 0.2039899 -0.3632841 -0.7072259 0.6055511 -0.3648827 -0.4374898 0.8182394 -0.3729437 0.2500943 -0.8913309 -0.3781298 0.2090391 -0.8805093 -0.4254481 0.3294488 -0.9438146 -0.02602849 0.2532643 -0.8917897 -0.3749244 -0.02245096 -0.9294843 -0.3681778 -0.3781124 -0.8500278 -0.3667203 -0.3315813 -0.2403394 -0.9122997 -0.2636075 -0.3063485 -0.9146921 -0.1970996 0.3589717 -0.9122999 -0.3270912 0.2808197 -0.9023035 -0.420641 0.09438922 -0.9023036 -0.4157171 -0.1141385 -0.9023036 -0.2409489 0.8963739 -0.3720987 -0.1024688 0.394099 -0.9133379 -0.1716192 -0.385814 -0.9064736 -0.009682856 -0.4221513 -0.9064737 0.1074393 -0.3896092 -0.914692 0.1919901 -0.3591018 -0.9133377 0.430885 -0.8221198 -0.3720982 0.553936 -0.390552 -0.7352714 0.4081819 -0.1264998 -0.9040936 0.3128737 -0.2910768 -0.9040931 -0.5476579 0.3385595 -0.7651459 0.6344348 0.1097473 -0.7651457 0.5107608 0.3920135 -0.7651463 0.4236339 -0.5187375 -0.7425939 -0.6422641 0.04527112 -0.7651453 0.4226471 0.06313179 -0.9040928 -0.32759 0.5542892 -0.7651459 0.1854203 -0.6165802 -0.7651459 0.2700785 0.5844741 -0.7651455 0.6270385 -0.1815456 -0.757538 0.3533992 0.2402585 -0.9040934 -0.5897339 -0.2583892 -0.7651463 -0.4021048 -0.5028564 -0.7651452 -0.03247523 0.6430376 -0.7651457 0.03249922 0.4261 -0.9040921 -0.1223581 -0.6321236 -0.7651459 0.2141584 0.3698006 -0.9040928 0.6817115 -0.6342181 -0.3647423 0.8893775 -0.2756267 -0.3647431 0.9208919 0.1375555 -0.3647418 0.7700118 0.5234927 -0.3647427 0.4666212 0.8057471 -0.3647414 0.070811 0.9284127 -0.3647406 0.3405535 -0.6464299 0.6827531 0.549857 -0.5115499 0.6602832 0.7173575 -0.2223159 0.6602831 0.7427759 0.1109498 0.6602834 0.6210788 0.4222408 0.6602831 0.3763688 0.6499019 0.6602833 0.05711518 0.7488416 0.6602833 -0.1881711 0.7060028 0.682753 -0.4021048 -0.5028564 0.7651452 -0.1223581 -0.6321236 0.7651459 0.1854203 -0.6165802 0.7651459 0.4236339 -0.5187375 0.7425939 0.553936 -0.390552 0.7352714 0.6270385 -0.1815456 0.757538 0.6344348 0.1097473 0.7651457 0.5107608 0.3920135 0.7651463 0.2700785 0.5844741 0.7651455 -0.03247523 0.6430376 0.7651457 -0.32759 0.5542892 0.7651459 -0.5476579 0.3385595 0.7651459 -0.6422641 0.04527112 0.7651453 -0.5897339 -0.2583892 0.7651463 -0.6604781 0.6482566 -0.3788562 -0.8663221 0.3189413 -0.3843989 -0.484185 0.04700019 -0.8737024 -0.7237791 0.6775834 -0.1304783 -0.5888538 0.8022189 -0.09846847 -0.7455439 0.6615102 -0.08104677 -0.8610759 0.5001325 -0.0917376 -0.9479528 0.3101643 -0.07199674 -0.9900241 0.1073872 -0.09121595 -0.8315081 0.5547298 -0.02948153 -0.4158291 0.9092094 -0.02060431 -0.8224773 0.4392983 -0.3613143 -0.926845 0.1114791 -0.358512 -0.6877768 0.08086162 -0.7214045 -0.3430678 0.02873354 -0.9388711 -0.08218223 0.004891959 -0.9966053 -0.2348021 0.3495487 -0.9070191 -0.5345209 0.3858907 -0.7519148 -0.5721921 0.4538014 -0.6831255 -0.4325774 0.4311587 -0.7918201 -0.6827991 0.3093929 -0.6618621 -0.6185519 0.6178558 -0.4854356 -0.6446638 0.6849924 -0.3394025 -0.5561786 0.7814606 -0.2828157 -0.8348473 0.5380565 -0.1162979 -0.8066676 0.5484325 -0.220248 -0.7694108 0.5386238 -0.3433531 -0.7014938 0.5599527 -0.440862 -0.6173301 0.56458 -0.5478621 -0.4532462 0.5833591 -0.6739882 -0.298546 0.6312778 -0.7157924 -0.4714063 0.8634406 -0.179573 -0.3699268 0.855751 -0.3617241 -0.4345465 0.8561128 -0.2797145 -0.1960425 0.3590038 -0.912515 -0.4372957 0.8190924 -0.3712952 -0.7099896 0.5092676 -0.4863757 -0.7243947 0.4502268 -0.5220615 -0.5931516 0.4964482 -0.6338063 -0.535934 0.6064944 -0.5873152 -0.06417653 0.01287202 -0.9978555 -0.1763362 -0.8557711 -0.4863757 -0.2269651 -0.8221549 -0.5220614 0.01751074 -0.809169 -0.587315 -0.03843002 -0.05298545 -0.9978555 -0.3239141 -0.3629113 -0.8737134 -0.09915417 -0.7671037 -0.6338142 -0.4203034 -0.8219378 -0.3843999 -0.0456863 -0.9243272 -0.378856 -0.07230446 -0.9888097 -0.1304894 -0.2453743 -0.9679381 -0.05373393 -0.246437 -0.9471344 -0.2054393 0.04631135 -0.7553717 -0.6536581 0.1193197 -0.7074244 -0.6966445 -0.1182851 -0.8620687 -0.4927943 -0.0757462 -0.8181975 -0.5699257 -0.1855454 -0.909028 -0.37315 0.2229953 -0.6639403 -0.7137622 0.3111302 -0.9501434 -0.02062848 0.1121507 -0.9886512 -0.09995551 -0.4862413 -0.8708535 -0.07199672 -0.6477995 -0.7553935 -0.0986734 -0.09986268 -0.9914219 -0.08432171 -0.2935578 -0.9515293 -0.09173765 -0.5976883 -0.7193453 -0.3539931 -0.3064881 -0.8813807 -0.3594902 -0.2788906 -0.680824 -0.677273 -0.01224681 -0.9396166 -0.3420097 0.1240088 -0.9518812 -0.2802571 -0.0348391 -0.8815497 -0.4708039 -0.04732939 -0.8226301 -0.5666036 -0.4409112 -0.5307358 -0.723821 -0.08837802 -0.7403042 -0.6664376 -0.07153023 -0.529427 -0.8453346 -0.2307853 -0.2547518 -0.9390632 0.05969881 -0.4174185 -0.9067512 -0.05761658 -0.05861864 -0.9966164 0.2464012 -0.9521628 -0.1807553 0.2410776 -0.9413007 -0.2362933 0.3055948 -0.881496 -0.3599675 0.3832982 -0.8385646 -0.3871588 0.1537295 -0.3380549 -0.9284859 -0.3241943 0.2829865 -0.902672 0.553936 -0.390553 -0.7352709 0.6270376 -0.1815459 -0.7575387 0.4236343 -0.518737 -0.742594 0.1854207 -0.6165801 -0.7651458 0.0489532 -0.4275365 -0.9026717 -0.03247524 0.6430376 -0.7651458 -0.3275899 0.5542894 -0.7651458 -0.1542021 -0.4017535 -0.9026715 0.2700789 0.5844737 -0.7651456 -0.4182849 0.1010975 -0.9026722 0.6344348 0.1097482 -0.7651457 0.1607013 -0.3661347 -0.9165809 -0.5476577 0.3385604 -0.7651457 -0.3224366 -0.2849888 -0.9026716 0.5107612 0.3920136 -0.7651459 -0.4176517 -0.1036859 -0.9026718 -0.4021046 -0.5028556 -0.7651458 -0.1223573 -0.6321239 -0.7651458 -0.5897347 -0.2583894 -0.7651457 -0.6422634 0.04527098 -0.7651459 0.3789549 -0.8465036 -0.3739315 -0.7018049 0.6125992 -0.3635824 -0.9054895 0.2188524 -0.3635827 -0.9041172 -0.2244557 -0.3635819 -0.6979982 -0.6169335 -0.3635816 -0.3338102 -0.8697007 -0.3635815 0.1059722 -0.9255151 -0.3635818 0.3832981 -0.8385644 0.3871592 0.3789549 -0.8465035 0.3739319 -0.4372956 0.8190923 0.3712955 -0.7018047 0.6125992 0.3635827 -0.9054894 0.2188522 0.363583 -0.904117 -0.2244557 0.3635823 -0.6979981 -0.6169334 0.363582 -0.3338102 -0.8697005 0.3635818 0.1059722 -0.925515 0.3635821 -0.4021046 -0.5028556 0.7651458 -0.1223573 -0.6321239 0.7651458 0.1854207 -0.6165801 0.7651458 0.4236343 -0.518737 0.742594 0.553936 -0.390553 0.7352709 0.6270376 -0.1815459 0.7575387 0.6344348 0.1097482 0.7651457 0.5107612 0.3920136 0.7651459 0.2700789 0.5844737 0.7651456 -0.03247524 0.6430376 0.7651458 -0.3275899 0.5542894 0.7651458 -0.5476577 0.3385604 0.7651457 -0.6422634 0.04527098 0.7651459 -0.5897347 -0.2583894 0.7651457 0.1537293 -0.3380546 0.9284861 0.1607012 -0.3661343 0.916581 0.3085541 -0.8797441 0.3617246 0.06452934 -0.4161154 0.9070193 0.04895317 -0.4275361 0.9026719 -0.154202 -0.4017532 0.9026717 -0.3224363 -0.2849886 0.9026718 -0.4176514 -0.1036858 0.9026719 -0.4182846 0.1010973 0.9026723 -0.324194 0.2829862 0.9026722 -0.1960424 0.3590034 0.9125152 -0.2392356 0.3472295 0.9067513 -0.3732896 0.855031 0.3599678 0.2386611 -0.9538842 0.1820596 0.3110799 -0.9501604 0.02060428 0.1213003 -0.9514731 0.2828164 -0.009442615 -0.940639 0.3392773 0.2613135 -0.923837 0.2797151 -0.02545573 -0.6102232 0.7918205 -0.1126968 -0.7215535 0.6831252 0.0008343461 -0.8849929 0.4656038 -0.02787542 -0.8703214 0.4916946 -0.1310839 -0.6460927 0.7519184 -0.4647164 0.8668138 0.1807553 -0.6462746 0.682172 0.3420094 -0.5544662 0.7835959 0.2802582 -0.6234957 0.6241784 0.4708019 -0.5927149 0.5724115 0.5665987 -0.4612613 0.8552212 0.2362937 -0.5670402 0.4840722 0.6664379 -0.4116366 0.3405355 0.8453348 -0.4157806 0.909231 0.02062854 -0.6666976 0.3111523 0.6772729 -0.6839642 0.09097284 0.723821 -0.9270924 0.1232418 0.353993 -0.9883656 0.115745 0.09867347 -0.9479528 0.3101643 0.07199675 -0.8230009 0.4398141 0.35949 -0.8610759 0.5001325 0.09173763 -0.7457951 0.6608173 0.08432168 -0.5881178 0.8025748 0.09995548 -0.3423729 0.03067917 0.9390631 -0.08209661 0.003998658 0.9966164 -0.392113 0.6007781 0.6966441 -0.4782828 0.5864946 0.6536587 -0.2864352 0.6391386 0.7137624 -0.6105876 0.5498797 0.5699255 -0.671602 0.5532671 0.4927944 -0.7528773 0.5421576 0.3731499 -0.8234684 0.5288615 0.2054395 -0.8367971 0.5448699 0.0537339 -0.03843007 -0.05298552 0.9978555 -0.06417662 0.01287203 0.9978555 -0.05707391 -0.05933337 0.9966053 0.208764 -0.6663775 0.7157923 -0.5359341 0.6064944 0.5873152 -0.7099895 0.5092677 0.4863757 0.0175106 -0.809169 0.587315 -0.1763361 -0.8557711 0.4863757 -0.7243949 0.4502267 0.5220613 -0.226965 -0.822155 0.5220613 -0.7237725 0.6775883 0.1304892 -0.5931355 0.4964575 0.633814 -0.4841659 0.04699804 0.8737131 -0.0991726 -0.7671078 0.6338063 -0.323927 -0.3629268 0.8737021 -0.2080946 -0.3727462 0.9042991 -0.4057275 0.1327753 0.9042986 -0.2208174 -0.9501214 0.2202478 -0.2485626 -0.9616088 0.1162979 -0.1357168 -0.8872549 0.4408625 -0.200092 -0.9176447 0.3433531 0.0625827 -0.7360867 0.673988 -0.07073061 -0.8335731 0.5478622 -0.2348004 -0.9715964 0.0294815 -0.07231298 -0.9888105 0.1304782 -0.4505705 -0.5258914 0.7214045 -0.2919162 -0.6904514 0.6618623 -0.3060261 -0.8809692 0.3608897 -0.2326156 -0.2537935 0.938871 0.1113685 -0.9888888 0.09846841 -0.09920805 -0.9917606 0.08104676 -0.6054844 -0.7105335 0.3585118 -0.4862414 -0.8708535 0.07199673 -0.2935578 -0.9515293 0.09173768 -0.6546868 -0.7503765 0.09121595 -0.4207447 0.8246166 0.3781288 -0.6604784 0.6482569 0.3788552 -0.8663226 0.3189398 0.3843989 0.2500944 -0.8913313 0.3781288 -0.04568634 -0.9243276 0.3788551 -0.4203023 -0.8219393 0.384398 -0.3017016 0.2976014 0.9057646 -0.1895799 0.3591414 0.9138254 -0.5400751 0.7314202 0.4163453 -0.4484198 0.7849001 0.4276113 -0.3983672 0.9168482 0.02632441 0.1042672 -0.3924939 0.9138254 -0.01986365 -0.4233155 0.9057646 0.362101 -0.9321378 0.001378652 0.2870481 -0.8655459 0.4104067 0.1796846 -0.8916232 0.4155977 -0.448192 -0.5159381 0.7300218 -0.545585 -0.4015452 0.735594 -0.2669115 -0.6000391 0.7541295 -0.07803318 -0.6771293 0.731715 -0.6201003 -0.1702535 0.765826 -0.6274452 0.1407946 0.765826 -0.5583225 0.3792473 0.7378669 -0.3781123 -0.8500276 0.3667208 -0.6095283 -0.6993017 0.3734332 -0.02245094 -0.9294841 0.3681783 0.2531944 -0.8918971 0.3747162 -0.7072257 0.605551 0.3648832 -0.4373916 0.8182268 0.3730866 -0.9090723 0.2039899 0.3632846 -0.8984306 -0.2466713 0.3632845 -0.7465027 -0.552294 0.3710863 -0.2636071 -0.3063482 0.9146923 -0.3315809 -0.2403391 0.9123 -0.4157166 -0.1141383 0.9023038 -0.4206405 0.09438902 0.9023039 -0.3270908 0.2808194 0.9023038 -0.1970994 0.3589712 0.9123001 -0.1024689 0.3940982 0.9133382 -0.240949 0.8963737 0.3720991 0.1074392 -0.3896086 0.9146923 -0.009682817 -0.4221507 0.906474 -0.1716191 -0.3858135 0.9064739 0.4308849 -0.8221197 0.3720987 0.1919898 -0.3591013 0.9133379 0.6270385 -0.1815456 0.757538 0.553936 -0.390552 0.7352714 0.4081815 -0.1264993 0.9040939 -0.6422641 0.04527112 0.7651453 -0.5476579 0.3385595 0.7651459 0.6344348 0.1097473 0.7651457 0.3128732 -0.2910764 0.9040934 0.4226466 0.0631313 0.9040931 0.3533985 0.2402585 0.9040937 -0.5897339 -0.2583892 0.7651463 0.4236339 -0.5187375 0.7425939 -0.32759 0.5542892 0.7651459 0.2141582 0.3698003 0.9040929 -0.4021048 -0.5028564 0.7651452 0.03249966 0.4260994 0.9040924 -0.1223581 -0.6321236 0.7651459 0.1854203 -0.6165802 0.7651459 0.5107608 0.3920135 0.7651463 -0.03247523 0.6430376 0.7651457 0.2700785 0.5844741 0.7651455 0.07081131 0.9284125 0.3647411 0.4666211 0.8057468 0.3647421 0.7700115 0.5234929 0.3647432 0.9208918 0.1375552 0.3647423 0.8893774 -0.2756264 0.3647436 0.6817113 -0.634218 0.3647428 0.3405535 -0.6464299 -0.6827531 0.549857 -0.5115499 -0.6602832 0.7173575 -0.2223159 -0.6602831 0.7427759 0.1109498 -0.6602834 0.6210788 0.4222408 -0.6602831 0.3763688 0.6499019 -0.6602833 0.05711518 0.7488416 -0.6602833 -0.1881711 0.7060028 -0.682753 -0.1223581 -0.6321236 -0.7651459 -0.4021048 -0.5028564 -0.7651452 0.1854203 -0.6165802 -0.7651459 0.4236339 -0.5187375 -0.7425939 0.6270385 -0.1815456 -0.757538 0.553936 -0.390552 -0.7352714 0.6344348 0.1097473 -0.7651457 0.5107608 0.3920135 -0.7651463 0.2700785 0.5844741 -0.7651455 -0.03247523 0.6430376 -0.7651457 -0.32759 0.5542892 -0.7651459 -0.5476579 0.3385595 -0.7651459 -0.6422641 0.04527112 -0.7651453 -0.5897339 -0.2583892 -0.7651463 0.8993615 -0.4320405 0.06700591 0.8993616 -0.4320404 -0.06700668 0.8398976 -0.480969 0.2514774 0.7072254 -0.5328362 0.4646696 0.3281509 -0.6553507 0.6803179 0.5086675 -0.6104614 0.6071197 0.7072254 -0.5328365 -0.4646693 0.8398976 -0.48097 -0.2514753 0.5086642 -0.6104708 -0.6071129 0.328151 -0.6553507 -0.6803179 0.3678744 0.9274582 -0.06700482 0.3678748 0.9274581 0.06700444 0.2909906 0.923084 0.2514763 0.1583206 0.8712154 0.4646701 -0.04023807 0.7935912 0.6071194 0.0341528 0.04701003 0.9983104 0.2909908 0.9230842 -0.2514755 0.1583203 0.8712152 -0.4646705 -0.04023762 0.7935914 -0.6071192 0.03415287 0.04701007 -0.9983104 -0.2033377 0.7041469 -0.6803168 -0.1832192 0.6646055 -0.7243827 -0.2033378 0.7041467 0.6803169 -0.1832194 0.6646055 0.7243826 0.4249909 0.9023816 -0.07134535 0.4249909 0.9023816 0.07134539 0.02356429 0.7239963 -0.6894013 0.3996852 0.8710382 -0.2855594 0.2490318 0.8121417 -0.5276448 0.02356414 0.7239962 0.6894014 0.3996851 0.8710382 0.2855595 0.2490318 0.8121417 0.5276448 0.3678741 0.9274584 0.06700494 0.3678741 0.9274584 -0.06700491 0.2909921 0.9230835 -0.2514765 0.1583206 0.8712154 -0.4646702 -0.04023722 0.7935908 -0.6071199 0.2909921 0.9230835 0.2514766 0.1583206 0.8712154 0.4646702 -0.04023744 0.7935908 0.6071199 -0.3281498 0.6553523 -0.6803169 -0.8398973 0.4809696 0.2514771 -0.8993618 0.4320401 0.06700539 -0.8993618 0.4320401 -0.06700534 -0.1936141 0.7127669 0.674149 -0.3281496 0.6553523 0.680317 -0.5086681 0.6104615 -0.607119 -0.8398973 0.4809696 -0.2514771 -0.7072254 0.5328366 0.464669 -0.1936141 0.712767 -0.674149 -0.006510917 0.8168842 0.576765 0.07630741 0.7368344 -0.6717531 -0.1687354 0.6660454 -0.7265755 -0.006510838 0.8168842 -0.576765 -0.7072255 0.5328366 -0.464669 -0.5086679 0.6104617 0.607119 -0.2033381 0.7041466 -0.680317 -0.1687355 0.6660454 0.7265755 0.07630727 0.7368344 0.6717531 0.3244597 0.8338478 0.4465688 0.3487738 0.8955737 0.2762329 0.206552 0.9001798 0.3834223 0.3487739 0.8955737 -0.2762328 0.3244597 0.8338478 -0.4465688 -0.04023817 0.793591 -0.6071196 0.3678739 0.9274584 -0.06700522 0.367874 0.9274584 0.06700519 0.1583199 0.871216 0.4646692 -0.04023793 0.7935912 0.6071194 -0.2033384 0.7041472 0.6803162 0.206552 0.9001799 -0.3834221 0.290992 0.9230834 -0.2514769 0.1583199 0.871216 -0.4646691 0.290992 0.9230834 0.2514769 -0.3161156 0.6126506 0.7243826 -0.1687356 0.6660452 0.7265756 0.424991 0.9023816 -0.07134549 0.3996849 0.8710383 -0.2855594 0.2490321 0.8121415 -0.5276449 0.0235638 0.7239962 -0.6894014 -0.1832195 0.6646054 0.7243827 0.424991 0.9023816 0.07134544 0.02356395 0.7239963 0.6894012 0.249032 0.8121415 0.5276449 -0.1832197 0.6646054 -0.7243826 0.07630674 0.7368343 0.6717533 0.3244598 0.8338479 0.4465686 -0.9243263 0.3748744 0.07134522 -0.8844722 0.3690053 0.2855593 -0.7338191 0.4279025 0.5276448 -0.1936142 0.7127669 0.674149 0.399685 0.8710383 0.2855594 0.2065518 0.90018 0.383422 -0.7338192 0.4279022 -0.5276449 -0.8844723 0.369005 -0.2855593 0.3487746 0.8955735 0.2762323 -0.5083512 0.5160475 0.6894012 -0.1687355 0.6660452 -0.7265756 0.3487747 0.8955735 -0.2762323 0.3244599 0.8338479 -0.4465685 -0.006510931 0.816884 0.5767652 0.2065518 0.9001799 -0.3834221 -0.5083514 0.5160472 -0.6894013 -0.1936141 0.7127669 -0.674149 -0.3161157 0.6126504 -0.7243828 -0.9243263 0.3748743 -0.07134505 -0.006510577 0.816884 -0.5767652 0.07630684 0.7368344 -0.6717532 -0.1223571 -0.6321244 -0.7651454 -0.4021039 -0.502856 -0.7651459 -0.4021039 -0.502856 0.7651459 0.1854199 -0.6165805 -0.7651457 -0.1223571 -0.6321244 0.7651454 0.423634 -0.5187366 -0.7425944 0.1854199 -0.6165805 0.7651457 0.423634 -0.5187366 0.7425944 0.5539369 -0.3905514 0.7352711 0.5539369 -0.3905514 -0.7352711 0.6270385 -0.1815451 0.7575382 0.6270385 -0.1815451 -0.7575382 0.6344349 0.1097477 -0.7651456 0.510762 0.3920129 -0.7651458 0.6344349 0.1097477 0.7651456 0.270079 0.5844732 -0.765146 0.510762 0.3920129 0.7651458 -0.03247525 0.6430378 -0.7651456 0.270079 0.5844732 0.765146 -0.3275895 0.5542897 -0.7651458 -0.03247525 0.6430378 0.7651456 -0.5476574 0.3385609 -0.7651457 -0.3275895 0.5542897 0.7651458 -0.6422632 0.04527121 -0.765146 -0.5476574 0.3385609 0.7651457 -0.5897344 -0.2583897 -0.7651458 -0.6422632 0.04527121 0.765146 -0.5897344 -0.2583897 0.7651458 -0.5897347 -0.2583892 -0.7651457 -0.6422635 0.04527104 -0.7651458 -0.4081835 0.1265001 -0.9040929 -0.3128745 0.291077 -0.9040928 0.5539362 -0.3905531 -0.7352707 -0.5476578 0.3385603 -0.7651457 0.4236345 -0.5187368 -0.7425941 -0.1919902 0.3591017 -0.9133377 0.1854208 -0.6165801 -0.7651458 0.4081843 -0.1265001 -0.9040925 0.3128731 -0.2910763 -0.9040934 -0.1024688 0.3940987 -0.913338 -0.2141578 -0.3698005 -0.9040929 -0.3534 -0.2402591 -0.9040929 0.5107612 0.3920137 -0.7651459 -0.422647 -0.06313151 -0.9040929 0.6344347 0.1097482 -0.7651457 0.6270375 -0.1815462 -0.7575388 0.4226473 0.06313155 -0.9040927 0.1919904 -0.3591022 -0.9133374 -0.4021045 -0.5028556 -0.7651459 -0.1223571 -0.632124 -0.7651457 0.102469 -0.3940995 -0.9133376 -0.3275903 0.5542893 -0.7651457 -0.03249911 -0.4260986 -0.9040928 -0.0324754 0.6430374 -0.7651459 0.270079 0.5844737 -0.7651456 0.3533988 0.2402587 -0.9040935 0.2141574 0.3698007 -0.9040929 0.03249929 0.4260983 -0.9040929 -0.4021045 -0.5028556 0.7651459 -0.1223571 -0.632124 0.7651457 0.1854208 -0.6165801 0.7651458 0.4236345 -0.5187368 0.7425941 0.5539362 -0.3905531 0.7352707 0.6270375 -0.1815462 0.7575388 0.6344347 0.1097482 0.7651457 0.5107612 0.3920137 0.7651459 0.270079 0.5844737 0.7651456 -0.0324754 0.6430374 0.7651459 -0.3275903 0.5542893 0.7651457 -0.5476578 0.3385603 0.7651457 -0.6422635 0.04527104 0.7651458 -0.5897347 -0.2583892 0.7651457 0.4308851 -0.82212 -0.3720978 0.2409491 -0.8963741 -0.3720982 -0.4308853 0.8221197 -0.3720982 -0.6817119 0.634218 -0.3647416 -0.8893779 0.2756271 -0.3647418 -0.920892 -0.1375552 -0.3647418 -0.7700119 -0.5234931 -0.3647419 -0.4666216 -0.8057466 -0.3647419 -0.07081127 -0.9284122 -0.3647417 0.6817114 -0.6342179 -0.3647427 0.8893781 -0.2756274 -0.3647412 0.920892 0.1375549 -0.3647418 0.7700114 0.5234931 -0.3647429 0.4666216 0.8057467 -0.3647419 0.07081107 0.9284121 -0.364742 -0.2409491 0.8963738 -0.3720989 0.4308851 -0.8221202 0.3720974 0.2409491 -0.8963742 0.3720978 -0.4308853 0.8221198 0.3720978 -0.6817119 0.6342181 0.3647413 -0.8893781 0.2756271 0.3647415 -0.9208921 -0.1375552 0.3647415 -0.770012 -0.5234932 0.3647416 -0.4666217 -0.8057467 0.3647416 -0.07081131 -0.9284123 0.3647414 -0.2409492 0.8963739 0.3720986 0.1024691 -0.3940999 0.9133375 -0.03249919 -0.426099 0.9040926 -0.214158 -0.3698008 0.9040927 -0.3534003 -0.2402593 0.9040927 -0.4226474 -0.06313157 0.9040927 -0.4081839 0.1265002 0.9040927 -0.3128747 0.2910774 0.9040926 -0.1919904 0.3591021 0.9133375 -0.102469 0.394099 0.9133379 0.03249936 0.4260987 0.9040928 0.1919904 -0.3591025 0.9133373 0.4081846 -0.1265006 0.9040923 0.4226475 0.06313151 0.9040926 0.3533989 0.2402591 0.9040934 0.2141578 0.369801 0.9040927 0.3128737 -0.2910763 0.9040933 0.6817117 -0.6342177 0.3647424 0.8893781 -0.2756277 0.364741 0.9208922 0.1375549 0.3647414 0.7700114 0.5234934 0.3647425 0.4666217 0.8057467 0.3647416 0.07081111 0.9284123 0.3647416</float_array>
          <technique_common>
            <accessor count="659" source="#normals-array-array" stride="3">
              <param type="float" name="X"/>
              <param type="float" name="Y"/>
              <param type="float" name="Z"/>
            </accessor>
          </technique_common>
        </source>
        <vertices id="verts-array-vertices">
          <input semantic="POSITION" source="#verts-array"/>
        </vertices>
        <triangles count="1334" material="material0">
          <input offset="0" semantic="VERTEX" source="#verts-array-vertices"/>
          <input offset="1" semantic="NORMAL" source="#normals-array"/>
          <p>0 0 1 1 2 2 3 3 0 0 4 4 5 5 3 3 6 6 7 7 8 8 9 9 10 10 11 11 9 9 9 9 8 8 10 10 12 12 11 11 10 10 13 13 12 12 14 14 15 15 13 13 16 16 17 17 15 15 18 18 19 19 17 17 20 20 21 21 19 19 22 22 23 23 21 21 24 24 25 25 23 23 26 26 1 1 25 25 27 27 27 27 2 2 1 1 26 26 27 27 25 25 24 24 26 26 23 23 22 22 24 24 21 21 20 20 22 22 19 19 18 18 20 20 17 17 16 16 18 18 15 15 14 14 16 16 13 13 10 10 14 14 12 12 9 9 5 5 7 7 6 6 7 7 5 5 4 4 6 6 3 3 2 2 4 4 0 0 28 28 29 29 9 9 29 29 5 5 9 9 30 30 3 3 5 5 21 21 31 31 32 32 5 5 29 29 30 30 33 33 19 19 21 21 33 33 34 34 17 17 34 34 35 35 15 15 35 35 28 28 12 12 9 9 11 11 28 28 33 33 36 36 37 37 17 17 19 19 33 33 35 35 13 13 15 15 11 11 12 12 28 28 30 30 38 38 0 0 1 1 38 38 39 39 33 33 40 40 41 41 33 33 32 32 36 36 15 15 17 17 34 34 0 0 3 3 30 30 39 39 25 25 1 1 31 31 21 21 23 23 37 37 40 40 33 33 12 12 13 13 35 35 23 23 25 25 31 31 32 32 33 33 21 21 39 39 31 31 25 25 1 1 0 0 38 38 41 41 42 42 33 33 43 43 44 44 37 37 37 37 36 36 43 43 45 45 46 46 47 47 47 47 30 30 45 45 47 47 38 38 30 30 32 32 48 48 43 43 31 31 49 49 48 48 39 39 50 50 49 49 51 51 50 50 38 38 38 38 47 47 51 51 50 50 39 39 38 38 47 47 46 46 51 51 49 49 31 31 39 39 48 48 32 32 31 31 43 43 36 36 32 32 52 52 33 33 42 42 42 42 53 53 52 52 53 53 54 54 52 52 55 55 53 53 42 42 55 55 54 54 53 53 42 42 56 56 55 55 56 56 41 41 40 40 57 57 40 40 37 37 37 37 44 44 57 57 40 40 57 57 56 56 42 42 41 41 56 56 43 43 58 58 59 59 59 59 44 44 43 43 51 51 60 60 61 61 50 50 61 61 62 62 49 49 62 62 63 63 48 48 63 63 58 58 58 58 43 43 48 48 63 63 48 48 49 49 62 62 49 49 50 50 61 61 50 50 51 51 64 64 65 65 60 60 60 60 51 51 64 64 44 44 59 59 66 66 57 57 66 66 67 67 56 56 67 67 68 68 68 68 55 55 56 56 67 67 56 56 57 57 66 66 57 57 44 44 55 55 68 68 69 69 69 69 70 70 55 55 60 60 58 58 63 63 63 63 62 62 60 60 60 60 65 65 71 71 72 72 73 73 74 74 62 62 61 61 60 60 68 68 67 67 66 66 75 75 76 76 68 68 65 65 77 77 71 71 78 78 79 79 72 72 73 73 69 69 80 80 75 75 59 59 58 58 68 68 59 59 75 75 65 65 81 81 77 77 80 80 74 74 73 73 69 69 68 68 82 82 66 66 59 59 68 68 71 71 83 83 60 60 84 84 85 85 86 86 79 79 78 78 85 85 69 69 87 87 80 80 68 68 76 76 82 82 83 83 75 75 60 60 88 88 89 89 81 81 90 90 86 86 89 89 85 85 84 84 79 79 82 82 87 87 69 69 81 81 65 65 88 88 86 86 90 90 84 84 60 60 75 75 58 58 74 74 78 78 72 72 89 89 88 88 90 90 70 70 69 69 73 73 91 91 73 73 72 72 92 92 72 72 79 79 93 93 79 79 84 84 94 94 84 84 90 90 95 95 90 90 88 88 96 96 88 88 65 65 65 65 64 64 96 96 88 88 96 96 95 95 90 90 95 95 94 94 84 84 94 94 93 93 79 79 93 93 92 92 72 72 92 92 91 91 73 73 91 91 70 70 97 97 70 70 91 91 98 98 91 91 92 92 99 99 92 92 93 93 100 100 93 93 94 94 101 101 94 94 95 95 102 102 95 95 96 96 103 103 96 96 64 64 64 64 104 104 103 103 96 96 103 103 102 102 95 95 102 102 101 101 94 94 101 101 100 100 93 93 100 100 99 99 92 92 99 99 98 98 91 91 98 98 97 97 89 89 86 86 105 105 81 81 89 89 106 106 77 77 81 81 107 107 108 108 109 109 71 71 71 71 109 109 110 110 110 110 83 83 71 71 75 75 83 83 110 110 76 76 75 75 111 111 82 82 76 76 112 112 87 87 82 82 113 113 80 80 87 87 114 114 74 74 80 80 115 115 78 78 74 74 116 116 85 85 78 78 117 117 86 86 85 85 118 118 118 118 105 105 86 86 117 117 118 118 85 85 116 116 117 117 78 78 115 115 116 116 74 74 114 114 115 115 80 80 113 113 114 114 87 87 112 112 113 113 82 82 111 111 112 112 76 76 110 110 111 111 75 75 71 71 77 77 108 108 107 107 108 108 77 77 106 106 107 107 81 81 105 105 106 106 89 89 45 45 30 30 29 29 119 119 29 29 28 28 28 28 120 120 119 119 29 29 119 119 45 45 120 120 28 28 121 121 121 121 122 122 120 120 45 45 119 119 123 123 119 119 124 124 123 123 119 119 120 120 125 125 120 120 126 126 125 125 120 120 122 122 127 127 122 122 128 128 127 127 127 127 126 126 120 120 125 125 124 124 119 119 123 123 129 129 45 45 130 130 131 131 132 132 133 133 134 134 135 135 132 132 136 136 137 137 132 132 133 133 138 138 138 138 136 136 132 132 130 130 139 139 140 140 123 123 141 141 142 142 130 130 141 141 124 124 141 141 123 123 124 124 131 131 130 130 126 126 130 130 125 125 126 126 127 127 128 128 143 143 143 143 131 131 127 127 131 131 144 144 145 145 145 145 132 132 131 131 132 132 146 146 147 147 147 147 133 133 132 132 134 134 133 133 148 148 148 148 149 149 134 134 147 147 148 148 133 133 145 145 146 146 132 132 143 143 144 144 131 131 126 126 127 127 131 131 124 124 125 125 130 130 142 142 129 129 123 123 140 140 141 141 130 130 140 140 139 139 137 137 137 137 139 139 132 132 135 135 138 138 133 133 132 132 139 139 130 130 150 150 129 129 142 142 142 142 141 141 150 150 151 151 152 152 138 138 152 152 150 150 137 137 150 150 140 140 137 137 137 137 136 136 152 152 136 136 138 138 152 152 138 138 135 135 151 151 141 141 140 140 150 150 153 153 154 154 151 151 151 151 135 135 153 153 155 155 144 144 143 143 155 155 146 146 145 145 155 155 149 149 148 148 145 145 144 144 155 155 148 148 147 147 155 155 128 128 122 122 156 156 147 147 146 146 155 155 143 143 128 128 155 155 156 156 155 155 128 128 122 122 121 121 157 157 155 155 158 158 149 149 158 158 159 159 149 149 157 157 156 156 122 122 160 160 155 155 156 156 156 156 161 161 160 160 158 158 155 155 160 160 159 159 158 158 162 162 162 162 163 163 159 159 160 160 162 162 158 158 157 157 121 121 164 164 164 164 165 165 157 157 28 28 35 35 164 164 157 157 165 165 161 161 161 161 156 156 157 157 121 121 28 28 164 164 166 166 35 35 34 34 167 167 34 34 33 33 33 33 52 52 167 167 34 34 167 167 166 166 166 166 168 168 164 164 164 164 35 35 166 166 161 161 169 169 170 170 161 161 171 171 172 172 161 161 173 173 174 174 170 170 175 175 161 161 174 174 171 171 161 161 161 161 168 168 169 169 175 175 173 173 161 161 160 160 172 172 176 176 176 176 162 162 160 160 176 176 163 163 162 162 168 168 161 161 165 165 165 165 164 164 168 168 172 172 160 160 161 161 52 52 177 177 178 178 178 178 167 167 52 52 166 166 179 179 180 180 180 180 168 168 166 166 167 167 181 181 182 182 182 182 166 166 167 167 182 182 179 179 166 166 180 180 169 169 168 168 178 178 181 181 167 167 183 183 184 184 185 185 183 183 180 180 179 179 179 179 184 184 183 183 184 184 182 182 181 181 181 181 186 186 184 184 178 178 177 177 187 187 184 184 186 186 188 188 185 185 188 188 189 189 190 190 191 191 192 192 190 190 185 185 191 191 193 193 192 192 194 194 195 195 172 172 171 171 195 195 176 176 172 172 193 193 174 174 173 173 193 193 171 171 174 174 183 183 190 190 175 175 190 190 173 173 175 175 183 183 170 170 169 169 169 169 180 180 183 183 175 175 170 170 183 183 173 173 190 190 193 193 171 171 193 193 195 195 194 194 195 195 193 193 192 192 193 193 190 190 189 189 191 191 185 185 188 188 185 185 184 184 187 187 186 186 178 178 181 181 178 178 186 186 179 179 182 182 184 184 185 185 190 190 183 183 196 196 186 186 187 187 196 196 188 188 186 186 196 196 189 189 188 188 197 197 191 191 189 189 197 197 192 192 191 191 198 198 194 194 192 192 192 192 197 197 198 198 189 189 196 196 197 197 187 187 177 177 196 196 198 198 199 199 200 200 200 200 194 194 198 198 201 201 202 202 203 203 201 201 204 204 202 202 153 153 205 205 204 204 206 206 207 207 208 208 209 209 210 210 207 207 211 211 203 203 212 212 204 204 201 201 153 153 159 159 163 163 200 200 213 213 208 208 214 214 207 207 206 206 209 209 215 215 216 216 210 210 217 217 212 212 216 216 203 203 211 211 201 201 218 218 134 134 159 159 214 214 200 200 213 213 210 210 209 209 215 215 212 212 217 217 211 211 153 153 135 135 219 219 134 134 149 149 159 159 195 195 200 200 163 163 208 208 213 213 206 206 219 219 205 205 153 153 218 218 135 135 134 134 163 163 176 176 195 195 216 216 215 215 217 217 159 159 220 220 218 218 159 159 214 214 221 221 200 200 214 214 159 159 221 221 220 220 159 159 218 218 219 219 135 135 195 195 194 194 200 200 213 213 200 200 199 199 199 199 222 222 213 213 154 154 153 153 201 201 223 223 201 201 211 211 224 224 211 211 217 217 225 225 217 217 215 215 226 226 215 215 209 209 227 227 209 209 206 206 228 228 206 206 213 213 213 213 222 222 228 228 206 206 228 228 227 227 209 209 227 227 226 226 215 215 226 226 225 225 217 217 225 225 224 224 211 211 224 224 223 223 201 201 223 223 154 154 229 229 230 230 222 222 222 222 199 199 229 229 231 231 154 154 223 223 232 232 223 223 224 224 233 233 224 224 225 225 234 234 225 225 226 226 235 235 226 226 227 227 236 236 227 227 228 228 237 237 228 228 222 222 222 222 230 230 237 237 228 228 237 237 236 236 227 227 236 236 235 235 226 226 235 235 234 234 225 225 234 234 233 233 224 224 233 233 232 232 223 223 232 232 231 231 219 219 218 218 238 238 205 205 219 219 239 239 204 204 205 205 240 240 241 241 242 242 202 202 202 202 242 242 243 243 243 243 203 203 202 202 212 212 203 203 243 243 216 216 212 212 244 244 210 210 216 216 245 245 207 207 210 210 246 246 208 208 207 207 247 247 214 214 208 208 248 248 221 221 214 214 249 249 220 220 221 221 250 250 218 218 220 220 251 251 251 251 238 238 218 218 250 250 251 251 220 220 249 249 250 250 221 221 248 248 249 249 214 214 247 247 248 248 208 208 246 246 247 247 207 207 245 245 246 246 210 210 244 244 245 245 216 216 243 243 244 244 212 212 202 202 204 204 241 241 240 240 241 241 204 204 239 239 240 240 205 205 238 238 239 239 219 219 252 252 253 253 230 230 230 230 229 229 252 252 252 252 229 229 254 254 254 254 255 255 252 252 230 230 253 253 256 256 237 237 256 256 257 257 236 236 257 257 258 258 235 235 258 258 259 259 234 234 259 259 260 260 233 233 260 260 261 261 232 232 261 261 262 262 262 262 231 231 232 232 261 261 232 232 233 233 260 260 233 233 234 234 259 259 234 234 235 235 258 258 235 235 236 236 257 257 236 236 237 237 256 256 237 237 230 230 262 262 263 263 264 264 264 264 231 231 262 262 265 265 266 266 267 267 267 267 268 268 265 265 254 254 269 269 270 270 269 269 265 265 271 271 265 265 272 272 273 273 273 273 271 271 265 265 271 271 274 274 269 269 274 274 270 270 269 269 270 270 255 255 254 254 268 268 272 272 265 265 275 275 276 276 277 277 275 275 278 278 276 276 275 275 279 279 278 278 280 280 281 281 279 279 280 280 282 282 281 281 264 264 263 263 282 282 282 282 280 280 264 264 279 279 275 275 280 280 277 277 283 283 275 275 284 284 285 285 286 286 286 286 287 287 288 288 288 288 289 289 286 286 289 289 290 290 291 291 291 291 276 276 289 289 292 292 283 283 277 277 289 289 276 276 278 278 284 284 278 278 279 279 285 285 281 281 282 282 285 285 284 284 281 281 293 293 282 282 263 263 294 294 295 295 296 296 294 294 297 297 295 295 293 293 298 298 299 299 293 293 296 296 298 298 286 286 285 285 300 300 285 285 299 299 300 300 286 286 301 301 302 302 302 302 287 287 286 286 300 300 301 301 286 286 299 299 285 285 293 293 296 296 293 293 294 294 263 263 294 294 293 293 282 282 293 293 285 285 279 279 281 281 284 284 278 278 284 284 289 289 277 277 276 276 292 292 291 291 292 292 276 276 288 288 290 290 289 289 286 286 289 289 284 284 261 261 260 260 243 243 262 262 261 261 241 241 243 243 242 242 261 261 256 256 253 253 248 248 253 253 252 252 249 249 252 252 303 303 250 250 303 303 304 304 251 251 242 242 241 241 261 261 260 260 259 259 244 244 249 249 248 248 253 253 251 251 250 250 303 303 262 262 240 240 239 239 244 244 243 243 260 260 259 259 258 258 245 245 258 258 257 257 246 246 250 250 249 249 252 252 304 304 239 239 238 238 241 241 240 240 262 262 246 246 245 245 258 258 238 238 251 251 304 304 245 245 244 244 259 259 239 239 304 304 262 262 257 257 256 256 247 247 305 305 306 306 303 303 294 294 262 262 304 304 247 247 246 246 257 257 252 252 255 255 305 305 304 304 297 297 294 294 303 303 252 252 305 305 248 248 247 247 256 256 294 294 263 263 262 262 307 307 304 304 303 303 308 308 307 307 309 309 309 309 310 310 308 308 303 303 309 309 307 307 311 311 308 308 310 310 310 310 312 312 311 311 311 311 302 302 301 301 311 311 296 296 295 295 311 311 299 299 298 298 301 301 300 300 311 311 298 298 296 296 311 311 311 311 313 313 302 302 300 300 299 299 311 311 308 308 295 295 297 297 297 297 307 307 308 308 297 297 304 304 307 307 313 313 311 311 314 314 314 314 315 315 313 313 295 295 308 308 311 311 311 311 312 312 316 316 316 316 317 317 315 315 315 315 314 314 316 316 318 318 319 319 315 315 317 317 318 318 315 315 316 316 314 314 311 311 310 310 320 320 321 321 310 310 322 322 323 323 310 310 306 306 324 324 323 323 320 320 310 310 324 324 325 325 310 310 326 326 327 327 312 312 325 325 322 322 310 310 321 321 326 326 310 310 312 312 310 310 326 326 327 327 317 317 316 316 310 310 309 309 306 306 309 309 303 303 306 306 316 316 312 312 327 327 328 328 329 329 330 330 331 331 305 305 255 255 328 328 274 274 271 271 328 328 331 331 270 270 270 270 274 274 328 328 330 330 329 329 273 273 273 273 272 272 330 330 332 332 268 268 267 267 330 330 268 268 333 333 268 268 332 332 333 333 334 334 330 330 335 335 330 330 336 336 335 335 337 337 326 326 321 321 321 321 334 334 337 337 334 334 320 320 323 323 323 323 328 328 334 334 328 328 322 322 325 325 325 325 331 331 328 328 305 305 331 331 324 324 324 324 306 306 305 305 325 325 324 324 331 331 323 323 322 322 328 328 321 321 320 320 334 334 335 335 337 337 334 334 333 333 336 336 330 330 267 267 266 266 332 332 272 272 268 268 330 330 273 273 329 329 271 271 271 271 329 329 328 328 255 255 270 270 331 331 330 330 334 334 328 328 338 338 283 283 292 292 292 292 339 339 338 338 340 340 288 288 287 287 287 287 313 313 340 340 339 339 291 291 290 290 290 290 340 340 339 339 290 290 288 288 340 340 287 287 302 302 313 313 292 292 291 291 339 339 340 340 313 313 315 315 315 315 319 319 340 340 341 341 342 342 332 332 342 342 333 333 332 332 342 342 343 343 336 336 343 343 335 335 336 336 343 343 327 327 337 337 327 327 326 326 337 337 337 337 335 335 343 343 336 336 333 333 342 342 332 332 266 266 341 341 343 343 318 318 317 317 317 317 327 327 343 343 340 340 319 319 344 344 339 339 344 344 345 345 345 345 338 338 339 339 344 344 339 339 340 340 338 338 345 345 346 346 346 346 347 347 338 338 347 347 348 348 338 338 341 341 349 349 350 350 342 342 350 350 318 318 318 318 343 343 342 342 350 350 342 342 341 341 341 341 351 351 352 352 352 352 349 349 341 341 352 352 353 353 349 349 26 26 354 354 355 355 26 26 356 356 354 354 26 26 353 353 357 357 319 319 10 10 8 8 318 318 16 16 14 14 349 349 353 353 24 24 357 357 356 356 26 26 358 358 2 2 27 27 8 8 7 7 319 319 318 318 18 18 16 16 350 350 20 20 18 18 353 353 26 26 24 24 27 27 355 355 358 358 358 358 319 319 6 6 319 319 14 14 10 10 18 18 318 318 350 350 349 349 22 22 20 20 355 355 27 27 26 26 6 6 4 4 358 358 14 14 319 319 318 318 358 358 359 359 345 345 24 24 22 22 349 349 7 7 6 6 319 319 345 345 319 319 358 358 4 4 2 2 358 358 345 345 359 359 360 360 20 20 350 350 349 349 345 345 344 344 319 319 360 360 346 346 345 345 356 356 361 361 362 362 357 357 363 363 361 361 364 364 363 363 353 353 353 353 352 352 364 364 363 363 357 357 353 353 352 352 351 351 364 364 361 361 356 356 357 357 362 362 354 354 356 356 365 365 366 366 346 346 366 366 348 348 347 347 347 347 346 346 366 366 365 365 360 360 359 359 367 367 359 359 358 358 368 368 358 358 355 355 355 355 369 369 368 368 358 358 368 368 367 367 359 359 367 367 365 365 346 346 360 360 365 365 362 362 369 369 355 355 355 355 354 354 362 362 369 369 362 362 370 370 370 370 371 371 369 369 369 369 371 371 372 372 368 368 372 372 373 373 367 367 373 373 374 374 365 365 374 374 375 375 375 375 366 366 365 365 374 374 365 365 367 367 373 373 367 367 368 368 372 372 368 368 369 369 366 366 375 375 376 376 376 376 377 377 366 366 364 364 378 378 379 379 363 363 379 379 380 380 361 361 380 380 370 370 370 370 362 362 361 361 380 380 361 361 363 363 379 379 363 363 364 364 364 364 381 381 382 382 382 382 378 378 364 364 372 372 375 375 374 374 375 375 383 383 384 384 374 374 373 373 372 372 385 385 386 386 387 387 384 384 376 376 375 375 388 388 370 370 378 378 378 378 370 370 380 380 371 371 388 388 375 375 387 387 389 389 385 385 390 390 391 391 392 392 384 384 393 393 376 376 380 380 379 379 378 378 372 372 371 371 375 375 389 389 387 387 394 394 392 392 386 386 390 390 375 375 388 388 383 383 371 371 370 370 388 388 385 385 390 390 386 386 391 391 395 395 396 396 395 395 397 397 398 398 397 397 376 376 399 399 378 378 400 400 388 388 382 382 401 401 402 402 394 394 382 382 389 389 398 398 396 396 395 395 393 393 399 399 376 376 402 402 378 378 382 382 396 396 392 392 391 391 402 402 400 400 378 378 399 399 398 398 397 397 394 394 401 401 382 382 377 377 376 376 397 397 403 403 397 397 395 395 404 404 395 395 391 391 405 405 391 391 390 390 406 406 390 390 385 385 407 407 385 385 389 389 408 408 389 389 382 382 382 382 381 381 408 408 389 389 408 408 407 407 385 385 407 407 406 406 390 390 406 406 405 405 391 391 405 405 404 404 395 395 404 404 403 403 397 397 403 403 377 377 381 381 409 409 410 410 408 408 410 410 411 411 407 407 411 411 412 412 406 406 412 412 413 413 405 405 413 413 414 414 404 404 414 414 415 415 403 403 415 415 416 416 416 416 377 377 403 403 415 415 403 403 404 404 414 414 404 404 405 405 413 413 405 405 406 406 412 412 406 406 407 407 411 411 407 407 408 408 410 410 408 408 381 381 417 417 418 418 396 396 419 419 417 417 398 398 420 420 419 419 399 399 421 421 422 422 384 384 384 384 422 422 420 420 420 420 393 393 384 384 423 423 421 421 383 383 424 424 423 423 388 388 425 425 424 424 400 400 426 426 425 425 402 402 427 427 426 426 401 401 428 428 427 427 394 394 429 429 428 428 387 387 430 430 429 429 386 386 418 418 430 430 392 392 392 392 396 396 418 418 386 386 392 392 430 430 387 387 386 386 429 429 394 394 387 387 428 428 401 401 394 394 427 427 402 402 401 401 426 426 400 400 402 402 425 425 388 388 400 400 424 424 383 383 388 388 423 423 384 384 383 383 421 421 399 399 393 393 420 420 398 398 399 399 419 419 396 396 398 398 417 417 54 54 431 431 432 432 55 55 433 433 431 431 431 431 54 54 55 55 269 269 254 254 198 198 198 198 254 254 229 229 55 55 434 434 433 433 70 70 435 435 436 436 229 229 199 199 198 198 265 265 269 269 196 196 266 266 265 265 177 177 55 55 436 436 434 434 70 70 97 97 435 435 198 198 197 197 269 269 177 177 54 54 266 266 436 436 55 55 70 70 196 196 177 177 265 265 381 381 54 54 437 437 432 432 438 438 54 54 197 197 196 196 269 269 351 351 341 341 266 266 381 381 439 439 440 440 438 438 437 437 54 54 266 266 54 54 351 351 381 381 364 364 351 351 437 437 439 439 381 381 351 351 54 54 381 381 177 177 52 52 54 54 440 440 409 409 381 381 441 441 432 432 431 431 431 431 442 442 441 441 443 443 442 442 431 431 444 444 443 443 433 433 445 445 444 444 434 434 446 446 445 445 436 436 436 436 435 435 446 446 434 434 436 436 445 445 433 433 434 434 444 444 431 431 433 433 443 443 438 438 432 432 441 441 437 437 438 438 447 447 439 439 437 437 448 448 440 440 439 439 449 449 449 449 450 450 440 440 448 448 449 449 439 439 447 447 448 448 437 437 441 441 447 447 438 438 451 451 416 416 420 420 420 420 422 422 451 451 416 416 419 419 420 420 411 411 410 410 428 428 452 452 451 451 423 423 422 422 421 421 451 451 413 413 430 430 418 418 412 412 429 429 430 430 429 429 412 412 411 411 410 410 409 409 427 427 409 409 440 440 450 450 424 424 425 425 450 450 421 421 423 423 451 451 415 415 417 417 419 419 414 414 418 418 417 417 430 430 413 413 412 412 427 427 428 428 410 410 450 450 426 426 409 409 450 450 452 452 424 424 419 419 416 416 415 415 418 418 414 414 413 413 426 426 427 427 409 409 423 423 424 424 452 452 428 428 429 429 411 411 417 417 415 415 414 414 425 425 426 426 450 450 453 453 109 109 108 108 453 453 110 110 109 109 100 100 101 101 118 118 101 101 102 102 105 105 102 102 103 103 106 106 103 103 104 104 107 107 108 108 104 104 453 453 99 99 117 117 116 116 105 105 118 118 101 101 107 107 106 106 103 103 453 453 111 111 110 110 454 454 112 112 111 111 98 98 116 116 115 115 116 116 98 98 99 99 106 106 105 105 102 102 111 111 453 453 454 454 112 112 454 454 446 446 97 97 115 115 114 114 99 99 100 100 117 117 108 108 107 107 104 104 446 446 114 114 113 113 115 115 97 97 98 98 446 446 113 113 112 112 118 118 117 117 100 100 114 114 435 435 97 97 446 446 435 435 114 114 455 455 441 441 442 442 442 442 443 443 454 454 442 442 456 456 455 455 441 441 457 457 452 452 441 441 458 458 459 459 454 454 460 460 442 442 442 442 461 461 456 456 459 459 457 457 441 441 460 460 462 462 442 442 452 452 447 447 441 441 455 455 458 458 441 441 462 462 461 461 442 442 452 452 448 448 447 447 443 443 444 444 454 454 452 452 449 449 448 448 452 452 450 450 449 449 444 444 445 445 454 454 445 445 446 446 454 454 455 455 456 456 463 463 463 463 464 464 455 455 458 458 455 455 464 464 459 459 458 458 465 465 457 457 459 459 466 466 452 452 457 457 467 467 467 467 451 451 452 452 466 466 467 467 457 457 465 465 466 466 459 459 464 464 465 465 458 458 468 468 463 463 456 456 469 469 468 468 461 461 470 470 469 469 462 462 453 453 470 470 460 460 460 460 454 454 453 453 462 462 460 460 470 470 461 461 462 462 469 469 456 456 461 461 468 468 366 366 377 377 471 471 472 472 473 473 463 463 474 474 464 464 463 463 51 51 475 475 476 476 377 377 477 477 471 471 463 463 473 473 474 474 478 478 465 465 464 464 64 64 479 479 470 470 476 476 64 64 51 51 471 471 480 480 366 366 377 377 451 451 467 467 464 464 474 474 478 478 478 478 467 467 466 466 479 479 472 472 470 470 51 51 481 481 475 475 348 348 482 482 483 483 480 480 484 484 366 366 467 467 485 485 377 377 472 472 468 468 469 469 466 466 465 465 478 478 470 470 453 453 64 64 476 476 486 486 64 64 483 483 487 487 348 348 46 46 488 488 489 489 377 377 485 485 477 477 377 377 416 416 451 451 463 463 468 468 472 472 486 486 479 479 64 64 487 487 338 338 348 348 152 152 151 151 264 264 264 264 151 151 154 154 150 150 152 152 275 275 489 489 490 490 46 46 467 467 478 478 485 485 453 453 104 104 64 64 46 46 491 491 492 492 348 348 493 493 494 494 487 487 495 495 338 338 154 154 231 231 264 264 275 275 496 496 150 150 496 496 497 497 129 129 45 45 498 498 499 499 46 46 500 500 488 488 469 469 470 470 472 472 492 492 51 51 46 46 348 348 501 501 493 493 283 283 338 338 502 502 495 495 503 503 338 338 264 264 280 280 152 152 129 129 150 150 496 496 45 45 504 504 498 498 129 129 497 497 504 504 46 46 499 499 500 500 492 492 481 481 51 51 348 348 484 484 501 501 503 503 502 502 338 338 275 275 283 283 496 496 504 504 45 45 129 129 484 484 348 348 366 366 502 502 496 496 283 283 499 499 46 46 45 45 494 494 482 482 348 348 490 490 491 491 46 46 280 280 275 275 152 152 505 505 476 476 475 475 475 475 506 506 505 505 507 507 508 508 509 509 509 509 510 510 507 507 511 511 512 512 507 507 512 512 513 513 514 514 507 507 515 515 511 511 512 512 511 511 513 513 506 506 516 516 517 517 518 518 505 505 506 506 518 518 519 519 520 520 521 521 511 511 515 515 514 514 522 522 512 512 523 523 524 524 525 525 506 506 526 526 518 518 520 520 527 527 518 518 528 528 529 529 530 530 528 528 531 531 532 532 510 510 515 515 507 507 523 523 533 533 524 524 527 527 505 505 518 518 532 532 529 529 528 528 534 534 531 531 521 521 523 523 535 535 533 533 535 535 523 523 531 531 526 526 536 536 518 518 531 531 537 537 532 532 515 515 534 534 521 521 531 531 528 528 535 535 517 517 526 526 506 506 534 534 537 537 531 531 526 526 523 523 536 536 525 525 536 536 523 523 530 530 538 538 528 528 474 474 473 473 518 518 518 518 536 536 474 474 535 535 528 528 480 480 480 480 471 471 535 535 487 487 483 483 534 534 534 534 515 515 487 487 507 507 512 512 497 497 497 497 496 496 507 507 521 521 488 488 500 500 500 500 511 511 521 521 519 519 518 518 473 473 520 520 519 519 472 472 527 527 520 520 479 479 505 505 527 527 486 486 486 486 476 476 505 505 479 479 486 486 527 527 472 472 479 479 520 520 473 473 472 472 519 519 478 478 474 474 536 536 485 485 478 478 525 525 477 477 485 485 524 524 471 471 477 477 533 533 533 533 535 535 471 471 524 524 533 533 477 477 525 525 524 524 485 485 536 536 525 525 478 478 530 530 529 529 493 493 538 538 530 530 501 501 528 528 538 538 484 484 484 484 480 480 528 528 501 501 484 484 538 538 493 493 501 501 530 530 508 508 507 507 496 496 509 509 508 508 502 502 510 510 509 509 503 503 515 515 510 510 495 495 495 495 487 487 515 515 503 503 495 495 510 510 502 502 503 503 509 509 496 496 502 502 508 508 504 504 497 497 512 512 498 498 504 504 522 522 499 499 498 498 514 514 500 500 499 499 513 513 513 513 511 511 500 500 514 514 513 513 499 499 522 522 514 514 498 498 512 512 522 522 504 504 492 492 491 491 526 526 481 481 492 492 517 517 475 475 481 481 516 516 516 516 506 506 475 475 517 517 516 516 481 481 526 526 517 517 492 492 488 488 521 521 531 531 489 489 531 531 523 523 490 490 523 523 526 526 526 526 491 491 490 490 523 523 490 490 489 489 531 531 489 489 488 488 534 534 483 483 482 482 537 537 482 482 494 494 532 532 494 494 493 493 493 493 529 529 532 532 494 494 532 532 537 537 482 482 537 537 534 534 539 539 540 540 541 541 542 542 539 539 543 543 544 544 542 542 545 545 546 546 547 547 548 548 548 548 547 547 549 549 549 549 550 550 548 548 551 551 550 550 549 549 552 552 551 551 553 553 554 554 552 552 555 555 556 556 554 554 557 557 558 558 556 556 559 559 560 560 558 558 561 561 562 562 560 560 563 563 564 564 562 562 565 565 540 540 564 564 566 566 566 566 541 541 540 540 565 565 566 566 564 564 563 563 565 565 562 562 561 561 563 563 560 560 559 559 561 561 558 558 557 557 559 559 556 556 555 555 557 557 554 554 553 553 555 555 552 552 549 549 553 553 551 551 548 548 544 544 546 546 545 545 546 546 544 544 543 543 545 545 542 542 541 541 543 543 539 539 567 567 544 544 548 548 552 552 568 568 567 567 567 567 542 542 544 544 569 569 570 570 571 571 552 552 572 572 568 568 548 548 550 550 567 567 570 570 573 573 571 571 574 574 575 575 573 573 576 576 577 577 560 560 578 578 542 542 567 567 550 550 551 551 567 567 579 579 580 580 581 581 580 580 582 582 583 583 582 582 569 569 584 584 573 573 570 570 574 574 562 562 585 585 576 576 577 577 586 586 558 558 578 578 587 587 588 588 567 567 551 551 552 552 589 589 590 590 572 572 589 589 591 591 592 592 591 591 579 579 593 593 583 583 581 581 580 580 571 571 584 584 569 569 558 558 560 560 577 577 586 586 589 589 554 554 567 567 587 587 578 578 592 592 590 590 589 589 581 581 593 593 579 579 574 574 588 588 575 575 586 586 556 556 558 558 589 589 552 552 554 554 572 572 552 552 589 589 584 584 583 583 582 582 594 594 564 564 540 540 585 585 562 562 564 564 554 554 556 556 586 586 593 593 592 592 591 591 595 595 540 540 539 539 564 564 594 594 585 585 588 588 574 574 578 578 596 596 539 539 542 542 540 540 595 595 594 594 542 542 578 578 596 596 560 560 562 562 576 576 539 539 596 596 595 595 588 588 587 587 597 597 575 575 588 588 598 598 573 573 575 575 599 599 600 600 601 601 571 571 571 571 601 601 602 602 602 602 584 584 571 571 583 583 584 584 602 602 581 581 583 583 603 603 593 593 581 581 604 604 592 592 593 593 605 605 590 590 592 592 606 606 572 572 590 590 607 607 568 568 572 572 608 608 567 567 568 568 609 609 587 587 567 567 610 610 610 610 597 597 587 587 609 609 610 610 567 567 608 608 609 609 568 568 607 607 608 608 572 572 606 606 607 607 590 590 605 605 606 606 592 592 604 604 605 605 593 593 603 603 604 604 581 581 602 602 603 603 583 583 571 571 573 573 600 600 599 599 600 600 573 573 598 598 599 599 575 575 597 597 598 598 588 588 611 611 612 612 589 589 589 589 586 586 611 611 613 613 574 574 570 570 614 614 570 570 569 569 615 615 569 569 582 582 616 616 582 582 580 580 617 617 580 580 579 579 618 618 579 579 591 591 619 619 591 591 589 589 589 589 612 612 619 619 591 591 619 619 618 618 579 579 618 618 617 617 580 580 617 617 616 616 582 582 616 616 615 615 569 569 615 615 614 614 570 570 614 614 613 613 611 611 586 586 577 577 620 620 577 577 576 576 621 621 576 576 585 585 622 622 585 585 594 594 623 623 594 594 595 595 624 624 595 595 596 596 625 625 596 596 578 578 578 578 626 626 625 625 596 596 625 625 624 624 595 595 624 624 623 623 594 594 623 623 622 622 585 585 622 622 621 621 576 576 621 621 620 620 577 577 620 620 611 611 612 612 611 611 627 627 627 627 628 628 612 612 613 613 626 626 578 578 578 578 574 574 613 613 629 629 613 613 614 614 630 630 614 614 615 615 631 631 615 615 616 616 632 632 616 616 617 617 633 633 617 617 618 618 634 634 618 618 619 619 635 635 619 619 612 612 612 612 628 628 635 635 619 619 635 635 634 634 618 618 634 634 633 633 617 617 633 633 632 632 616 616 632 632 631 631 615 615 631 631 630 630 614 614 630 630 629 629 629 629 636 636 626 626 626 626 613 613 629 629 628 628 637 637 638 638 635 635 638 638 639 639 634 634 639 639 640 640 633 633 640 640 641 641 632 632 641 641 642 642 631 631 642 642 643 643 630 630 643 643 644 644 644 644 629 629 630 630 643 643 630 630 631 631 642 642 631 631 632 632 641 641 632 632 633 633 640 640 633 633 634 634 639 639 634 634 635 635 638 638 635 635 628 628 597 597 549 549 547 547 547 547 645 645 597 597 547 547 546 546 645 645 555 555 553 553 610 610 642 642 602 602 601 601 646 646 645 645 545 545 597 597 553 553 549 549 610 610 609 609 555 555 644 644 643 643 600 600 601 601 643 643 642 642 546 546 545 545 645 645 553 553 597 597 610 610 601 601 600 600 643 643 641 641 603 603 602 602 609 609 608 608 555 555 645 645 644 644 598 598 602 602 642 642 641 641 640 640 604 604 603 603 608 608 557 557 555 555 647 647 559 559 557 557 644 644 599 599 598 598 603 603 641 641 640 640 637 637 607 607 606 606 637 637 647 647 608 608 557 557 608 608 647 647 600 600 599 599 644 644 648 648 565 565 563 563 649 649 650 650 566 566 650 650 651 651 541 541 608 608 607 607 637 637 598 598 597 597 645 645 639 639 605 605 604 604 638 638 606 606 605 605 652 652 563 563 561 561 563 563 652 652 648 648 541 541 566 566 650 650 651 651 646 646 543 543 545 545 543 543 646 646 605 605 639 639 638 638 648 648 649 649 565 565 543 543 541 541 651 651 604 604 640 640 639 639 561 561 647 647 652 652 606 606 638 638 637 637 566 566 565 565 649 649 561 561 559 559 647 647 627 627 611 611 620 620 653 653 620 620 621 621 654 654 621 621 622 622 655 655 622 622 623 623 656 656 623 623 624 624 657 657 624 624 625 625 658 658 625 625 626 626 626 626 636 636 658 658 625 625 658 658 657 657 624 624 657 657 656 656 623 623 656 656 655 655 622 622 655 655 654 654 621 621 654 654 653 653 620 620 653 653 627 627 628 628 627 627 647 647 647 647 637 637 628 628 636 636 645 645 646 646 658 658 646 646 651 651 657 657 651 651 650 650 656 656 650 650 649 649 655 655 649 649 648 648 654 654 648 648 652 652 653 653 652 652 647 647 647 647 627 627 653 653 652 652 653 653 654 654 648 648 654 654 655 655 649 649 655 655 656 656 650 650 656 656 657 657 651 651 657 657 658 658 646 646 658 658 636 636 644 644 645 645 636 636 636 636 629 629 644 644</p>
        </triangles>
      </mesh>
    </geometry>
  </library_geometries>
  <library_materials>
    <material id="454d86d2a27b4e438b212ca0c32ace3e" name="defaultmaterial">
      <instance_effect url="#507a664df1a8489184aa020a1592c4b8"/>
    </material>
  </library_materials>
  <library_visual_scenes>
    <visual_scene id="scene">
      <node id="node0" name="node0">
        <instance_geometry url="#3712e93cb744451f919510a10d978ed6">
          <bind_material>
            <technique_common>
              <instance_material symbol="material0" target="#454d86d2a27b4e438b212ca0c32ace3e"/>
            </technique_common>
          </bind_material>
        </instance_geometry>
      </node>
    </visual_scene>
  </library_visual_scenes>
  <scene>
    <instance_visual_scene url="#scene"/>
  </scene>
</COLLADA>
