<COLLADA xmlns="http://www.collada.org/2005/11/COLLADASchema" version="1.4.1">
  <asset>
    <created>2026-07-31T12:55:25.605015</created>
    <modified>2026-07-31T12:55:25.605018</modified>
    <up_axis>Y_UP</up_axis>
  </asset>
  <library_effects>
    <effect id="5a9cf58bc9b74dd5a3d951d22e4822af" name="5a9cf58bc9b74dd5a3d951d22e4822af">
      <profile_COMMON>
        <technique sid="common">
          <phong>
            <emission>
              <color>0.0 0.0 0.0 1.0</color>
            </emission>
            <ambient>
              <color>0.0 0.0 0.0 1.0</color>
            </ambient>
            <diffuse>
              <color>0.0 0.0 0.0 1.0</color>
            </diffuse>
            <specular>
              <color>0.0 0.0 0.0 1.0</color>
            </specular>
            <shininess>
              <float>0.0</float>
            </shininess>
            <reflective>
              <color>0.0 0.0 0.0 1.0</color>
            </reflective>
            <reflectivity>
              <float>0.0</float>
            </reflectivity>
            <transparent>
              <color>0.0 0.0 0.0 1.0</color>
            </transparent>
            <transparency>
              <float>1.0</float>
            </transparency>
          </phong>
        </technique>
        <extra>
          <technique profile="GOOGLEEARTH">
            <double_sided>0</double_sided>
          </technique>
        </extra>
      </profile_COMMON>
    </effect>
  </library_effects>
  <library_geometries>
    <geometry id="161b2820c34c46e49a19c4f5b025709e" name="89a406c065914f549e65e77cd2fe63fb">
      <mesh>
        <source id="verts-array">
          <float_array count="2220" id="verts-array-array">0.00137391 -0.000601972 9.668372e-18 0.0009367868 -0.001171508 1.718381e-17 0.0009367868 -0.001171508 0.016 0.001496288 0.0001054682 -6.196972e-20 0.00137391 -0.000601972 0.016 0.001275883 0.0007887469 -9.778115e-18 0.001496288 0.0001054682 0.016 0.0007631896 0.001291333 -1.725421e-17 0.001275883 0.0007887469 0.016 7.565835e-05 0.001498091 -2.077758e-17 0.0007631896 0.001291333 0.016 -0.0006292053 0.001361654 -1.954105e-17 7.565835e-05 0.001498091 0.016 -0.001189926 0.0009132781 -1.38279e-17 -0.0006292053 0.001361654 0.016 -0.001478048 0.0002556816 -4.946951e-18 -0.001189926 0.0009132781 0.016 -0.001427568 -0.0004604885 5.067289e-18 -0.001478048 0.0002556816 0.016 -0.001050049 -0.001071166 1.392067e-17 -0.001171508 -0.0009367868 1.193642e-17 -0.001171508 -0.0009367868 0.016 -0.001427568 -0.0004604885 0.016 -0.0004319764 -0.001436453 1.9585e-17 -0.001050049 -0.001071166 0.016 0.0002850567 -0.001472665 2.076264e-17 -0.0004319764 -0.001436453 0.016 0.0002850567 -0.001472665 0.016 -0.004231255 -0.001682043 2.428613e-17 0.008966969 -0.001427183 3.469447e-17 0.00707013 -0.003436354 5.551115e-17 0.01041018 -0.0004048033 2.172628e-17 0.01226371 -1.644361e-05 4.163336e-17 0.01213592 -1.755964e-05 1.795846e-17 0.006358612 -0.004701536 5.561706e-17 -0.00196853 0.00410581 -4.163336e-17 -0.0003814899 0.004517022 -6.465212e-17 0.001387442 0.004235564 -4.510281e-17 0.006324346 -0.006152663 7.577994e-17 -0.00185312 -0.00405351 5.551115e-17 0.006975354 -0.007450019 9.444666e-17 -0.003343913 -0.003060599 5.426267e-17 0.007050556 -0.007534347 1.00614e-16 0.00707013 -0.003436354 -0.0037 0.008966969 -0.001427183 -0.0037 -0.001962353 -0.004332917 0.0003 0.007918987 -0.008183615 0.0002884982 0.00815923 -0.008289887 0.0003 0.00815923 -0.008289887 -0.0037 0.006975354 -0.007450019 -0.0037 0.006324346 -0.006152663 -0.0037 0.006358612 -0.004701536 -0.0037 0.001496674 0.004514971 0.0003 0.01243389 -2.059385e-05 5.809853e-05 0.01387759 -0.0003252712 0.0003 0.01041018 -0.0004048033 -0.0037 0.01387759 -0.0003252712 -0.0037 0.01213592 -1.755964e-05 -0.0037 0.009185112 -0.001633129 -0.004 0.007288272 -0.0036423 -0.004 0.006647906 -0.004780964 -0.004 0.006617067 -0.006086979 -0.004 0.007202974 -0.007254599 -0.004 0.008268463 -0.00801048 -0.004 0.03552476 -0.01898827 -0.0037 0.03563399 -0.01870886 -0.004 0.01376836 -0.0006046782 -0.004 0.0121428 -0.0003174808 -0.004 0.01053211 -0.0006789082 -0.004 0.03898378 -0.01014038 -0.0037 0.03887455 -0.01041979 -0.004 0.0358267 -0.01502481 -0.004 0.03608276 -0.01550111 -0.004 0.03577622 -0.01430864 -0.004 0.03620422 -0.01563549 -0.004 0.04165544 -0.01522173 -0.004 0.04093435 -0.01706623 -0.004 0.03862818 -0.01516629 -0.004 0.03948437 -0.01841518 -0.004 0.03819105 -0.01573583 -0.004 0.04051234 -0.01153324 -0.004 0.03853015 -0.01377557 -0.004 0.03801746 -0.01327299 -0.004 0.04150483 -0.01324703 -0.004 0.03875056 -0.01445885 -0.004 0.03759269 -0.01900144 -0.004 0.03753933 -0.01603699 -0.004 0.03682229 -0.01600078 -0.004 0.03606434 -0.01365104 -0.004 0.03732993 -0.01306623 -0.004 0.03662506 -0.01320267 -0.004 0.03761551 -0.01930057 -0.0037 0.03963471 -0.01867479 -0.0037 0.04118244 -0.01723489 -0.0037 0.04195215 -0.01526605 -0.0037 0.04179138 -0.01315823 -0.0037 0.04073199 -0.01132889 -0.0037 0.03552476 -0.01898827 -0.001 0.03761551 -0.01930057 -0.001 0.03963471 -0.01867479 -0.001 0.04118244 -0.01723489 -0.001 0.04195215 -0.01526605 -0.001 0.04179138 -0.01315823 -0.001 0.04073199 -0.01132889 -0.001 0.03898378 -0.01014038 -0.001 0.03819105 -0.01573583 -0.001 0.03862818 -0.01516629 -0.001 0.03875056 -0.01445885 -0.001 0.03853015 -0.01377557 -0.001 0.03801746 -0.01327299 -0.001 0.03732993 -0.01306623 -0.001 0.03662506 -0.01320267 -0.001 0.03606434 -0.01365104 -0.001 0.03577622 -0.01430864 -0.001 0.0358267 -0.01502481 -0.001 0.03608276 -0.01550111 -0.001 0.03620422 -0.01563549 -0.001 0.03682229 -0.01600078 -0.001 0.03753933 -0.01603699 -0.001 -0.004510354 -0.001792059 0.0003 -0.003559631 -0.003269084 0.0003 -0.004805153 0.0002679847 0.0004751832 -0.004609795 0.0001916145 0.0001842265 -0.001962353 -0.004332917 0.0025 -0.003166701 -0.00363012 0.0025 -0.004568393 -0.001636467 0.0025 -0.004798659 -0.0006174516 0.0025 -0.003559631 -0.003269084 0.0025 -0.004280628 -0.002285183 0.0025 -0.004805167 0.0002679962 0.0025 -0.004983046 -0.0006370507 0.003538351 -0.004443669 -0.002373503 0.003538351 -0.005053233 -0.002703703 0.00462132 -0.007781853 -0.0009345445 0.0055 -0.007666477 0.001386607 0.0055 -0.006709285 0.001012399 0.005324477 -0.005672416 -0.0007103259 0.00462132 -0.006749319 -0.0008247932 0.005314574 -0.005860084 0.0006804093 0.004819131 -0.00521476 0.0004281237 0.004037584 -0.00565152 0.0005988725 0.004621536 -0.004860531 0.0002896403 0.003082705 -0.004984945 0.0003382792 0.003539197 -0.003283842 -0.003773858 0.003538351 -0.003090136 -0.003866158 0.00340409 -0.003245771 -0.003797998 0.003524728 -0.002180423 -0.004246848 0.002676511 -0.004666551 -0.003151095 0.004521593 -0.004668535 -0.00315017 0.004522805 -0.003304495 -0.003772099 0.003569875 -0.0041145 -0.00340669 0.004162567 -0.003300336 -0.003773937 0.003566685 -0.004521082 -0.003218811 0.004431208 -0.004633923 -0.0031663 0.004501593 -0.004659118 -0.00315456 0.004517051 -0.003289547 -0.003778701 0.003558405 -0.00535276 -0.002832515 0.004903775 -0.006313322 -0.002390361 0.005291552 -0.007640286 -0.001791054 0.0055 -0.004680128 -0.003270312 0.004779808 -0.004930795 -0.003172302 0.004934866 -0.004614322 -0.003296118 0.004737294 -0.004600985 -0.003301352 0.004728592 -0.004596849 -0.003302976 0.004725886 -0.004595718 -0.00330342 0.004725146 -0.006004548 -0.00275262 0.005459256 -0.007749518 -0.002070461 0.0058 -0.003236822 -0.003834672 0.00367693 -0.003238719 -0.003833929 0.003678578 -0.003245029 -0.00383146 0.003684056 -0.003391666 -0.003774113 0.003810133 -0.00327016 -0.003821628 0.003705832 -0.003835123 -0.003600637 0.004173649 -0.02142377 0.003597513 0.0055 -0.021533 0.003318106 0.0058 -0.008322773 0.001643182 0.004399714 -0.005808546 0.0006602608 0.001100287 -0.009288758 0.002020828 0.005211009 -0.01048526 0.002488594 0.0055 -0.00484256 0.0002826148 0.000288991 -0.007230448 0.004437252 0.004399714 -0.004716222 0.003454331 0.001100287 -0.009392939 0.005282664 0.0055 -0.008196434 0.004814898 0.005211009 -0.003750236 0.003076685 0.000288991 -0.003517457 0.002985675 0.0001842266 -0.0003986097 0.004816533 0.0003 -0.00209901 0.004375949 0.0003 -0.003712824 0.003062065 0.0004751832 -0.004311677 0.003296176 0.00432738 -0.003868354 0.003122862 0.0034685 -0.004559099 0.003392905 0.004621434 -0.005590576 0.003796154 0.005314371 -0.005004284 0.003566947 0.005002034 -0.005889244 0.003912917 0.005411328 -0.003712843 0.003062066 0.0025 -0.006574153 0.004180677 0.0055 0.0001349998 0.004815344 0.0025 -0.0003986097 0.004816533 0.0025 -0.001595744 0.004582514 0.0025 -0.002247188 0.004300975 0.0025 -0.003107524 0.003708324 0.0025 0.001496674 0.004514971 0.0025 -0.001655655 0.004757995 0.003538351 -0.003229728 0.003847783 0.003538351 -0.003686615 0.00436918 0.00462132 0.0001464061 0.005000419 0.003538351 -0.004400343 0.005183683 0.005314574 -0.005084665 0.005964629 0.0055 -0.004399724 0.006498021 0.0055 -0.003035657 0.006044146 0.00529662 -0.002231138 0.005782641 0.005003703 -0.001879642 0.005414067 0.00462132 -0.001474929 0.005539136 0.004625876 0.0001284596 0.005013673 0.003571045 0.0001299664 0.005013158 0.003569927 -0.001294269 0.005481282 0.00452288 -0.0003287742 0.005167626 0.003901316 -0.001297744 0.005482394 0.004524904 4.191022e-05 0.00504317 0.003634974 0.0001044682 0.005021868 0.003588828 0.0001250686 0.005014832 0.003573562 -0.001350129 0.005499168 0.004555216 -0.001305395 0.005484844 0.004529355 0.0001737295 0.004998179 0.003537417 -0.004290492 0.006777428 0.0058 -0.001928472 0.005853945 0.00518612 -0.001136692 0.005544469 0.004725146 -0.001002025 0.005491805 0.004634867 -0.0005677408 0.005321913 0.004321704 -0.001098458 0.005529521 0.004699861 -0.001127506 0.005540878 0.004719095 -0.001134179 0.005543486 0.004723492 0.0002222454 0.005013201 0.003676892 0.0002378234 0.005007111 0.003663319 0.0002758597 0.004992236 0.003630034 0.0002259849 0.005011739 0.003673637 0.0002232678 0.005012801 0.003676003 0.0004324325 0.004930915 0.003490746 0.00124964 0.004611509 0.002733625 -0.01408624 0.0102849 0.0055 -0.01397701 0.01056431 0.0058 -0.0232513 0.004882765 0.0055 -0.02427785 0.006867194 0.0055 -0.02261703 0.007033854 0.0055 -0.01667185 0.008184632 0.0055 -0.01692069 0.006746171 0.0055 -0.02184941 0.005792142 0.0055 -0.02209637 0.00606538 0.0055 -0.02427093 0.009101405 0.0055 -0.02271967 0.008490066 0.0055 -0.0178095 0.005588115 0.0055 -0.02059266 0.005049393 0.0055 -0.01913469 0.004975761 0.0055 -0.01918022 0.01263465 0.0055 -0.01708473 0.01185963 0.0055 -0.01816249 0.01059589 0.0055 -0.01712001 0.009573965 0.0055 -0.02323212 0.01107944 0.0055 -0.02213382 0.009827179 0.0055 -0.02139666 0.01235335 0.0055 -0.02099369 0.01073888 0.0055 -0.01956047 0.0110163 0.0055 -0.0169167 0.01210816 0.0058 -0.01914609 0.0129327 0.0058 -0.02150416 0.01263343 0.0058 -0.0234569 0.01127812 0.0058 -0.02456209 0.009173688 0.0058 -0.02456945 0.006796714 0.0058 -0.02347731 0.004685484 0.0058 -0.0169167 0.01210816 0.0102 -0.01397701 0.01056431 0.0102 -0.01914609 0.0129327 0.0102 -0.02150416 0.01263343 0.0102 -0.0234569 0.01127812 0.0102 -0.02456209 0.009173688 0.0102 -0.02456945 0.006796714 0.0102 -0.02347731 0.004685484 0.0102 -0.021533 0.003318106 0.0102 -0.0178095 0.005588115 0.0105 -0.01692069 0.006746171 0.0105 -0.01667185 0.008184632 0.0105 -0.01712001 0.009573965 0.0105 -0.01816249 0.01059589 0.0105 -0.01956047 0.0110163 0.0105 -0.02099369 0.01073888 0.0105 -0.02213382 0.009827179 0.0105 -0.02271967 0.008490066 0.0105 -0.02261703 0.007033854 0.0105 -0.02184941 0.005792142 0.0105 -0.02209637 0.00606538 0.0105 -0.02059266 0.005049393 0.0105 -0.01913469 0.004975761 0.0105 -0.01708473 0.01185963 0.0105 -0.01408624 0.0102849 0.0105 -0.004399724 0.006498021 0.0105 -0.004290492 0.006777428 0.0102 -0.02142377 0.003597513 0.0105 -0.0232513 0.004882765 0.0105 -0.02427785 0.006867194 0.0105 -0.02427093 0.009101405 0.0105 -0.02323212 0.01107944 0.0105 -0.02139666 0.01235335 0.0105 -0.01918022 0.01263465 0.0105 -0.007749518 -0.002070461 0.0102 -0.007640286 -0.001791054 0.0105 -0.001294139 0.00548124 0.0114772 -0.001221175 0.00557739 0.01122019 -0.00147185 0.005675376 0.01106513 -0.001155315 0.005551721 0.01126271 -0.001141965 0.005546522 0.01127141 -0.001137823 0.00554491 0.01127411 -0.001136691 0.005544469 0.01127485 -0.002545539 0.006095223 0.01054074 -0.003018137 0.006038436 0.01070845 -0.002012386 0.005711872 0.01109623 0.0002222048 0.005013217 0.01232307 0.0003513517 0.004936869 0.01259591 0.00127805 0.004599625 0.01332349 0.0001343393 0.005011663 0.01243331 0.0001454991 0.005007847 0.0124416 0.0001300363 0.005013134 0.01243012 0.0002203068 0.005013959 0.01232142 0.0002139951 0.005016424 0.01231594 0.0001907554 0.004992337 0.01247527 -0.0007130273 0.005293982 0.01183743 6.734469e-05 0.005073735 0.01218987 0.0001888598 0.005026243 0.01229417 -0.0003761865 0.005247022 0.01182635 -0.001139229 0.005431674 0.01156879 -0.001292054 0.005480574 0.01147841 -0.001284242 0.005478079 0.01148295 -0.001257764 0.005469618 0.01149841 0.001496674 0.004514971 0.0135 -0.004668658 -0.003150113 0.01147712 -0.00446104 -0.003356054 0.01136513 -0.00402668 -0.003525753 0.0116783 -0.004557484 -0.003318367 0.01130014 -0.004586532 -0.003307011 0.0112809 -0.004593205 -0.003304402 0.01127651 -0.004595718 -0.003303419 0.01127485 -0.003236781 -0.003834687 0.01232311 -0.003389626 -0.003734402 0.01236503 -0.003746433 -0.003574449 0.01209868 -0.003304563 -0.003772069 0.01243007 -0.00330602 -0.003771426 0.01242895 -0.003221203 -0.003840777 0.01233668 -0.003183163 -0.003855644 0.01236997 -0.003262244 -0.003790743 0.01246258 -0.003233041 -0.003836149 0.01232636 -0.003235759 -0.003835087 0.012324 -0.003309298 -0.003769978 0.01242644 -0.003329208 -0.003761176 0.01241117 -0.003026516 -0.003916774 0.01250925 -0.00220936 -0.004236313 0.01326638 -0.001962353 -0.004332917 0.0135 -0.005387454 -0.00299383 0.01081388 -0.006330069 -0.002382674 0.01070338 -0.004840655 -0.003070098 0.01137412 -0.004671966 -0.003148574 0.0114751 -0.00467925 -0.003145185 0.01147065 -0.004721839 -0.003125371 0.01144478 -0.005561507 -0.002736154 0.0109963 -0.005672416 -0.0007103259 0.01137868 -0.005053233 -0.002703703 0.01137868 -0.004443669 -0.002373503 0.01246165 -0.003283842 -0.003773858 0.01246165 -0.003559631 -0.003269084 0.0135 -0.003166701 -0.00363012 0.0135 -0.004983046 -0.0006370507 0.01246165 -0.004568393 -0.001636467 0.0135 -0.004280628 -0.002285183 0.0135 -0.004798659 -0.0006174516 0.0135 -0.004805167 0.0002679962 0.0135 -0.004960678 0.0003287923 0.0125315 -0.005404001 0.0005021064 0.01167262 -0.006749319 -0.0008247932 0.01068543 -0.005651423 0.0005988345 0.01137857 -0.006096608 0.0007728768 0.01099797 -0.007781853 -0.0009345445 0.0105 -0.0066829 0.001002084 0.01068563 -0.006981568 0.001118847 0.01058867 -0.007666477 0.001386607 0.0105 -0.01048526 0.002488594 0.0105 -0.009392939 0.005282664 0.0105 -0.005084665 0.005964629 0.0105 -0.006574153 0.004180677 0.0105 -0.009288758 0.002020828 0.01078899 -0.008322773 0.001643182 0.01160029 -0.007230448 0.004437252 0.01160029 -0.008196434 0.004814898 0.01078899 -0.005808546 0.0006602608 0.01489971 -0.004716222 0.003454331 0.01489971 -0.004805152 0.0002679841 0.01552482 -0.004609776 0.0001916161 0.01581577 -0.00484256 0.0002826148 0.01571101 -0.003750236 0.003076685 0.01571101 -0.00196853 0.00410581 0.016 -0.003517469 0.002985689 0.01581577 -0.004231255 -0.001682043 0.016 -0.00476776 0.003474479 0.01118087 -0.005616961 0.003806469 0.01067552 -0.003892621 0.003132349 0.0124608 -0.004122435 0.003222194 0.01196242 -0.003712843 0.003062066 0.0135 -0.003768207 0.003083711 0.0129173 -0.004559196 0.003392943 0.01137846 -0.003712825 0.003062065 0.01552482 -0.001879642 0.005414067 0.01137868 -0.003686615 0.00436918 0.01137868 -0.003229728 0.003847783 0.01246165 -0.004400343 0.005183683 0.01068543 -0.003107524 0.003708324 0.0135 -0.002247188 0.004300975 0.0135 -0.001655655 0.004757995 0.01246165 -0.001595744 0.004582514 0.0135 -0.0003986097 0.004816533 0.0135 0.0001464061 0.005000419 0.01246165 0.0001349998 0.004815344 0.0135 -0.001962353 -0.004332917 0.0157 -0.003559631 -0.003269084 0.0157 -0.004510354 -0.001792059 0.0157 0.001496674 0.004514971 0.0157 -0.0003986097 0.004816533 0.0157 -0.00209901 0.004375949 0.0157 -0.00185312 -0.00405351 0.016 -0.003343913 -0.003060599 0.016 0.007305513 -0.007778998 0.01586497 0.007050556 -0.007534347 0.016 0.00815923 -0.008289887 0.0157 -0.0003814899 0.004517022 0.016 0.001387442 0.004235564 0.016 0.01226371 -1.644361e-05 0.016 0.01380474 -0.000297515 0.01570068 0.01387759 -0.0003252712 0.0157 0.006324346 -0.006152663 0.016 0.006358612 -0.004701536 0.016 0.00707013 -0.003436354 0.016 0.008966969 -0.001427183 0.016 0.006975354 -0.007450019 0.016 0.01041018 -0.0004048033 0.016 0.01213592 -1.755964e-05 0.016 0.01387759 -0.0003252712 0.0197 0.01213592 -1.755964e-05 0.0197 0.01041018 -0.0004048033 0.0197 0.008966969 -0.001427183 0.0197 0.00707013 -0.003436354 0.0197 0.006358612 -0.004701536 0.0197 0.006324346 -0.006152663 0.0197 0.00815923 -0.008289887 0.0197 0.006975354 -0.007450019 0.0197 0.007288272 -0.0036423 0.02 0.009185112 -0.001633129 0.02 0.008268463 -0.00801048 0.02 0.007202974 -0.007254599 0.02 0.006617067 -0.006086979 0.02 0.006647906 -0.004780964 0.02 0.03552476 -0.01898827 0.0197 0.03563399 -0.01870886 0.02 0.01053211 -0.0006789082 0.02 0.0121428 -0.0003174808 0.02 0.01376836 -0.0006046782 0.02 0.03887455 -0.01041979 0.02 0.03898378 -0.01014038 0.0197 0.03608276 -0.01550111 0.02 0.04150483 -0.01324703 0.02 0.04051234 -0.01153324 0.02 0.03853015 -0.01377557 0.02 0.03801746 -0.01327299 0.02 0.03662506 -0.01320267 0.02 0.03577622 -0.01430864 0.02 0.03606434 -0.01365104 0.02 0.03620422 -0.01563549 0.02 0.04165544 -0.01522173 0.02 0.03875056 -0.01445885 0.02 0.03862818 -0.01516629 0.02 0.03732993 -0.01306623 0.02 0.03682229 -0.01600078 0.02 0.03948437 -0.01841518 0.02 0.03819105 -0.01573583 0.02 0.03753933 -0.01603699 0.02 0.04093435 -0.01706623 0.02 0.0358267 -0.01502481 0.02 0.03759269 -0.01900144 0.02 0.04073199 -0.01132889 0.0197 0.04179138 -0.01315823 0.0197 0.04195215 -0.01526605 0.0197 0.04118244 -0.01723489 0.0197 0.03963471 -0.01867479 0.0197 0.03761551 -0.01930057 0.0197 0.03552476 -0.01898827 0.017 0.03761551 -0.01930057 0.017 0.03963471 -0.01867479 0.017 0.04118244 -0.01723489 0.017 0.04195215 -0.01526605 0.017 0.04179138 -0.01315823 0.017 0.04073199 -0.01132889 0.017 0.03898378 -0.01014038 0.017 0.03862818 -0.01516629 0.017 0.03819105 -0.01573583 0.017 0.03875056 -0.01445885 0.017 0.03853015 -0.01377557 0.017 0.03801746 -0.01327299 0.017 0.03732993 -0.01306623 0.017 0.03662506 -0.01320267 0.017 0.03606434 -0.01365104 0.017 0.03577622 -0.01430864 0.017 0.0358267 -0.01502481 0.017 0.03620422 -0.01563549 0.017 0.03608276 -0.01550111 0.017 0.03682229 -0.01600078 0.017 0.03753933 -0.01603699 0.017 0.03445101 -0.008368319 0.001 0.0345928 -0.00842375 0.01576537 0.03445101 -0.008368319 0.015 0.0345928 -0.00842375 0.0002346331 0.03560089 -0.008817858 -0.0008477591 0.03499658 -0.008581609 -0.0004142136 0.03631372 -0.009096535 -0.001 0.03499658 -0.008581609 0.01641421 0.03560089 -0.008817858 0.01684776 0.03631372 -0.009096535 0.017 0.03390485 -0.009765354 0.015 0.03390485 -0.009765354 0.001 0.03505473 -0.01021489 -0.0008477591 0.03576756 -0.01049357 -0.001 0.03445042 -0.009978643 -0.0004142136 0.03404664 -0.009820785 0.0002346331 0.03576756 -0.01049357 0.017 0.03505473 -0.01021489 0.01684776 0.03445042 -0.009978643 0.01641421 0.03404664 -0.009820785 0.01576537 0.02853958 -0.01625746 0.017 0.03145244 -0.008806602 0.017 0.02853958 -0.01625746 -0.001 0.03145244 -0.008806602 -0.001 0.02958973 -0.008078386 0.015 0.02958973 -0.008078386 0.001 0.03073961 -0.008527926 0.01684776 0.02973152 -0.008133818 0.01576537 0.03073961 -0.008527926 -0.0008477591 0.03013531 -0.008291676 0.01641421 0.03013531 -0.008291676 -0.0004142136 0.02973152 -0.008133818 0.0002346331 0.02667687 -0.01552924 0.015 0.02667687 -0.01552924 0.001 0.02782675 -0.01597878 0.01684776 0.02722244 -0.01574253 0.01641421 0.02681866 -0.01558467 0.01576537 0.02782675 -0.01597878 -0.0008477591 0.02722244 -0.01574253 -0.0004142136 0.02681866 -0.01558467 0.0002346331 0.002228753 -0.005971404 0.0035 0.008198311 -0.008305165 0.0145 0.008618267 -0.008469344 0.01460743 0.008618267 -0.008469344 0.00139257 0.008198311 -0.008305165 0.0015 0.002228753 -0.005971404 0.0125 0.004091466 -0.00669962 0.0145 0.004091466 -0.00669962 0.0015 0.0109533 -0.009382211 0.017 0.02341712 -0.01425486 0.017 0.02341712 -0.01425486 -0.001 0.003378637 -0.006420943 0.01434776 0.02473425 -0.01476979 0.01641421 0.02412995 -0.01453354 -0.0008477591 0.00911664 -0.008664181 0.0006666667 0.008947992 -0.008598248 0.001093363 0.003378637 -0.006420943 0.001652241 0.002774329 -0.006184693 0.01391421 0.02513804 -0.01492765 0.01576537 0.01011339 -0.009053852 0.01678514 0.0109533 -0.009382211 -0.001 0.02527983 -0.01498308 0.015 0.02527983 -0.01498308 0.001 0.02513804 -0.01492765 0.0002346331 0.009453938 -0.008796045 -0.0001867267 0.002370543 -0.006026836 0.002734633 0.002774329 -0.006184693 0.002085787 0.002370543 -0.006026836 0.01326537 0.02412995 -0.01453354 0.01684776 0.00911664 -0.008664181 0.01533333 0.009453938 -0.008796045 0.01618673 0.01011339 -0.009053852 -0.0007851405 0.02473425 -0.01476979 -0.0004142136 0.008947992 -0.008598248 0.01490664 0.02614793 -0.007269687 -0.001 0.01368411 -0.002397035 -0.001 0.004959563 0.001013772 0.0125 0.006109447 0.0005642319 0.01434776 0.005505139 0.0008004822 0.01391421 0.004959563 0.001013772 0.0035 0.005101354 0.0009583396 0.002734633 0.005505139 0.0008004822 0.002085787 0.006822276 0.0002855556 0.0015 0.006822276 0.0002855556 0.0145 0.02801064 -0.007997903 0.001 0.02686076 -0.007548363 -0.0008477591 0.02746507 -0.007784613 -0.0004142136 0.01184745 -0.001679005 0.0006666667 0.01218475 -0.001810869 -0.0001867267 0.006109447 0.0005642319 0.001652241 0.005101354 0.0009583396 0.01326537 0.0128442 -0.002068677 -0.0007851405 0.0116788 -0.001613073 0.001093363 0.02801064 -0.007997903 0.015 0.02786885 -0.007942471 0.01576537 0.01092912 -0.001319989 0.0015 0.01092912 -0.001319989 0.0145 0.02746507 -0.007784613 0.01641421 0.01368411 -0.002397035 0.017 0.01184745 -0.001679005 0.01533333 0.0116788 -0.001613073 0.01490664 0.0128442 -0.002068677 0.01678514 0.01218475 -0.001810869 0.01618673 0.02786885 -0.007942471 0.0002346331 0.02614793 -0.007269687 0.017 0.01134908 -0.001484169 0.00139257 0.02686076 -0.007548363 0.01684776 0.01134908 -0.001484169 0.01460743 0.03874267 -0.02671646 0.0035 0.03826912 -0.02733346 0.0035 0.03826912 -0.02733346 0.0115 0.03887525 -0.02595006 0.0035 0.03874267 -0.02671646 0.0115 0.03863648 -0.02520985 0.0035 0.03887525 -0.02595006 0.0115 0.03808106 -0.02466538 0.0035 0.03863648 -0.02520985 0.0115 0.03733623 -0.02444139 0.0035 0.03808106 -0.02466538 0.0115 0.03657263 -0.0245892 0.0035 0.03733623 -0.02444139 0.0115 0.03596518 -0.02507494 0.0035 0.03657263 -0.0245892 0.0115 0.03565305 -0.02578733 0.0035 0.03596518 -0.02507494 0.0115 0.03570774 -0.02656318 0.0035 0.03565305 -0.02578733 0.0115 0.03611672 -0.02722475 0.0035 0.03598513 -0.02707917 0.0035 0.03598513 -0.02707917 0.0115 0.03570774 -0.02656318 0.0115 0.0367863 -0.02762048 0.0035 0.03611672 -0.02722475 0.0115 0.03756308 -0.02765971 0.0035 0.0367863 -0.02762048 0.0115 0.03756308 -0.02765971 0.0115 0.001014852 -0.01276913 0.0035 0.03572502 -0.02997602 0.0035 0.001488403 -0.01215214 0.0035 0.001529254 -0.007588302 0.0035 0.0008267887 -0.01010106 0.0035 8.19632e-05 -0.009877068 0.0035 0.001382207 -0.01064552 0.0035 0.03757368 -0.03025216 0.0035 0.001620978 -0.01138574 0.0035 -0.004011763 -0.01274328 0.0035 -0.001546532 -0.01199886 0.0035 -0.001269133 -0.01251485 0.0035 -0.001529254 -0.0154117 0.0035 0.0003088115 -0.01309539 0.0035 -0.003075032 -0.0143608 0.0035 -0.001137553 -0.01266043 0.0035 0.04126603 -0.02482104 0.0035 0.0407276 -0.02842567 0.0035 0.03935908 -0.02969884 0.0035 -0.0003194122 -0.007312163 0.0035 -0.0004679745 -0.01305616 0.0035 -0.004153915 -0.01087952 0.0035 -0.001601219 -0.01122301 0.0035 0.0403293 -0.02320352 0.0035 0.03878352 -0.02215262 0.0035 -0.003473333 -0.009138653 0.0035 -0.001289086 -0.01051062 0.0035 -0.002104815 -0.007865477 0.0035 -0.0006816391 -0.01002488 0.0035 0.04140818 -0.0266848 0.0035 0.001014852 -0.01276913 0.0115 0.001488403 -0.01215214 0.0115 0.001620978 -0.01138574 0.0115 0.001382207 -0.01064552 0.0115 0.0008267887 -0.01010106 0.0115 8.19632e-05 -0.009877068 0.0115 -0.0006816391 -0.01002488 0.0115 -0.001289086 -0.01051062 0.0115 -0.001601219 -0.01122301 0.0115 -0.001269133 -0.01251485 0.0115 -0.001546532 -0.01199886 0.0115 -0.001137553 -0.01266043 0.0115 -0.0004679745 -0.01305616 0.0115 0.0003088115 -0.01309539 0.0115 0.001638486 -0.007308895 0.0038 0.03889275 -0.02187322 0.0038 -0.0003422273 -0.007013032 0.0038 -0.002255158 -0.007605868 0.0038 -0.003721428 -0.008969985 0.0038 -0.004450623 -0.0108352 0.0038 -0.004298317 -0.01283209 0.0038 -0.003294677 -0.01456514 0.0038 -0.001638486 -0.01569111 0.0038 0.03561578 -0.03025543 0.0038 0.03759649 -0.03055129 0.0038 0.03950943 -0.02995845 0.0038 0.0409757 -0.02859434 0.0038 0.04170489 -0.02672912 0.0038 0.04155258 -0.02473223 0.0038 0.04054895 -0.02299918 0.0038 0.001638486 -0.007308895 0.0112 0.03889275 -0.02187322 0.0112 -0.0003422273 -0.007013032 0.0112 -0.002255158 -0.007605868 0.0112 -0.003721428 -0.008969985 0.0112 -0.004450623 -0.0108352 0.0112 -0.004298317 -0.01283209 0.0112 -0.003294677 -0.01456514 0.0112 -0.001638486 -0.01569111 0.0112 0.03561578 -0.03025543 0.0112 -0.001529254 -0.0154117 0.0115 -0.003075032 -0.0143608 0.0115 -0.004011763 -0.01274328 0.0115 -0.004153915 -0.01087952 0.0115 -0.003473333 -0.009138653 0.0115 -0.002104815 -0.007865477 0.0115 -0.0003194122 -0.007312163 0.0115 0.001529254 -0.007588302 0.0115 0.03572502 -0.02997602 0.0115 0.03757368 -0.03025216 0.0115 0.04126603 -0.02482104 0.0115 0.0403293 -0.02320352 0.0115 0.03878352 -0.02215262 0.0115 0.04140818 -0.0266848 0.0115 0.03935908 -0.02969884 0.0115 0.0407276 -0.02842567 0.0115 0.03759649 -0.03055129 0.0112 0.03950943 -0.02995845 0.0112 0.0409757 -0.02859434 0.0112 0.04170489 -0.02672912 0.0112 0.04155258 -0.02473223 0.0112 0.04054895 -0.02299918 0.0112</float_array>
          <technique_common>
            <accessor count="740" source="#verts-array-array" stride="3">
              <param type="float" name="X"/>
              <param type="float" name="Y"/>
              <param type="float" name="Z"/>
            </accessor>
          </technique_common>
        </source>
        <source id="normals-array">
          <float_array count="2220" id="normals-array-array">-0.5897346 0.2583893 -0.7651458 -0.4021045 0.5028557 -0.7651458 -0.4021045 0.5028557 0.7651458 -0.6422636 -0.04527097 -0.7651458 -0.5897346 0.2583893 0.7651458 -0.5476577 -0.3385602 -0.7651458 -0.6422636 -0.04527097 0.7651458 -0.32759 -0.5542894 -0.7651458 -0.5476577 -0.3385602 0.7651458 -0.03247547 -0.6430376 -0.7651458 -0.32759 -0.5542894 0.7651458 0.2700788 -0.5844736 -0.7651458 -0.03247547 -0.6430376 0.7651458 0.5107614 -0.3920137 -0.7651458 0.2700788 -0.5844736 0.7651458 0.6344346 -0.1097483 -0.7651458 0.5107614 -0.3920137 0.7651458 0.6270376 0.181546 -0.7575387 0.6344346 -0.1097483 0.7651458 0.4236344 0.5187369 -0.7425941 0.5539362 0.3905529 -0.7352708 0.5539362 0.3905529 0.7352708 0.6270376 0.181546 0.7575387 0.1854207 0.6165802 -0.7651458 0.4236344 0.5187369 0.7425941 -0.1223572 0.6321239 -0.7651458 0.1854207 0.6165802 0.7651458 -0.1223572 0.6321239 0.7651458 -0.4057248 -0.1327766 -0.9042996 -0.448192 0.5159381 -0.7300218 -0.545585 0.4015452 -0.735594 -0.2669115 0.6000391 -0.7541295 0.1416725 0.9017395 -0.4084052 -0.07803318 0.6771293 -0.731715 -0.6201003 0.1702535 -0.765826 -0.2080965 0.3727451 -0.9042991 -0.0198636 0.4233144 -0.9057651 0.1042669 0.3924929 -0.9138259 -0.6274452 -0.1407946 -0.765826 -0.1895794 -0.3591404 -0.9138259 -0.5583225 -0.3792473 -0.7378669 -0.3017008 -0.2976006 -0.9057651 -0.5106045 -0.7489283 -0.4223618 -0.7465028 0.5522942 -0.3710858 -0.6095285 0.6993018 -0.3734327 -0.4207445 -0.8246162 -0.3781298 -0.3974853 -0.8163395 -0.4190409 -0.3739909 -0.9274062 -0.006967375 -0.4374898 -0.8182393 -0.3729437 -0.7072259 -0.6055512 -0.3648827 -0.9090725 -0.2039899 -0.3632841 -0.8984308 0.2466714 -0.363284 0.2500943 0.8913309 -0.3781298 0.2090391 0.8805093 -0.4254481 0.3294488 0.9438146 -0.02602849 -0.3781124 0.8500278 -0.3667203 0.2532643 0.8917897 -0.3749244 -0.02245094 0.9294843 -0.3681778 -0.2636075 0.3063486 -0.9146921 -0.3315814 0.2403394 -0.9122997 -0.4157171 0.1141385 -0.9023035 -0.420641 -0.09438915 -0.9023036 -0.3270912 -0.2808198 -0.9023035 -0.1970996 -0.3589717 -0.9122999 -0.2409491 -0.8963739 -0.3720986 -0.102469 -0.3940988 -0.913338 0.1074393 0.3896092 -0.914692 -0.00968283 0.4221513 -0.9064737 -0.1716193 0.385814 -0.9064736 0.430885 0.8221198 -0.3720982 0.1919901 0.3591018 -0.9133377 0.6270385 0.1815456 -0.757538 0.553936 0.390552 -0.7352714 0.6344348 -0.1097473 -0.7651457 0.4236339 0.5187375 -0.7425939 0.4226472 -0.06313139 -0.9040928 0.353399 -0.2402588 -0.9040934 -0.5897339 0.2583892 -0.7651463 0.2141585 -0.3698008 -0.9040927 -0.4021048 0.5028564 -0.7651452 0.3128736 0.2910768 -0.9040931 -0.5476579 -0.3385595 -0.7651459 -0.32759 -0.5542892 -0.7651459 0.4081821 0.1264995 -0.9040936 -0.6422641 -0.04527112 -0.7651453 0.0324997 -0.4261 -0.9040921 -0.1223581 0.6321236 -0.7651459 0.1854203 0.6165802 -0.7651459 0.5107608 -0.3920135 -0.7651463 -0.03247523 -0.6430376 -0.7651457 0.2700785 -0.5844741 -0.7651455 0.07081132 -0.9284126 -0.3647406 0.4666212 -0.805747 -0.3647416 0.7700116 -0.523493 -0.3647427 0.9208919 -0.1375552 -0.3647418 0.8893776 0.2756265 -0.3647431 0.6817114 0.6342181 -0.3647423 -0.1881711 -0.7060028 0.682753 0.05711518 -0.7488416 0.6602833 0.3763688 -0.6499019 0.6602833 0.6210788 -0.4222408 0.6602831 0.7427759 -0.1109498 0.6602834 0.7173575 0.2223159 0.6602831 0.549857 0.5115499 0.6602832 0.3405535 0.6464299 0.6827531 -0.4021048 0.5028564 0.7651452 -0.5897339 0.2583892 0.7651463 -0.6422641 -0.04527112 0.7651453 -0.5476579 -0.3385595 0.7651459 -0.32759 -0.5542892 0.7651459 -0.03247523 -0.6430376 0.7651457 0.2700785 -0.5844741 0.7651455 0.5107608 -0.3920135 0.7651463 0.6344348 -0.1097473 0.7651457 0.6270385 0.1815456 0.757538 0.553936 0.390552 0.7352714 0.4236339 0.5187375 0.7425939 0.1854203 0.6165802 0.7651459 -0.1223581 0.6321236 0.7651459 -0.8663221 -0.3189413 -0.3843989 -0.6604781 -0.6482566 -0.3788562 -0.7237791 -0.6775834 -0.1304783 -0.484185 -0.04700019 -0.8737024 -0.4147828 -0.9096751 -0.02112814 -0.591626 -0.8005701 -0.09521631 -0.9479528 -0.3101643 -0.07199674 -0.9900241 -0.1073872 -0.09121595 -0.7447182 -0.6633585 -0.07314611 -0.8610759 -0.5001325 -0.0917376 -0.8315081 -0.5547298 -0.02948153 -0.9268449 -0.111479 -0.358512 -0.8210476 -0.4433604 -0.3596004 -0.6763715 -0.3110323 -0.667668 -0.08218223 -0.004891959 -0.9966053 -0.298546 -0.6312778 -0.7157924 -0.4532462 -0.5833591 -0.6739882 -0.6878597 -0.08097351 -0.7213129 -0.3429259 -0.02902071 -0.9389141 -0.6173301 -0.56458 -0.5478621 -0.7694108 -0.5386238 -0.3433531 -0.7014938 -0.5599527 -0.440862 -0.8348473 -0.5380565 -0.1162979 -0.8066676 -0.5484325 -0.220248 -0.6843879 -0.6910472 -0.2325232 -0.4979682 -0.8499741 -0.1719641 -0.5309976 -0.8290363 -0.1753293 -0.4452518 -0.8881499 -0.1137564 -0.6069032 -0.550682 -0.5730776 -0.6217941 -0.5935662 -0.5109318 -0.5700561 -0.7538582 -0.3267014 -0.5958087 -0.6743326 -0.4362195 -0.7022924 -0.5816646 -0.4104287 -0.6012331 -0.6481092 -0.4674111 -0.600626 -0.6221836 -0.5021315 -0.6072439 -0.5504341 -0.5729548 0 0 0 -0.5617814 -0.4851598 -0.6700908 -0.4212721 -0.4157576 -0.8060244 -0.2344026 -0.349854 -0.9070047 -0.4605977 -0.8664193 -0.1927881 -0.4671586 -0.8595743 -0.2071107 -0.4351983 -0.8904731 -0.1328913 -0.3655454 -0.9307935 -0.0002055089 -0.365577 -0.9307811 -0.0002102156 -0.4489867 -0.8836393 -0.1326369 -0.4438883 -0.8543372 -0.2703167 -0.3701384 -0.8556304 -0.3617931 -0.3986448 -0.9161819 -0.04114711 -0.3644786 -0.9312118 -0.0001201944 -0.3644763 -0.9312126 -0.0001194148 -0.4433294 -0.8907189 -0.1003935 -0.4149608 -0.9071386 -0.07005077 -0.457486 -0.8776016 -0.1432551 -0.1960426 -0.3590038 -0.912515 -0.4372957 -0.8190924 -0.3712952 -0.7099895 -0.5092676 -0.4863757 -0.7243947 -0.4502268 -0.5220615 -0.535934 -0.6064944 -0.5873152 -0.06417652 -0.01287201 -0.9978555 -0.5931516 -0.4964482 -0.6338063 -0.1763362 0.8557711 -0.4863757 -0.2269651 0.8221549 -0.5220614 -0.03843001 0.05298543 -0.9978555 0.01751073 0.809169 -0.587315 -0.0991542 0.7671037 -0.6338142 -0.3239141 0.3629113 -0.8737134 -0.04568633 0.9243272 -0.3788561 -0.4203034 0.8219378 -0.3843999 -0.07230446 0.9888097 -0.1304894 -0.1855454 0.909028 -0.37315 -0.246437 0.9471344 -0.2054393 -0.1182851 0.8620687 -0.4927943 0.04631135 0.7553717 -0.6536581 -0.0757462 0.8181975 -0.5699257 0.1193197 0.7074244 -0.6966445 -0.2453743 0.9679381 -0.05373393 0.2229953 0.6639403 -0.7137622 0.1091958 0.9895328 -0.09434611 -0.09734776 0.9925588 -0.07314609 -0.2935578 0.9515293 -0.09173765 -0.4862413 0.8708535 -0.07199672 -0.6477995 0.7553935 -0.0986734 0.3108588 0.9502362 -0.0204457 -0.3031764 0.8821403 -0.3604338 -0.5976882 0.7193453 -0.3539931 -0.4413536 0.5285496 -0.7251499 -0.04031302 0.9724289 -0.2296885 -0.2331124 0.2562979 -0.9380672 -0.05761658 0.05861864 -0.9966164 0.06569456 0.4158908 -0.9070386 -0.07429973 0.5042024 -0.8603833 -0.07794153 0.72654 -0.6826894 -0.2739189 0.6823656 -0.6777504 -0.04755448 0.8076921 -0.5876836 0 0 0 -0.1206968 0.8972001 -0.4248108 0.01229674 0.8900566 -0.4556841 0.03011134 0.9123064 -0.4083997 -0.07208199 0.8162426 -0.5731948 0.04726356 0.929605 -0.3655143 0.005905804 0.9111718 -0.4119843 -0.1102476 0.8377047 -0.5348796 -0.02934862 0.8752841 -0.4827178 -0.01515029 0.8637571 -0.5036806 0.1588708 0.9714559 -0.176163 0.3072298 0.8802502 -0.3616206 0.2400101 0.9412567 -0.2375522 0.2882948 0.9489487 -0.1279938 0.2423557 0.9524678 -0.1845776 0.2549777 0.9566372 -0.1408246 0.2801222 0.9503128 -0.1357831 0.3640954 0.9313617 4.349354e-06 0.3641058 0.9313576 7.240041e-07 0.3157034 0.9471693 -0.05658406 0.3641766 0.9313299 -1.01559e-05 0.3151433 0.9469823 -0.06252361 0.3641216 0.9313514 -2.023807e-06 0.3640606 0.9313752 7.076433e-06 0.2939906 0.9520123 -0.08510022 0.2994928 0.9510372 -0.07636917 0.1537295 0.3380549 -0.9284859 0.3832982 0.8385646 -0.3871588 -0.3241943 -0.2829865 -0.902672 -0.4182849 -0.1010974 -0.9026722 0.6270376 0.1815459 -0.7575387 -0.6422634 -0.04527098 -0.7651459 -0.5897347 0.2583894 -0.7651457 0.4236343 0.518737 -0.742594 0.553936 0.390553 -0.7352709 -0.4176517 0.1036859 -0.9026717 0.6344348 -0.1097482 -0.7651457 -0.4021046 0.5028556 -0.7651458 0.1854207 0.6165801 -0.7651458 -0.1223573 0.6321239 -0.7651458 0.04895321 0.4275364 -0.9026717 0.1607013 0.3661346 -0.9165809 -0.3275899 -0.5542894 -0.7651458 -0.5476577 -0.3385604 -0.7651457 -0.3224366 0.2849889 -0.9026716 0.5107612 -0.3920136 -0.7651459 -0.1542022 0.4017535 -0.9026715 0.2700789 -0.5844737 -0.7651456 -0.03247524 -0.6430376 -0.7651458 0.3789549 0.8465036 -0.3739315 0.1059722 0.9255151 -0.3635818 -0.3338102 0.8697007 -0.3635815 -0.6979982 0.6169335 -0.3635817 -0.9041171 0.2244557 -0.363582 -0.9054895 -0.2188523 -0.3635827 -0.7018048 -0.6125993 -0.3635824 0.3789548 0.8465035 0.3739319 0.3832981 0.8385644 0.3871592 0.1059722 0.925515 0.3635821 -0.3338101 0.8697006 0.3635818 -0.6979981 0.6169334 0.363582 -0.904117 0.2244557 0.3635822 -0.9054894 -0.2188523 0.363583 -0.7018048 -0.6125991 0.3635827 -0.4372956 -0.8190923 0.3712955 -0.4021046 0.5028556 0.7651458 -0.5897347 0.2583894 0.7651457 -0.6422634 -0.04527098 0.7651459 -0.5476577 -0.3385604 0.7651457 -0.3275899 -0.5542894 0.7651458 -0.03247524 -0.6430376 0.7651458 0.2700789 -0.5844737 0.7651456 0.5107612 -0.3920136 0.7651459 0.6344348 -0.1097482 0.7651457 0.6270376 0.1815459 0.7575387 0.4236343 0.518737 0.742594 0.553936 0.390553 0.7352709 0.1854207 0.6165801 0.7651458 -0.1223573 0.6321239 0.7651458 0.1607012 0.3661343 0.916581 0.1537294 0.3380546 0.9284861 0.06502986 0.4160689 0.9070049 0.3083168 0.879799 0.3617934 -0.1960424 -0.3590034 0.9125152 -0.324194 -0.2829862 0.9026722 -0.4182845 -0.1010974 0.9026724 -0.4176513 0.1036859 0.9026719 -0.3224362 0.2849886 0.9026718 -0.1542019 0.4017532 0.9026717 0.04895315 0.4275361 0.9026719 -0.3712431 -0.8552245 0.3616209 -0.2337934 -0.3501733 0.9070387 -0.0543522 0.8579013 0.5109318 0.2491605 0.9490793 0.1927886 0.2396961 0.9484993 0.2071108 0.2841421 0.949528 0.1328905 0.3626566 0.9319228 0.0002075282 0.3626186 0.9319376 0.000213193 0.2693716 0.9538587 0.1326369 0.2532446 0.9288681 0.270317 -0.02759319 0.5912385 0.8060246 -0.08377632 0.7375361 0.670091 0.3284333 0.9436304 0.04114932 0.210544 0.9623407 0.1719639 0.2751767 0.95464 0.1137553 -0.1215785 0.9037541 0.4104233 0 0 0 0.09238208 0.9406014 0.3267025 0.3637252 0.9315063 0.0001244624 0.3637287 0.9315049 0.0001232373 0.1720721 0.9693558 0.1753299 0.01952178 0.8996286 0.4362193 0.2783307 0.9552241 0.1003941 0.3103105 0.9480507 0.0700523 0.2590312 0.9551864 0.1432544 -0.002251198 0.8840371 0.4674112 -0.07250511 0.8162896 0.5730744 -0.07291507 0.8163375 0.5729541 -0.01938418 0.8645736 0.5021323 0.3121646 0.9497931 0.02112759 -0.5946261 -0.6623985 0.4556842 -0.4679147 -0.8642783 0.1846047 -0.4614316 -0.8759255 0.140838 -0.4386997 -0.8883145 0.135794 -0.3641056 -0.9313577 1.072885e-06 -0.3641298 -0.9313482 -7.469943e-06 -0.4317882 -0.892849 0.1279833 -0.4103746 -0.9101609 0.05656696 -0.595752 -0.7151765 0.3655161 -0.5966255 -0.6908314 0.4083994 -0.6972071 -0.5774527 0.4247948 0 0 0 -0.3640726 -0.9313706 2.524193e-05 -0.4107782 -0.9095842 0.06259203 -0.5421217 -0.8216269 0.1761625 -0.3641019 -0.9313591 4.466068e-06 -0.3641212 -0.9313516 -9.322912e-06 -0.6491834 -0.540824 0.5348554 -0.6136464 -0.6735841 0.4119739 -0.4296268 -0.8989839 0.08513985 -0.4249184 -0.9020065 0.07634595 -0.4160443 -0.9091147 0.02043676 -0.4620162 -0.8544647 0.2375524 -0.3965636 -0.3201213 0.8603835 -0.5827457 -0.5612801 0.5876837 -0.6065699 -0.5509276 0.5731943 -0.5969576 -0.6244577 0.5036806 -0.6152093 -0.6232981 0.4827183 -0.5500358 -0.4810357 0.6826897 -0.6828066 -0.08906626 0.7251499 -0.66409 -0.3156568 0.6777501 -0.8210826 -0.4426185 0.3604335 -0.6891535 -0.6872501 0.2296838 -0.7447182 -0.6633585 0.07314613 -0.5908872 -0.8012185 0.0943462 -0.9270925 -0.1232419 0.353993 -0.9479528 -0.3101643 0.07199675 -0.8610759 -0.5001325 0.09173763 -0.9883656 -0.115745 0.09867347 -0.8367971 -0.5448699 0.0537339 -0.8234684 -0.5288615 0.2054395 -0.7528773 -0.5421576 0.3731499 -0.3451316 -0.03023698 0.9380671 -0.671602 -0.5532671 0.4927944 -0.6105876 -0.5498797 0.5699255 -0.08209661 -0.003998658 0.9966164 -0.4782828 -0.5864946 0.6536587 -0.392113 -0.6007781 0.6966441 -0.2864352 -0.6391386 0.7137624 -0.06417663 -0.01287204 0.9978555 -0.03843007 0.05298553 0.9978555 -0.05707391 0.05933337 0.9966053 0.208764 0.6663775 0.7157923 -0.5359341 -0.6064944 0.5873152 -0.7099895 -0.5092676 0.4863757 -0.1763361 0.8557711 0.4863757 0.01751061 0.809169 0.587315 -0.7243949 -0.4502267 0.5220613 -0.2269651 0.822155 0.5220613 -0.7237725 -0.6775883 0.1304892 -0.4841659 -0.04699804 0.8737131 -0.5931355 -0.4964575 0.633814 -0.09917259 0.7671078 0.6338063 -0.2080946 0.3727462 0.9042991 -0.323927 0.3629268 0.8737021 -0.4057275 -0.1327753 0.9042986 -0.07073061 0.8335731 0.5478622 0.0625827 0.7360867 0.673988 -0.2208174 0.9501214 0.2202478 -0.200092 0.9176447 0.3433531 -0.2348004 0.9715964 0.0294815 -0.2485626 0.9616088 0.1162979 -0.1357168 0.8872549 0.4408625 -0.07231298 0.9888105 0.1304782 -0.2860812 0.6872972 0.6676677 -0.4505555 0.5260298 0.7213129 -0.6054845 0.7105335 0.3585119 -0.2323166 0.2539083 0.938914 -0.6546868 0.7503765 0.09121595 -0.4862414 0.8708535 0.07199673 -0.3026476 0.8826619 0.3596004 -0.2935578 0.9515293 0.09173768 -0.09734776 0.9925588 0.07314611 -0.03423272 0.9719886 0.2325217 0.108213 0.9895574 0.09521632 -0.4207447 -0.8246166 0.3781288 -0.6604784 -0.6482569 0.3788552 -0.8663226 -0.3189398 0.3843989 0.2500944 0.8913313 0.3781288 -0.04568632 0.9243276 0.3788551 -0.4203023 0.8219393 0.384398 -0.1895799 -0.3591414 0.9138254 -0.3017016 -0.2976014 0.9057646 -0.4484198 -0.7849001 0.4276113 -0.5400751 -0.7314202 0.4163453 -0.3983672 -0.9168482 0.02632441 -0.01986361 0.4233155 0.9057646 0.1042672 0.3924939 0.9138254 0.1796846 0.8916233 0.4155976 0.2870481 0.8655459 0.4104067 0.362101 0.9321378 0.001378652 -0.6274452 -0.1407946 0.765826 -0.6201003 0.1702535 0.765826 -0.545585 0.4015452 0.735594 -0.448192 0.5159381 0.7300218 -0.5583225 -0.3792473 0.7378669 -0.2669115 0.6000391 0.7541295 -0.07803318 0.6771293 0.731715 0.2531944 0.8918971 0.3747162 -0.02245095 0.9294841 0.3681783 -0.3781123 0.8500276 0.3667208 -0.6095284 0.6993017 0.3734332 -0.7465027 0.5522941 0.3710863 -0.8984306 0.2466713 0.3632845 -0.9090723 -0.2039899 0.3632846 -0.4373916 -0.8182268 0.3730865 -0.7072258 -0.605551 0.3648831 -0.3315809 0.2403391 0.9123 -0.2636072 0.3063481 0.9146924 -0.1970993 -0.3589712 0.9123001 -0.3270908 -0.2808194 0.9023038 -0.4206404 -0.0943891 0.9023039 -0.4157165 0.1141383 0.9023038 -0.2409488 -0.8963737 0.3720992 -0.1024687 -0.3940984 0.9133382 -0.171619 0.3858135 0.9064739 -0.009682843 0.4221507 0.9064739 0.1074392 0.3896086 0.9146923 0.1919898 0.3591013 0.9133379 0.4308849 0.8221197 0.3720987 0.553936 0.390552 0.7352714 0.4081814 0.1264996 0.9040939 0.3128733 0.2910764 0.9040934 -0.5476579 -0.3385595 0.7651459 -0.32759 -0.5542892 0.7651459 0.2700785 -0.5844741 0.7651455 0.6344348 -0.1097473 0.7651457 0.5107608 -0.3920135 0.7651463 0.4236339 0.5187375 0.7425939 0.4226465 -0.06313171 0.9040931 -0.6422641 -0.04527112 0.7651453 -0.5897339 0.2583892 0.7651463 -0.03247523 -0.6430376 0.7651457 0.1854203 0.6165802 0.7651459 0.2141581 -0.3698001 0.904093 -0.4021048 0.5028564 0.7651452 -0.1223581 0.6321236 0.7651459 0.3533987 -0.2402582 0.9040937 0.6270385 0.1815456 0.757538 0.03249917 -0.4260995 0.9040924 0.6817113 0.6342179 0.3647428 0.8893774 0.2756266 0.3647436 0.9208917 -0.1375555 0.3647423 0.7700116 -0.5234926 0.3647431 0.4666211 -0.8057469 0.3647419 0.07081099 -0.9284125 0.3647411 -0.1881711 -0.7060028 -0.682753 0.05711518 -0.7488416 -0.6602833 0.3763688 -0.6499019 -0.6602833 0.6210788 -0.4222408 -0.6602831 0.7427759 -0.1109498 -0.6602834 0.7173575 0.2223159 -0.6602831 0.549857 0.5115499 -0.6602832 0.3405535 0.6464299 -0.6827531 -0.5897339 0.2583892 -0.7651463 -0.4021048 0.5028564 -0.7651452 -0.6422641 -0.04527112 -0.7651453 -0.5476579 -0.3385595 -0.7651459 -0.32759 -0.5542892 -0.7651459 -0.03247523 -0.6430376 -0.7651457 0.2700785 -0.5844741 -0.7651455 0.5107608 -0.3920135 -0.7651463 0.6344348 -0.1097473 -0.7651457 0.6270385 0.1815456 -0.757538 0.4236339 0.5187375 -0.7425939 0.553936 0.390552 -0.7352714 0.1854203 0.6165802 -0.7651459 -0.1223581 0.6321236 -0.7651459 0.8993613 0.4320409 0.06700633 0.8398974 0.4809701 -0.251476 0.8993618 0.43204 -0.06700625 0.8398978 0.480969 0.2514767 0.5086678 0.6104613 0.6071195 0.7072251 0.5328362 0.4646701 0.3281508 0.6553507 0.680318 0.7072257 0.5328364 -0.4646688 0.5086639 0.6104709 -0.6071131 0.3281511 0.6553507 -0.6803178 0.3678748 -0.9274581 -0.06700439 0.3678744 -0.9274582 0.06700486 -0.04023786 -0.7935914 0.6071192 0.03415277 -0.04700993 0.9983104 0.1583203 -0.8712152 0.4646706 0.2909908 -0.9230842 0.2514756 0.0341529 -0.04701017 -0.9983104 -0.04023783 -0.7935912 -0.6071194 0.1583206 -0.8712154 -0.4646701 0.2909906 -0.9230841 -0.2514763 -0.2033377 -0.7041469 -0.6803168 -0.1832192 -0.6646055 -0.7243827 -0.2033378 -0.7041467 0.6803169 -0.1832194 -0.6646055 0.7243826 0.4249909 -0.9023816 -0.07134534 0.4249909 -0.9023816 0.0713454 0.02356429 -0.7239963 -0.6894013 0.3996852 -0.8710382 -0.2855594 0.02356414 -0.7239962 0.6894014 0.2490318 -0.8121417 -0.5276448 0.2490318 -0.8121417 0.5276448 0.3996852 -0.8710382 0.2855595 0.3678739 -0.9274584 -0.06700473 0.3678741 -0.9274584 0.06700495 -0.04023722 -0.7935908 -0.6071199 0.1583206 -0.8712154 -0.4646702 0.2909919 -0.9230835 -0.2514766 -0.04023744 -0.7935908 0.6071199 0.1583206 -0.8712154 0.4646702 0.2909921 -0.9230835 0.2514766 0.3678736 -0.9274585 0.06700585 -0.1687354 -0.6660454 -0.7265755 0.0763074 -0.7368345 -0.6717531 0.07630729 -0.7368344 0.6717531 -0.1687355 -0.6660454 0.7265755 0.3678739 -0.9274584 -0.06700522 -0.203338 -0.7041466 -0.680317 -0.2033379 -0.7041467 0.6803169 -0.1936141 -0.712767 -0.674149 -0.3281498 -0.6553523 -0.6803169 -0.3281496 -0.6553523 0.680317 -0.04023818 -0.793591 -0.6071196 -0.7072255 -0.5328366 -0.464669 -0.5086679 -0.6104617 0.607119 0.3487738 -0.8955737 0.2762329 0.3244597 -0.8338478 0.4465689 -0.04023795 -0.793591 0.6071196 0.1583199 -0.871216 -0.4646691 -0.8398973 -0.4809696 -0.2514772 -0.006510801 -0.8168842 -0.576765 -0.1936141 -0.7127669 0.674149 -0.8993617 -0.4320403 -0.06700518 -0.8993618 -0.4320401 0.06700538 -0.8398973 -0.4809696 0.2514772 0.206552 -0.9001798 0.3834222 0.290992 -0.9230834 0.2514769 0.1583199 -0.871216 0.4646692 0.290992 -0.9230834 -0.2514769 -0.5086681 -0.6104615 -0.607119 0.3487739 -0.8955737 -0.2762329 0.206552 -0.9001798 -0.3834222 -0.006510953 -0.8168842 0.576765 -0.7072254 -0.5328366 0.464669 0.3244597 -0.8338478 -0.4465688 -0.3161156 -0.6126506 0.7243826 -0.1687356 -0.6660452 0.7265756 0.424991 -0.9023816 -0.07134548 0.0235638 -0.7239962 -0.6894014 0.2490321 -0.8121415 -0.5276449 0.424991 -0.9023816 0.07134544 0.399685 -0.8710383 0.2855594 0.249032 -0.8121415 0.5276449 -0.1832195 -0.6646054 0.7243827 -0.1832197 -0.6646054 -0.7243826 -0.9243263 -0.3748744 0.07134521 -0.5083512 -0.5160474 0.6894012 -0.7338191 -0.4279025 0.5276448 0.3487746 -0.8955736 0.2762323 0.3244598 -0.8338479 0.4465686 0.02356395 -0.7239963 0.6894012 0.3996849 -0.8710383 -0.2855594 0.07630674 -0.7368343 0.6717533 0.2065517 -0.90018 0.383422 -0.9243263 -0.3748743 -0.07134506 -0.8844723 -0.369005 -0.2855593 -0.1936142 -0.7127669 0.674149 -0.1936141 -0.7127669 -0.674149 -0.7338192 -0.4279021 -0.5276449 -0.1687355 -0.6660452 -0.7265756 0.3487747 -0.8955735 -0.2762323 0.2065518 -0.9001799 -0.3834221 0.07630684 -0.7368344 -0.6717532 0.3244599 -0.8338479 -0.4465685 -0.8844722 -0.3690053 0.2855593 -0.3161157 -0.6126504 -0.7243828 -0.006510938 -0.816884 0.5767652 -0.5083514 -0.5160472 -0.6894013 -0.00651057 -0.816884 -0.5767652 -0.5897344 0.2583897 -0.7651458 -0.4021039 0.502856 -0.7651459 -0.4021039 0.502856 0.7651459 -0.6422632 -0.04527121 -0.765146 -0.5897344 0.2583897 0.7651458 -0.5476574 -0.3385609 -0.7651457 -0.6422632 -0.04527121 0.765146 -0.3275895 -0.5542897 -0.7651458 -0.5476574 -0.3385609 0.7651457 -0.03247525 -0.6430378 -0.7651456 -0.3275895 -0.5542897 0.7651458 0.270079 -0.5844732 -0.765146 -0.03247525 -0.6430378 0.7651456 0.510762 -0.3920129 -0.7651458 0.270079 -0.5844732 0.765146 0.6344349 -0.1097477 -0.7651456 0.510762 -0.3920129 0.7651458 0.6270385 0.1815451 -0.7575382 0.6344349 -0.1097477 0.7651456 0.423634 0.5187366 -0.7425944 0.5539369 0.3905514 -0.7352711 0.5539369 0.3905514 0.7352711 0.6270385 0.1815451 0.7575382 0.1854199 0.6165805 -0.7651457 0.423634 0.5187366 0.7425944 -0.1223571 0.6321244 -0.7651454 0.1854199 0.6165805 0.7651457 -0.1223571 0.6321244 0.7651454 -0.4021045 0.5028556 -0.7651459 -0.1024689 -0.3940987 -0.913338 -0.5897347 0.2583892 -0.7651457 0.102469 0.3940995 -0.9133377 -0.3275903 -0.5542893 -0.7651457 -0.0324754 -0.6430374 -0.7651459 -0.5476578 -0.3385603 -0.7651457 0.03249933 -0.4260983 -0.9040929 -0.6422635 -0.04527104 -0.7651458 -0.4081835 -0.1265001 -0.9040929 0.6270375 0.1815462 -0.7575388 0.5539362 0.3905531 -0.7352707 -0.1919903 -0.3591017 -0.9133377 -0.1223571 0.632124 -0.7651457 -0.3128744 -0.2910771 -0.9040928 0.4236345 0.5187368 -0.7425941 0.4081842 0.1265005 -0.9040925 0.3533986 -0.2402589 -0.9040935 0.2141576 -0.3698007 -0.9040929 -0.03249916 0.4260986 -0.9040928 0.1854208 0.6165801 -0.7651458 -0.422647 0.06313151 -0.9040929 0.6344347 -0.1097482 -0.7651457 0.3128735 0.291076 -0.9040934 0.1919902 0.3591022 -0.9133375 -0.3534 0.2402591 -0.9040929 0.5107612 -0.3920137 -0.7651459 -0.2141578 0.3698005 -0.9040929 0.270079 -0.5844737 -0.7651456 0.4226471 -0.06313146 -0.9040928 -0.4021045 0.5028556 0.7651459 -0.5897347 0.2583892 0.7651457 -0.6422635 -0.04527104 0.7651458 -0.5476578 -0.3385603 0.7651457 -0.3275903 -0.5542893 0.7651457 -0.0324754 -0.6430374 0.7651459 0.270079 -0.5844737 0.7651456 0.5107612 -0.3920137 0.7651459 0.6344347 -0.1097482 0.7651457 0.5539362 0.3905531 0.7352707 0.6270375 0.1815462 0.7575388 0.4236345 0.5187368 0.7425941 0.1854208 0.6165801 0.7651458 -0.1223571 0.632124 0.7651457 0.2409491 0.8963741 -0.3720981 0.430885 0.82212 -0.3720978 -0.0708113 0.9284122 -0.3647417 -0.4666216 0.8057466 -0.3647419 -0.7700119 0.5234931 -0.3647419 -0.920892 0.1375552 -0.3647418 -0.8893779 -0.2756271 -0.3647418 -0.6817118 -0.634218 -0.3647416 -0.4308853 -0.8221197 -0.3720982 -0.2409491 -0.8963738 -0.3720989 0.0708111 -0.9284121 -0.3647419 0.4666216 -0.8057466 -0.3647419 0.7700113 -0.5234933 -0.3647429 0.9208921 -0.1375548 -0.3647417 0.889378 0.2756277 -0.3647413 0.6817116 0.6342176 -0.3647428 0.2409491 0.8963742 0.3720978 0.4308852 0.8221201 0.3720975 -0.07081128 0.9284123 0.3647414 -0.4666217 0.8057467 0.3647416 -0.770012 0.5234932 0.3647415 -0.9208921 0.1375552 0.3647415 -0.8893781 -0.2756271 0.3647415 -0.681712 -0.6342181 0.3647413 -0.4308853 -0.8221199 0.3720978 -0.2409491 -0.8963739 0.3720986 -0.1919904 -0.3591021 0.9133375 -0.3128748 -0.2910773 0.9040926 -0.4081839 -0.1265002 0.9040927 -0.4226474 0.06313157 0.9040927 -0.3534003 0.2402593 0.9040927 -0.214158 0.3698008 0.9040928 -0.03249914 0.426099 0.9040926 0.1024691 0.3940999 0.9133375 -0.1024689 -0.3940991 0.9133379 0.03249932 -0.4260987 0.9040927 0.4081846 0.1265002 0.9040924 0.3128734 0.2910766 0.9040933 0.1919906 0.3591025 0.9133373 0.4226477 -0.06313161 0.9040926 0.2141576 -0.369801 0.9040927 0.3533991 -0.2402589 0.9040933 0.07081108 -0.9284123 0.3647416 0.4666216 -0.8057468 0.3647416 0.7700115 -0.5234932 0.3647426 0.9208921 -0.1375549 0.3647415 0.8893782 0.2756275 0.3647409 0.6817115 0.6342179 0.3647424</float_array>
          <technique_common>
            <accessor count="740" source="#normals-array-array" stride="3">
              <param type="float" name="X"/>
              <param type="float" name="Y"/>
              <param type="float" name="Z"/>
            </accessor>
          </technique_common>
        </source>
        <vertices id="verts-array-vertices">
          <input semantic="POSITION" source="#verts-array"/>
        </vertices>
        <triangles count="1496" material="material0">
          <input offset="0" semantic="VERTEX" source="#verts-array-vertices"/>
          <input offset="1" semantic="NORMAL" source="#normals-array"/>
          <p>0 0 1 1 2 2 3 3 0 0 4 4 5 5 3 3 6 6 7 7 5 5 8 8 9 9 7 7 10 10 11 11 9 9 12 12 13 13 11 11 14 14 15 15 13 13 16 16 17 17 15 15 18 18 19 19 20 20 21 21 22 22 21 21 20 20 20 20 17 17 22 22 23 23 19 19 24 24 25 25 23 23 26 26 1 1 25 25 27 27 27 27 2 2 1 1 26 26 27 27 25 25 24 24 26 26 23 23 21 21 24 24 19 19 18 18 22 22 17 17 16 16 18 18 15 15 14 14 16 16 13 13 12 12 14 14 11 11 10 10 12 12 9 9 8 8 10 10 7 7 6 6 8 8 5 5 4 4 6 6 3 3 2 2 4 4 0 0 28 28 17 17 20 20 3 3 29 29 30 30 20 20 19 19 28 28 3 3 31 31 29 29 3 3 32 32 33 33 34 34 28 28 23 23 28 28 15 15 17 17 33 33 31 31 3 3 34 34 1 1 0 0 19 19 23 23 28 28 35 35 13 13 15 15 36 36 9 9 11 11 37 37 32 32 5 5 0 0 30 30 34 34 15 15 28 28 35 35 11 11 35 35 36 36 37 37 7 7 9 9 32 32 3 3 5 5 34 34 25 25 1 1 11 11 13 13 35 35 34 34 38 38 39 39 5 5 7 7 37 37 23 23 25 25 34 34 39 39 28 28 34 34 30 30 0 0 3 3 39 39 38 38 40 40 9 9 36 36 37 37 39 39 41 41 28 28 40 40 42 42 39 39 43 43 30 30 29 29 29 29 44 44 43 43 45 45 39 39 42 42 42 42 46 46 45 45 46 46 47 47 45 45 48 48 46 46 42 42 48 48 47 47 46 46 42 42 49 49 48 48 38 38 50 50 49 49 34 34 51 51 50 50 30 30 43 43 51 51 51 51 34 34 30 30 50 50 38 38 34 34 49 49 40 40 38 38 42 42 40 40 49 49 52 52 53 53 32 32 52 52 54 54 53 53 32 32 37 37 52 52 44 44 29 29 31 31 55 55 31 31 33 33 56 56 57 57 32 32 32 32 53 53 56 56 57 57 33 33 32 32 53 53 54 54 56 56 33 33 57 57 55 55 31 31 55 55 44 44 43 43 44 44 58 58 58 58 59 59 43 43 43 43 59 59 60 60 51 51 60 60 61 61 50 50 61 61 62 62 49 49 62 62 63 63 63 63 48 48 49 49 62 62 49 49 50 50 61 61 50 50 51 51 60 60 51 51 43 43 64 64 48 48 63 63 63 63 65 65 64 64 56 56 66 66 67 67 57 57 67 67 68 68 55 55 68 68 58 58 58 58 44 44 55 55 68 68 55 55 57 57 67 67 57 57 56 56 56 56 69 69 70 70 70 70 66 66 56 56 63 63 62 62 61 61 63 63 71 71 72 72 61 61 60 60 63 63 72 72 65 65 63 63 73 73 58 58 66 66 66 66 58 58 68 68 59 59 73 73 63 63 72 72 74 74 65 65 68 68 67 67 66 66 60 60 59 59 63 63 75 75 76 76 77 77 76 76 78 78 79 79 63 63 73 73 71 71 59 59 58 58 73 73 80 80 81 81 82 82 83 83 84 84 81 81 79 79 77 77 76 76 78 78 85 85 86 86 85 85 65 65 87 87 66 66 88 88 73 73 82 82 70 70 80 80 81 81 80 80 83 83 86 86 79 79 78 78 74 74 87 87 65 65 83 83 75 75 84 84 87 87 86 86 85 85 70 70 89 89 90 90 77 77 84 84 75 75 90 90 66 66 70 70 90 90 88 88 66 66 82 82 89 89 70 70 64 64 65 65 85 85 91 91 85 85 78 78 92 92 78 78 76 76 93 93 76 76 75 75 94 94 75 75 83 83 95 95 83 83 80 80 96 96 80 80 70 70 70 70 69 69 96 96 80 80 96 96 95 95 83 83 95 95 94 94 75 75 94 94 93 93 76 76 93 93 92 92 78 78 92 92 91 91 85 85 91 91 64 64 97 97 64 64 91 91 98 98 91 91 92 92 99 99 92 92 93 93 100 100 93 93 94 94 101 101 94 94 95 95 102 102 95 95 96 96 103 103 96 96 69 69 69 69 104 104 103 103 96 96 103 103 102 102 95 95 102 102 101 101 94 94 101 101 100 100 93 93 100 100 99 99 92 92 99 99 98 98 91 91 98 98 97 97 77 77 79 79 105 105 84 84 77 77 106 106 81 81 84 84 107 107 82 82 81 81 108 108 89 89 82 82 109 109 90 90 89 89 110 110 88 88 90 90 111 111 73 73 88 88 112 112 71 71 73 73 113 113 71 71 114 114 115 115 116 116 74 74 72 72 72 72 115 115 116 116 87 87 74 74 116 116 86 86 87 87 117 117 79 79 86 86 118 118 118 118 105 105 79 79 117 117 118 118 86 86 116 116 117 117 87 87 115 115 72 72 71 71 113 113 114 114 71 71 112 112 113 113 73 73 111 111 112 112 88 88 110 110 111 111 90 90 109 109 110 110 89 89 108 108 109 109 82 82 107 107 108 108 81 81 106 106 107 107 84 84 105 105 106 106 77 77 119 119 28 28 41 41 120 120 41 41 39 39 39 39 45 45 120 120 41 41 120 120 119 119 119 119 121 121 122 122 122 122 28 28 119 119 45 45 123 123 124 124 124 124 120 120 45 45 119 119 125 125 126 126 126 126 121 121 119 119 120 120 127 127 128 128 128 128 119 119 120 120 128 128 125 125 119 119 126 126 129 129 121 121 124 124 127 127 120 120 130 130 131 131 132 132 133 133 134 134 135 135 136 136 137 137 138 138 137 137 135 135 138 138 130 130 136 136 139 139 136 136 140 140 139 139 126 126 130 130 141 141 130 130 142 142 141 141 130 130 126 126 125 125 125 125 131 131 130 130 131 131 128 128 127 127 127 127 143 143 131 131 124 124 144 144 145 145 124 124 146 146 144 144 124 124 123 123 146 146 131 131 147 147 148 148 131 131 149 149 150 150 131 131 151 151 149 149 150 150 152 152 131 131 152 152 153 153 131 131 153 153 154 154 131 131 154 154 147 147 131 131 143 143 155 155 151 151 151 151 131 131 143 143 136 136 156 156 157 157 136 136 132 132 156 156 137 137 157 157 158 158 158 158 133 133 137 137 157 157 137 137 136 136 156 156 132 132 148 148 148 148 132 132 131 131 155 155 143 143 145 145 145 145 143 143 124 124 127 127 124 124 143 143 125 125 128 128 131 131 141 141 129 129 126 126 139 139 142 142 130 130 138 138 140 140 136 136 135 135 137 137 133 133 132 132 136 136 130 130 148 148 159 159 160 160 148 148 161 161 159 159 148 148 162 162 161 161 148 148 163 163 162 162 148 148 164 164 163 163 165 165 157 157 156 156 156 156 160 160 165 165 166 166 158 158 157 157 157 157 165 165 166 166 167 167 144 144 146 146 151 151 155 155 167 167 149 149 151 151 168 168 168 168 169 169 149 149 167 167 168 168 151 151 155 155 145 145 167 167 145 145 144 144 167 167 150 150 149 149 170 170 149 149 171 171 170 170 149 149 169 169 171 171 170 170 172 172 150 150 164 164 152 152 150 150 164 164 148 148 147 147 147 147 154 154 164 164 154 154 153 153 164 164 153 153 152 152 164 164 150 150 172 172 164 164 146 146 123 123 167 167 160 160 156 156 148 148 173 173 158 158 166 166 166 166 174 174 173 173 175 175 138 138 135 135 175 175 142 142 139 139 175 175 129 129 141 141 175 175 140 140 138 138 141 141 142 142 175 175 139 139 140 140 175 175 129 129 175 175 176 176 176 176 121 121 129 129 134 134 177 177 175 175 134 134 178 178 177 177 121 121 176 176 179 179 179 179 122 122 121 121 135 135 134 134 175 175 180 180 181 181 176 176 176 176 175 175 180 180 177 177 178 178 182 182 175 175 177 177 183 183 183 183 180 180 175 175 182 182 183 183 177 177 176 176 181 181 184 184 179 179 184 184 185 185 185 185 28 28 122 122 185 185 122 122 179 179 185 185 35 35 28 28 184 184 179 179 176 176 52 52 37 37 36 36 186 186 36 36 35 35 35 35 187 187 186 186 36 36 186 186 52 52 187 187 35 35 185 185 185 185 188 188 187 187 181 181 189 189 190 190 181 181 191 191 189 189 181 181 192 192 193 193 181 181 180 180 194 194 190 190 195 195 181 181 194 194 192 192 181 181 180 180 183 183 196 196 193 193 191 191 181 181 195 195 188 188 181 181 188 188 185 185 184 184 196 196 194 194 180 180 183 183 182 182 196 196 184 184 181 181 188 188 52 52 186 186 197 197 186 186 198 198 197 197 186 186 187 187 199 199 187 187 200 200 199 199 187 187 188 188 201 201 188 188 195 195 201 201 201 201 200 200 187 187 199 199 198 198 186 186 197 197 202 202 52 52 203 203 204 204 205 205 203 203 206 206 198 198 206 206 197 197 198 198 204 204 203 203 200 200 203 203 199 199 200 200 204 204 201 201 195 195 204 204 190 190 189 189 189 189 205 205 204 204 207 207 205 205 191 191 191 191 193 193 207 207 208 208 207 207 192 192 192 192 194 194 208 208 207 207 208 208 209 209 205 205 207 207 210 210 210 210 211 211 205 205 212 212 211 211 213 213 203 203 214 214 215 215 203 203 216 216 217 217 203 203 218 218 216 216 217 217 219 219 203 203 219 219 220 220 203 203 220 220 221 221 203 203 203 203 212 212 222 222 222 222 223 223 203 203 223 223 218 218 203 203 221 221 214 214 203 203 197 197 206 206 224 224 224 224 202 202 197 197 224 224 206 206 215 215 215 215 206 206 203 203 213 213 222 222 212 212 211 211 212 212 205 205 209 209 210 210 207 207 194 194 196 196 208 208 193 193 192 192 207 207 189 189 191 191 205 205 195 195 190 190 204 204 200 200 201 201 204 204 198 198 199 199 203 203 205 205 212 212 203 203 225 225 226 226 210 210 226 226 227 227 213 213 227 227 216 216 218 218 218 218 223 223 227 227 223 223 222 222 227 227 222 222 213 213 227 227 213 213 211 211 226 226 211 211 210 210 226 226 216 216 228 228 229 229 216 216 230 230 228 228 216 216 231 231 230 230 216 216 232 232 231 231 216 216 227 227 232 232 233 233 219 219 217 217 233 233 215 215 214 214 234 234 235 235 224 224 215 215 236 236 234 234 215 215 237 237 236 236 215 215 233 233 237 237 224 224 215 215 234 234 214 214 221 221 233 233 221 221 220 220 233 233 220 220 219 219 233 233 224 224 235 235 238 238 238 238 239 239 224 224 239 239 202 202 224 224 217 217 229 229 233 233 229 229 217 217 216 216 210 210 209 209 225 225 225 225 209 209 240 240 240 240 241 241 225 225 242 242 243 243 244 244 240 240 182 182 245 245 182 182 178 178 246 246 173 173 242 242 247 247 244 244 248 248 242 242 246 246 245 245 182 182 248 248 247 247 242 242 243 243 249 249 250 250 178 178 251 251 246 246 173 173 252 252 253 253 250 250 244 244 243 243 254 254 255 255 256 256 255 255 240 240 257 257 178 178 253 253 251 251 247 247 252 252 173 173 249 249 258 258 259 259 258 258 260 260 261 261 257 257 256 256 255 255 253 253 178 178 173 173 261 261 259 259 258 258 260 260 254 254 262 262 245 245 257 257 240 240 262 262 261 261 260 260 208 208 196 196 182 182 133 133 173 173 178 178 259 259 250 250 249 249 240 240 209 209 208 208 178 178 134 134 133 133 182 182 240 240 208 208 256 256 262 262 254 254 133 133 158 158 173 173 240 240 255 255 263 263 263 263 241 241 240 240 263 263 255 255 254 254 264 264 254 254 260 260 265 265 260 260 258 258 266 266 258 258 249 249 267 267 249 249 243 243 268 268 243 243 242 242 269 269 242 242 173 173 173 173 174 174 269 269 242 242 269 269 268 268 243 243 268 268 267 267 249 249 267 267 266 266 258 258 266 266 265 265 260 260 265 265 264 264 254 254 264 264 263 263 270 270 271 271 241 241 241 241 263 263 270 270 270 270 263 263 264 264 272 272 264 264 265 265 273 273 265 265 266 266 274 274 266 266 267 267 275 275 267 267 268 268 276 276 268 268 269 269 277 277 269 269 174 174 174 174 278 278 277 277 269 269 277 277 276 276 268 268 276 276 275 275 267 267 275 275 274 274 266 266 274 274 273 273 265 265 273 273 272 272 264 264 272 272 270 270 246 246 251 251 279 279 245 245 246 246 280 280 257 257 245 245 281 281 256 256 257 257 282 282 262 262 256 256 283 283 261 261 262 262 284 284 259 259 261 261 285 285 250 250 259 259 286 286 244 244 250 250 287 287 248 248 244 244 288 288 289 289 247 247 248 248 248 248 290 290 289 289 252 252 247 247 289 289 253 253 252 252 291 291 251 251 253 253 292 292 292 292 279 279 251 251 291 291 292 292 253 253 289 289 291 291 252 252 288 288 290 290 248 248 287 287 288 288 244 244 286 286 287 287 250 250 285 285 286 286 259 259 284 284 285 285 261 261 283 283 284 284 262 262 282 282 283 283 256 256 281 281 282 282 257 257 280 280 281 281 245 245 279 279 280 280 246 246 293 293 294 294 271 271 271 271 270 270 293 293 294 294 295 295 296 296 296 296 271 271 294 294 278 278 297 297 298 298 277 277 298 298 299 299 276 276 299 299 300 300 275 275 300 300 301 301 274 274 301 301 302 302 273 273 302 302 303 303 272 272 303 303 293 293 293 293 270 270 272 272 303 303 272 272 273 273 302 302 273 273 274 274 301 301 274 274 275 275 300 300 275 275 276 276 299 299 276 276 277 277 298 298 277 277 278 278 297 297 278 278 304 304 304 304 305 305 297 297 306 306 307 307 308 308 306 306 309 309 307 307 306 306 310 310 309 309 306 306 311 311 310 310 306 306 312 312 311 311 313 313 314 314 315 315 315 315 308 308 313 313 296 296 295 295 314 314 314 314 313 313 296 296 316 316 317 317 318 318 319 319 320 320 316 316 321 321 319 319 322 322 322 322 323 323 321 321 316 316 322 322 319 319 320 320 324 324 316 316 324 324 317 317 316 316 325 325 321 321 326 326 321 321 327 327 326 326 321 321 323 323 327 327 326 326 328 328 325 325 312 312 329 329 325 325 312 312 306 306 330 330 330 330 331 331 312 312 331 331 332 332 312 312 332 332 329 329 312 312 325 325 328 328 312 312 318 318 333 333 316 316 308 308 315 315 306 306 334 334 335 335 336 336 334 334 337 337 335 335 334 334 338 338 337 337 334 334 339 339 338 338 334 334 340 340 339 339 341 341 342 342 343 343 341 341 344 344 345 345 346 346 347 347 348 348 344 344 349 349 346 346 344 344 350 350 349 349 344 344 341 341 350 350 348 348 344 344 346 346 345 345 351 351 341 341 351 351 352 352 341 341 352 352 342 342 341 341 348 348 347 347 353 353 353 353 354 354 348 348 354 354 355 355 348 348 343 343 336 336 341 341 304 304 356 356 357 357 356 356 340 340 358 358 340 340 334 334 359 359 359 359 360 360 340 340 360 360 361 361 340 340 361 361 358 358 340 340 358 358 362 362 356 356 362 362 357 357 356 356 357 357 305 305 304 304 336 336 343 343 334 334 363 363 364 364 365 365 365 365 366 366 367 367 366 366 368 368 367 367 369 369 365 365 370 370 365 365 371 371 370 370 369 369 372 372 373 373 369 369 374 374 375 375 375 375 363 363 369 369 376 376 363 363 377 377 377 377 378 378 376 376 379 379 376 376 380 380 380 380 381 381 379 379 376 376 379 379 305 305 363 363 376 376 357 357 357 357 362 362 363 363 364 364 362 362 358 358 365 365 345 345 344 344 365 365 334 334 343 343 365 365 359 359 334 334 343 343 342 342 365 365 342 342 352 352 365 365 352 352 351 351 365 365 365 365 364 364 361 361 361 361 360 360 365 365 360 360 359 359 365 365 351 351 345 345 365 365 368 368 366 366 348 348 348 348 355 355 368 368 348 348 366 366 344 344 344 344 366 366 365 365 358 358 361 361 364 364 362 362 364 364 363 363 305 305 357 357 376 376 381 381 382 382 379 379 378 378 380 380 376 376 375 375 377 377 363 363 373 373 374 374 369 369 370 370 372 372 369 369 367 367 371 371 365 365 365 365 369 369 363 363 298 298 290 290 288 288 298 298 289 289 290 290 297 297 291 291 289 289 303 303 284 284 283 283 302 302 285 285 284 284 301 301 286 286 285 285 300 300 287 287 286 286 299 299 288 288 287 287 289 289 298 298 297 297 284 284 303 303 302 302 286 286 301 301 300 300 288 288 299 299 298 298 297 297 305 305 292 292 279 279 379 379 383 383 383 383 384 384 294 294 293 293 283 283 282 282 285 285 302 302 301 301 292 292 291 291 297 297 379 379 382 382 383 383 385 385 294 294 384 384 282 282 294 294 293 293 287 287 300 300 299 299 279 279 305 305 379 379 384 384 386 386 385 385 283 283 293 293 303 303 383 383 280 280 279 279 383 383 282 282 281 281 294 294 282 282 383 383 281 281 280 280 383 383 279 279 292 292 305 305 385 385 295 295 294 294 387 387 388 388 389 389 383 383 387 387 390 390 390 390 384 384 383 383 389 389 390 390 387 387 391 391 392 392 389 389 389 389 388 388 391 391 391 391 375 375 374 374 391 391 377 377 375 375 391 391 380 380 378 378 391 391 388 388 381 381 374 374 373 373 391 391 381 381 380 380 391 391 388 388 387 387 382 382 378 378 377 377 391 391 373 373 393 393 391 391 393 393 394 394 395 395 382 382 381 381 388 388 387 387 383 383 382 382 395 395 391 391 393 393 395 395 396 396 392 392 396 396 395 395 394 394 394 394 397 397 398 398 394 394 398 398 396 396 394 394 399 399 397 397 392 392 391 391 395 395 389 389 400 400 401 401 389 389 402 402 403 403 389 389 404 404 405 405 389 389 406 406 400 400 405 405 402 402 389 389 403 403 406 406 389 389 404 404 389 389 392 392 392 392 407 407 404 404 386 386 390 390 389 389 386 386 384 384 390 390 407 407 392 392 396 396 396 396 398 398 407 407 401 401 386 386 389 389 408 408 409 409 410 410 385 385 386 386 401 401 409 409 411 411 400 400 411 411 401 401 400 400 410 410 409 409 403 403 409 409 406 406 403 403 412 412 410 410 405 405 410 410 402 402 405 405 410 410 412 412 413 413 413 413 414 414 410 410 414 414 415 415 416 416 416 416 417 417 414 414 418 418 317 317 324 324 418 418 318 318 317 317 418 418 333 333 318 318 414 414 330 330 306 306 414 414 321 321 325 325 414 414 319 319 321 321 325 325 329 329 414 414 329 329 332 332 414 414 332 332 331 331 414 414 331 331 330 330 414 414 417 417 320 320 319 319 319 319 414 414 417 417 409 409 315 315 314 314 409 409 408 408 315 315 411 411 314 314 295 295 295 295 385 385 411 411 314 314 411 411 409 409 315 315 408 408 306 306 306 306 408 408 414 414 320 320 417 417 324 324 324 324 417 417 418 418 416 416 418 418 417 417 413 413 415 415 414 414 405 405 404 404 412 412 403 403 402 402 410 410 400 400 406 406 409 409 401 401 411 411 385 385 410 410 414 414 408 408 419 419 420 420 368 368 420 420 367 367 368 368 420 420 421 421 371 371 421 421 370 370 371 371 421 421 393 393 372 372 393 393 373 373 372 372 372 372 370 370 421 421 371 371 367 367 420 420 368 368 355 355 419 419 421 421 399 399 394 394 394 394 393 393 421 421 422 422 333 333 418 418 418 418 423 423 422 422 424 424 413 413 412 412 412 412 407 407 424 424 423 423 416 416 415 415 415 415 424 424 423 423 415 415 413 413 424 424 412 412 404 404 407 407 418 418 416 416 423 423 424 424 407 407 398 398 398 398 397 397 424 424 419 419 425 425 426 426 420 420 426 426 399 399 399 399 421 421 420 420 426 426 420 420 419 419 419 419 427 427 428 428 419 419 429 429 427 427 428 428 425 425 419 419 424 424 397 397 430 430 423 423 430 430 431 431 431 431 422 422 423 423 430 430 423 423 424 424 422 422 431 431 432 432 432 432 433 433 422 422 433 433 434 434 422 422 399 399 426 426 21 21 426 426 24 24 21 21 425 425 26 26 24 24 8 8 435 435 436 436 24 24 426 426 425 425 431 431 10 10 8 8 431 431 430 430 12 12 397 397 399 399 18 18 21 21 22 22 399 399 425 425 428 428 27 27 431 431 437 437 438 438 12 12 10 10 431 431 430 430 397 397 14 14 18 18 16 16 397 397 27 27 26 26 425 425 2 2 428 428 439 439 431 431 440 440 441 441 431 431 436 436 437 437 14 14 12 12 430 430 22 22 18 18 399 399 439 439 4 4 2 2 438 438 440 440 431 431 16 16 14 14 397 397 439 439 435 435 4 4 435 435 8 8 6 6 436 436 431 431 8 8 6 6 4 4 435 435 2 2 27 27 428 428 441 441 432 432 431 431 442 442 433 433 432 432 442 442 434 434 433 433 432 432 443 443 442 442 440 440 444 444 443 443 438 438 445 445 444 444 444 444 440 440 438 438 443 443 441 441 440 440 432 432 441 441 443 443 446 446 437 437 436 436 447 447 436 436 435 435 448 448 435 435 439 439 449 449 428 428 427 427 450 450 439 439 428 428 428 428 449 449 450 450 427 427 429 429 449 449 439 439 450 450 448 448 435 435 448 448 447 447 436 436 447 447 446 446 445 445 438 438 437 437 437 437 446 446 445 445 446 446 451 451 452 452 452 452 445 445 446 446 449 449 453 453 454 454 450 450 454 454 455 455 448 448 455 455 456 456 447 447 456 456 451 451 451 451 446 446 447 447 456 456 447 447 448 448 455 455 448 448 450 450 454 454 450 450 449 449 449 449 457 457 458 458 458 458 453 453 449 449 445 445 452 452 459 459 444 444 459 459 460 460 443 443 460 460 461 461 461 461 442 442 443 443 460 460 443 443 444 444 459 459 444 444 445 445 442 442 461 461 462 462 462 462 463 463 442 442 453 453 456 456 455 455 453 453 451 451 456 456 453 453 458 458 464 464 465 465 466 466 467 467 466 466 462 462 468 468 462 462 461 461 469 469 455 455 454 454 453 453 461 461 460 460 459 459 470 470 471 471 461 461 458 458 472 472 464 464 473 473 474 474 475 475 474 474 473 473 465 465 462 462 476 476 468 468 461 461 471 471 469 469 470 470 452 452 451 451 461 461 452 452 470 470 458 458 477 477 472 472 478 478 479 479 480 480 481 481 475 475 479 479 467 467 474 474 465 465 469 469 476 476 462 462 459 459 452 452 461 461 464 464 482 482 453 453 479 479 478 478 481 481 468 468 467 467 466 466 482 482 470 470 453 453 483 483 480 480 477 477 475 475 481 481 473 473 477 477 458 458 483 483 453 453 470 470 451 451 480 480 483 483 478 478 463 463 462 462 466 466 484 484 466 466 465 465 485 485 465 465 473 473 486 486 473 473 481 481 487 487 481 481 478 478 488 488 478 478 483 483 489 489 483 483 458 458 458 458 457 457 489 489 483 483 489 489 488 488 478 478 488 488 487 487 481 481 487 487 486 486 473 473 486 486 485 485 465 465 485 485 484 484 466 466 484 484 463 463 457 457 490 490 491 491 489 489 491 491 492 492 488 488 492 492 493 493 487 487 493 493 494 494 486 486 494 494 495 495 485 485 495 495 496 496 484 484 496 496 497 497 497 497 463 463 484 484 496 496 484 484 485 485 495 495 485 485 486 486 494 494 486 486 487 487 493 493 487 487 488 488 492 492 488 488 489 489 491 491 489 489 457 457 498 498 499 499 479 479 500 500 498 498 475 475 501 501 500 500 474 474 502 502 501 501 467 467 503 503 502 502 468 468 504 504 503 503 476 476 505 505 504 504 469 469 506 506 505 505 471 471 507 507 506 506 470 470 464 464 472 472 508 508 507 507 482 482 464 464 464 464 509 509 507 507 510 510 508 508 472 472 511 511 510 510 477 477 499 499 511 511 480 480 480 480 479 479 499 499 477 477 480 480 511 511 472 472 477 477 510 510 508 508 509 509 464 464 470 470 482 482 507 507 471 471 470 470 506 506 469 469 471 471 505 505 476 476 469 469 504 504 468 468 476 476 503 503 467 467 468 468 502 502 474 474 467 467 501 501 475 475 474 474 500 500 479 479 475 475 498 498 226 226 323 323 322 322 226 226 310 310 311 311 226 226 327 327 323 323 226 226 309 309 310 310 226 226 326 326 327 327 226 226 307 307 309 309 333 333 231 231 232 232 333 333 236 236 237 237 333 333 235 235 234 234 226 226 328 328 326 326 226 226 308 308 307 307 333 333 230 230 231 231 234 234 236 236 333 333 333 333 54 54 202 202 322 322 316 316 226 226 311 311 312 312 226 226 333 333 228 228 230 230 333 333 238 238 235 235 202 202 239 239 333 333 56 56 54 54 512 512 54 54 513 513 514 514 312 312 328 328 226 226 225 225 241 241 271 271 313 313 226 226 225 225 333 333 229 229 228 228 239 239 238 238 333 333 514 514 512 512 54 54 226 226 313 313 308 308 225 225 296 296 313 313 232 232 227 227 333 333 237 237 233 233 333 333 512 512 515 515 56 56 271 271 296 296 225 225 233 233 229 229 333 333 69 69 56 56 516 516 515 515 517 517 56 56 227 227 226 226 333 333 516 516 518 518 69 69 54 54 519 519 513 513 434 434 54 54 333 333 54 54 52 52 202 202 517 517 516 516 56 56 463 463 520 520 519 519 463 463 54 54 434 434 316 316 333 333 226 226 519 519 54 54 463 463 463 463 497 497 521 521 333 333 422 422 434 434 521 521 520 520 463 463 518 518 104 104 69 69 434 434 442 442 463 463 522 522 523 523 512 512 512 512 514 514 522 522 524 524 525 525 518 518 526 526 524 524 516 516 527 527 526 526 517 517 523 523 527 527 515 515 515 515 512 512 523 523 517 517 515 515 527 527 516 516 517 517 526 526 518 518 516 516 524 524 520 520 521 521 528 528 519 519 520 520 529 529 513 513 519 519 530 530 514 514 513 513 531 531 531 531 522 522 514 514 530 530 531 531 513 513 529 529 530 530 519 519 528 528 529 529 520 520 532 532 509 509 508 508 532 532 507 507 509 509 508 508 490 490 532 532 494 494 493 493 498 498 493 493 492 492 499 499 532 532 506 506 507 507 533 533 505 505 506 506 495 495 500 500 501 501 499 499 498 498 493 493 492 492 491 491 511 511 491 491 490 490 510 510 506 506 532 532 533 533 496 496 501 501 502 502 501 501 496 496 495 495 511 511 499 499 492 492 508 508 510 510 490 490 505 505 533 533 528 528 497 497 502 502 503 503 495 495 494 494 500 500 510 510 511 511 491 491 528 528 503 503 504 504 502 502 497 497 496 496 528 528 504 504 505 505 498 498 500 500 494 494 503 503 521 521 497 497 528 528 521 521 503 503 534 534 97 97 116 116 116 116 115 115 534 534 97 97 117 117 116 116 102 102 103 103 108 108 535 535 534 534 113 113 115 115 114 114 534 534 100 100 106 106 105 105 101 101 107 107 106 106 107 107 101 101 102 102 103 103 104 104 109 109 104 104 518 518 525 525 112 112 111 111 525 525 114 114 113 113 534 534 98 98 118 118 117 117 99 99 105 105 118 118 106 106 100 100 101 101 109 109 108 108 103 103 525 525 110 110 104 104 525 525 535 535 112 112 117 117 97 97 98 98 105 105 99 99 100 100 110 110 109 109 104 104 113 113 112 112 535 535 108 108 107 107 102 102 118 118 98 98 99 99 111 111 110 110 525 525 522 522 531 531 533 533 536 536 537 537 523 523 533 533 538 538 522 522 522 522 539 539 536 536 523 523 540 540 535 535 538 538 541 541 522 522 523 523 522 522 536 536 523 523 542 542 540 540 537 537 543 543 523 523 523 523 543 543 542 542 535 535 527 527 523 523 535 535 526 526 527 527 541 541 539 539 522 522 533 533 530 530 529 529 535 535 524 524 526 526 531 531 530 530 533 533 535 535 525 525 524 524 529 529 528 528 533 533 536 536 544 544 545 545 545 545 537 537 536 536 538 538 533 533 532 532 541 541 538 538 546 546 539 539 541 541 547 547 536 536 539 539 548 548 548 548 544 544 536 536 547 547 548 548 539 539 546 546 547 547 541 541 532 532 546 546 538 538 549 549 534 534 535 535 550 550 549 549 540 540 551 551 550 550 542 542 545 545 551 551 543 543 543 543 537 537 545 545 542 542 543 543 551 551 540 540 542 542 550 550 535 535 540 540 549 549 356 356 169 169 168 168 356 356 162 162 163 163 356 356 171 171 169 169 356 356 161 161 162 162 356 356 170 170 171 171 356 356 159 159 161 161 123 123 338 338 339 339 552 552 337 337 338 338 552 552 349 349 350 350 552 552 347 347 346 346 429 429 553 553 554 554 47 47 555 555 556 556 356 356 172 172 170 170 356 356 160 160 159 159 338 338 123 123 552 552 346 346 349 349 552 552 552 552 557 557 355 355 429 429 558 558 553 553 556 556 559 559 47 47 168 168 167 167 356 356 163 163 164 164 356 356 552 552 335 335 337 337 552 552 353 353 347 347 355 355 354 354 552 552 429 429 419 419 558 558 449 449 560 560 561 561 48 48 64 64 562 562 559 559 45 45 47 47 164 164 172 172 356 356 304 304 278 278 174 174 165 165 356 356 304 304 552 552 336 336 335 335 354 354 353 353 552 552 419 419 563 563 558 558 457 457 564 564 546 546 561 561 457 457 449 449 64 64 565 565 562 562 47 47 566 566 567 567 559 559 568 568 45 45 356 356 165 165 160 160 304 304 166 166 165 165 339 339 340 340 123 123 350 350 341 341 552 552 419 419 569 569 563 563 564 564 570 570 546 546 449 449 571 571 560 560 562 562 572 572 48 48 64 64 534 534 549 549 573 573 574 574 545 545 575 575 551 551 545 545 47 47 576 576 566 566 123 123 45 45 577 577 568 568 578 578 45 45 174 174 166 166 304 304 341 341 336 336 552 552 419 419 579 579 569 569 355 355 557 557 579 579 570 570 573 573 548 548 546 546 532 532 457 457 561 561 580 580 457 457 429 429 581 581 582 582 572 572 583 583 48 48 549 549 584 584 64 64 545 545 574 574 575 575 47 47 583 583 576 576 578 578 577 577 45 45 340 340 356 356 123 123 579 579 419 419 355 355 548 548 547 547 570 570 580 580 564 564 457 457 429 429 585 585 581 581 64 64 584 584 565 565 64 64 97 97 534 534 545 545 544 544 573 573 575 575 549 549 550 550 577 577 552 552 123 123 554 554 585 585 429 429 532 532 490 490 457 457 582 582 449 449 429 429 549 549 575 575 584 584 550 550 551 551 575 575 167 167 123 123 356 356 582 582 571 571 449 449 544 544 548 548 573 573 547 547 546 546 570 570 567 567 555 555 47 47 583 583 47 47 48 48 586 586 587 587 572 572 572 572 562 562 586 586 588 588 589 589 590 590 591 591 592 592 593 593 594 594 595 595 588 588 588 588 595 595 589 589 596 596 597 597 598 598 596 596 599 599 587 587 587 587 599 599 600 600 593 593 601 601 591 591 590 590 602 602 588 588 596 596 586 586 597 597 600 600 603 603 587 587 604 604 605 605 606 606 588 588 591 591 594 594 607 607 608 608 595 595 587 587 586 586 596 596 606 606 609 609 604 604 595 595 594 594 607 607 610 610 611 611 612 612 610 610 613 613 614 614 598 598 615 615 596 596 616 616 610 610 617 617 609 609 618 618 604 604 601 601 594 594 591 591 614 614 611 611 610 610 605 605 604 604 599 599 618 618 616 616 604 604 617 617 619 619 608 608 612 612 617 617 610 610 617 617 604 604 616 616 612 612 619 619 617 617 607 607 617 617 608 608 596 596 605 605 599 599 573 573 605 605 596 596 596 596 574 574 573 573 616 616 561 561 560 560 560 560 610 610 616 616 558 558 595 595 608 608 608 608 553 553 558 558 588 588 557 557 552 552 552 552 591 591 588 588 607 607 594 594 559 559 559 559 556 556 607 607 597 597 586 586 562 562 598 598 597 597 565 565 615 615 598 598 584 584 596 596 615 615 575 575 575 575 574 574 596 596 584 584 575 575 615 615 565 565 584 584 598 598 562 562 565 565 597 597 580 580 561 561 616 616 564 564 580 580 618 618 570 570 564 564 609 609 573 573 570 570 606 606 606 606 605 605 573 573 609 609 606 606 570 570 618 618 609 609 564 564 616 616 618 618 580 580 613 613 610 610 560 560 614 614 613 613 571 571 611 611 614 614 582 582 582 582 581 581 611 611 571 571 582 582 614 614 560 560 571 571 613 613 589 589 595 595 558 558 590 590 589 589 563 563 602 602 590 590 569 569 588 588 602 602 579 579 579 579 557 557 588 588 569 569 579 579 602 602 563 563 569 569 590 590 558 558 563 563 589 589 568 568 559 559 594 594 578 578 568 568 601 601 577 577 578 578 593 593 552 552 577 577 592 592 592 592 591 591 552 552 593 593 592 592 577 577 601 601 593 593 578 578 594 594 601 601 568 568 583 583 572 572 587 587 576 576 583 583 603 603 566 566 576 576 600 600 600 600 599 599 566 566 603 603 600 600 576 576 587 587 603 603 583 583 566 566 599 599 604 604 567 567 604 604 617 617 555 555 617 617 607 607 607 607 556 556 555 555 617 617 555 555 567 567 604 604 567 567 566 566 611 611 581 581 585 585 612 612 585 585 554 554 619 619 554 554 553 553 553 553 608 608 619 619 554 554 619 619 612 612 585 585 612 612 611 611 620 620 621 621 622 622 623 623 620 620 624 624 625 625 623 623 626 626 627 627 625 625 628 628 629 629 627 627 630 630 631 631 629 629 632 632 633 633 631 631 634 634 635 635 633 633 636 636 637 637 635 635 638 638 639 639 640 640 641 641 642 642 641 641 640 640 640 640 637 637 642 642 643 643 639 639 644 644 645 645 643 643 646 646 621 621 645 645 647 647 647 647 622 622 621 621 646 646 647 647 645 645 644 644 646 646 643 643 641 641 644 644 639 639 638 638 642 642 637 637 636 636 638 638 635 635 634 634 636 636 633 633 632 632 634 634 631 631 630 630 632 632 629 629 628 628 630 630 627 627 626 626 628 628 625 625 624 624 626 626 623 623 622 622 624 624 620 620 648 648 637 637 640 640 640 640 649 649 648 648 633 633 635 635 650 650 640 640 639 639 649 649 651 651 652 652 653 653 651 651 633 633 654 654 635 635 648 648 650 650 655 655 649 649 643 643 648 648 635 635 637 637 654 654 652 652 651 651 650 650 656 656 633 633 657 657 658 658 659 659 639 639 643 643 649 649 656 656 654 654 633 633 649 649 660 660 661 661 660 660 662 662 663 663 659 659 662 662 657 657 664 664 623 623 625 625 665 665 666 666 621 621 666 666 655 655 645 645 653 653 667 667 651 651 660 660 668 668 661 661 659 659 663 663 662 662 669 669 670 670 658 658 671 671 625 625 627 627 625 625 671 671 664 664 645 645 621 621 666 666 661 661 648 648 649 649 672 672 629 629 631 631 658 658 657 657 669 669 673 673 674 674 670 670 675 675 676 676 674 674 667 667 653 653 676 676 664 664 677 677 623 623 643 643 645 645 655 655 631 631 651 651 672 672 670 670 669 669 673 673 676 676 675 675 667 667 627 627 672 672 671 671 677 677 665 665 620 620 631 631 633 633 651 651 674 674 673 673 675 675 620 620 623 623 677 677 663 663 668 668 660 660 621 621 620 620 665 665 627 627 629 629 672 672 650 650 648 648 678 678 656 656 650 650 679 679 654 654 656 656 680 680 652 652 654 654 681 681 653 653 652 652 682 682 676 676 653 653 683 683 674 674 676 676 684 684 670 670 674 674 685 685 658 658 670 670 686 686 663 663 659 659 687 687 688 688 687 687 659 659 659 659 658 658 688 688 668 668 663 663 689 689 661 661 668 668 690 690 648 648 661 661 691 691 691 691 678 678 648 648 690 690 691 691 661 661 689 689 690 690 668 668 687 687 689 689 663 663 686 686 688 688 658 658 685 685 686 686 670 670 684 684 685 685 674 674 683 683 684 684 676 676 682 682 683 683 653 653 681 681 682 682 652 652 680 680 681 681 654 654 679 679 680 680 656 656 678 678 679 679 650 650 672 672 651 651 692 692 692 692 693 693 672 672 692 692 651 651 667 667 694 694 667 667 675 675 695 695 675 675 673 673 696 696 673 673 669 669 697 697 669 669 657 657 698 698 657 657 662 662 699 699 662 662 660 660 660 660 700 700 699 699 662 662 699 699 698 698 657 657 698 698 697 697 669 669 697 697 696 696 673 673 696 696 695 695 675 675 695 695 694 694 667 667 694 694 692 692 701 701 649 649 655 655 702 702 655 655 666 666 703 703 666 666 665 665 704 704 665 665 677 677 705 705 677 677 664 664 706 706 664 664 671 671 707 707 671 671 672 672 672 672 693 693 707 707 671 671 707 707 706 706 664 664 706 706 705 705 677 677 705 705 704 704 665 665 704 704 703 703 666 666 703 703 702 702 655 655 702 702 701 701 708 708 709 709 693 693 693 693 692 692 708 708 660 660 649 649 701 701 701 701 700 700 660 660 708 708 692 692 694 694 710 710 694 694 695 695 711 711 695 695 696 696 712 712 696 696 697 697 713 713 697 697 698 698 714 714 698 698 699 699 715 715 699 699 700 700 700 700 716 716 715 715 699 699 715 715 714 714 698 698 714 714 713 713 697 697 713 713 712 712 696 696 712 712 711 711 695 695 711 711 710 710 694 694 710 710 708 708 716 716 700 700 701 701 701 701 717 717 716 716 716 716 718 718 719 719 715 715 719 719 720 720 714 714 720 720 721 721 713 713 721 721 722 722 712 712 722 722 723 723 711 711 723 723 724 724 710 710 724 724 725 725 725 725 708 708 710 710 724 724 710 710 711 711 723 723 711 711 712 712 722 722 712 712 713 713 721 721 713 713 714 714 720 720 714 714 715 715 719 719 715 715 716 716 678 678 726 726 641 641 726 726 644 644 641 641 726 726 646 646 644 644 636 636 680 680 679 679 641 641 642 642 678 678 727 727 647 647 646 646 725 725 682 682 681 681 728 728 729 729 628 628 730 730 725 725 634 634 679 679 638 638 636 636 646 646 726 726 727 727 681 681 636 636 725 725 725 725 724 724 683 683 723 723 722 722 685 685 722 722 721 721 686 686 626 626 731 731 728 728 729 729 730 730 630 630 725 725 636 636 634 634 642 642 638 638 678 678 683 683 682 682 725 725 724 724 723 723 684 684 686 686 685 685 722 722 630 630 628 628 729 729 634 634 632 632 730 730 681 681 680 680 636 636 685 685 684 684 723 723 720 720 719 719 687 687 632 632 630 630 730 730 684 684 683 683 724 724 719 719 689 689 687 687 718 718 690 690 689 689 731 731 626 626 624 624 679 679 678 678 638 638 721 721 720 720 688 688 689 689 719 719 718 718 726 726 678 678 691 691 628 628 626 626 728 728 687 687 688 688 720 720 732 732 622 622 647 647 733 733 624 624 622 622 624 624 733 733 731 731 718 718 691 691 690 690 622 622 732 732 733 733 688 688 686 686 721 721 691 691 718 718 726 726 647 647 727 727 732 732 717 717 701 701 702 702 734 734 702 702 703 703 735 735 703 703 704 704 736 736 704 704 705 705 737 737 705 705 706 706 738 738 706 706 707 707 739 739 707 707 693 693 693 693 709 709 739 739 707 707 739 739 738 738 706 706 738 738 737 737 705 705 737 737 736 736 704 704 736 736 735 735 703 703 735 735 734 734 702 702 734 734 717 717 708 708 725 725 730 730 730 730 709 709 708 708 709 709 730 730 729 729 739 739 729 729 728 728 738 738 728 728 731 731 737 737 731 731 733 733 736 736 733 733 732 732 735 735 732 732 727 727 734 734 727 727 726 726 726 726 717 717 734 734 727 727 734 734 735 735 732 732 735 735 736 736 733 733 736 736 737 737 731 731 737 737 738 738 728 728 738 738 739 739 729 729 739 739 709 709 716 716 717 717 726 726 726 726 718 718 716 716</p>
        </triangles>
      </mesh>
    </geometry>
  </library_geometries>
  <library_materials>
    <material id="e513294e6fd344a2bbd9453587b77c6e" name="defaultmaterial">
      <instance_effect url="#5a9cf58bc9b74dd5a3d951d22e4822af"/>
    </material>
  </library_materials>
  <library_visual_scenes>
    <visual_scene id="scene">
      <node id="node0" name="node0">
        <instance_geometry url="#161b2820c34c46e49a19c4f5b025709e">
          <bind_material>
            <technique_common>
              <instance_material symbol="material0" target="#e513294e6fd344a2bbd9453587b77c6e"/>
            </technique_common>
          </bind_material>
        </instance_geometry>
      </node>
    </visual_scene>
  </library_visual_scenes>
  <scene>
    <instance_visual_scene url="#scene"/>
  </scene>
</COLLADA>
